SplineFontDB: 3.0
FontName: KatamotzIkasi
FullName: Katamotz Ikasi
FamilyName: KatamotzIkasi
Weight: Medium
Copyright: Created by Gontzal Uriarte,,, with FontForge 2.0 (http://fontforge.sf.net) GPL version 3
Version: 001.000
ItalicAngle: 0
UnderlinePosition: -102
UnderlineWidth: 51
Ascent: 819
Descent: 205
sfntRevision: 0x00010000
LayerCount: 2
Layer: 0 1 "Atr+AOEA-s"  1
Layer: 1 1 "Fore"  0
XUID: [1021 569 560501186 11873889]
FSType: 8
OS2Version: 3
OS2_WeightWidthSlopeOnly: 0
OS2_UseTypoMetrics: 1
CreationTime: 1333303654
ModificationTime: 1349115914
PfmFamily: 17
TTFWeight: 500
TTFWidth: 5
LineGap: 92
VLineGap: 0
Panose: 2 0 6 3 0 0 0 0 0 0
OS2TypoAscent: 0
OS2TypoAOffset: 1
OS2TypoDescent: 0
OS2TypoDOffset: 1
OS2TypoLinegap: 92
OS2WinAscent: 0
OS2WinAOffset: 1
OS2WinDescent: 0
OS2WinDOffset: 1
HheadAscent: 0
HheadAOffset: 1
HheadDescent: 0
HheadDOffset: 1
OS2SubXSize: 666
OS2SubYSize: 716
OS2SubXOff: 0
OS2SubYOff: 143
OS2SupXSize: 666
OS2SupYSize: 716
OS2SupXOff: 0
OS2SupYOff: 490
OS2StrikeYSize: 50
OS2StrikeYPos: 264
OS2Vendor: 'kata'
OS2CodePages: 00000001.00000000
OS2UnicodeRanges: 00000003.00000000.00000000.00000000
MarkAttachClasses: 1
DEI: 91125
ShortTable: maxp 16
  1
  0
  153
  109
  5
  0
  0
  2
  0
  1
  1
  0
  64
  0
  0
  0
EndShort
LangName: 1033 "" "" "" "FontForge : Katamotz Ikasi : 1-8-2012" 
GaspTable: 1 65535 2
Encoding: UnicodeBmp
UnicodeInterp: none
NameList: Adobe Glyph List
DisplaySize: -24
AntiAlias: 1
FitToEm: 1
WinInfo: 53 53 15
BeginPrivate: 0
EndPrivate
BeginChars: 65539 153

StartChar: .notdef
Encoding: 65536 -1 0
Width: 512
Flags: W
LayerCount: 2
Fore
SplineSet
51 0 m 1,0,-1
 51 546 l 1,1,-1
 461 546 l 1,2,-1
 461 0 l 1,3,-1
 51 0 l 1,0,-1
102 51 m 1,4,-1
 410 51 l 1,5,-1
 410 495 l 1,6,-1
 102 495 l 1,7,-1
 102 51 l 1,4,-1
EndSplineSet
Validated: 1
EndChar

StartChar: exclam
Encoding: 33 33 4
Width: 330
GlyphClass: 2
Flags: W
LayerCount: 2
Fore
SplineSet
162 625 m 0,0,1
 181 625 181 625 181 606 c 2,2,-1
 181 99 l 2,3,4
 181 80 181 80 162 80 c 0,5,6
 141 80 141 80 141 99 c 2,7,-1
 141 606 l 2,8,9
 141 625 141 625 162 625 c 0,0,1
162 37 m 128,-1,11
 178 37 178 37 188 27 c 0,12,13
 197 18 197 18 197 3 c 0,14,15
 197 -11 197 -11 188 -20 c 0,16,17
 177 -31 177 -31 162 -31 c 0,18,19
 145 -31 145 -31 136 -22 c 0,20,21
 126 -12 126 -12 126 3 c 0,22,23
 126 17 126 17 136 27 c 128,-1,10
 146 37 146 37 162 37 c 128,-1,11
EndSplineSet
Validated: 1
EndChar

StartChar: quotedbl
Encoding: 34 34 5
Width: 405
GlyphClass: 2
Flags: W
LayerCount: 2
Fore
SplineSet
201 748 m 1,0,-1
 212 788 l 1,1,-1
 231 804 l 1,2,-1
 254 788 l 1,3,-1
 263 748 l 1,4,-1
 263 590 l 1,5,-1
 254 555 l 1,6,-1
 236 542 l 1,7,-1
 217 555 l 1,8,-1
 201 590 l 1,9,-1
 201 748 l 1,0,-1
113 743 m 1,10,-1
 124 784 l 1,11,-1
 143 800 l 1,12,-1
 165 784 l 1,13,-1
 174 743 l 1,14,-1
 174 585 l 1,15,-1
 165 551 l 1,16,-1
 148 538 l 1,17,-1
 129 551 l 1,18,-1
 113 585 l 1,19,-1
 113 743 l 1,10,-1
EndSplineSet
Validated: 1
EndChar

StartChar: numbersign
Encoding: 35 35 6
Width: 403
GlyphClass: 2
Flags: W
LayerCount: 2
Fore
SplineSet
191 0 m 1,0,1
 182 -17 182 -17 157 -17 c 0,2,3
 126 -17 126 -17 124 0 c 1,4,-1
 124 169 l 1,5,-1
 65 169 l 1,6,7
 48 172 48 172 48 190 c 0,8,9
 48 206 48 206 65 209 c 1,10,-1
 130 209 l 1,11,-1
 130 281 l 1,12,-1
 65 281 l 2,13,14
 39 281 39 281 39 301 c 0,15,16
 39 309 39 309 45 314 c 128,-1,17
 51 319 51 319 55.5 320 c 128,-1,18
 60 321 60 321 62 321 c 0,19,20
 74 321 74 321 96.5 320 c 128,-1,21
 119 319 119 319 133 319 c 1,22,-1
 133 430 l 2,23,24
 133 456 133 456 164 456 c 0,25,26
 180 456 180 456 187 451 c 1,27,28
 193 448 193 448 195 444 c 128,-1,29
 197 440 197 440 196 436 c 1,30,-1
 196 431 l 1,31,-1
 196 319 l 1,32,-1
 273 319 l 1,33,-1
 273 430 l 1,34,35
 274 436 274 436 275.5 438 c 128,-1,36
 277 440 277 440 280.5 442.5 c 128,-1,37
 284 445 284 445 287 447 c 1,38,39
 291 447 291 447 297 448.5 c 128,-1,40
 303 450 303 450 306 450 c 0,41,42
 308 450 308 450 324 446 c 1,43,-1
 325 446 l 1,44,-1
 325 445 l 1,45,46
 326 444 326 444 330.5 440 c 128,-1,47
 335 436 335 436 337 431 c 1,48,-1
 337 319 l 1,49,-1
 380 319 l 1,50,-1
 383 319 l 2,51,52
 404 319 404 319 404 303 c 0,53,54
 404 290 404 290 397.5 285.5 c 128,-1,55
 391 281 391 281 375 281 c 2,56,-1
 334 281 l 1,57,-1
 334 210 l 1,58,-1
 383 210 l 1,59,-1
 383 209 l 1,60,61
 405 209 405 209 405 187 c 0,62,63
 405 169 405 169 380 169 c 2,64,-1
 330 169 l 1,65,-1
 330 -3 l 2,66,67
 330 -10 330 -10 319 -14.5 c 128,-1,68
 308 -19 308 -19 295 -19 c 0,69,70
 269 -19 269 -19 268 -4 c 1,71,-1
 268 169 l 1,72,-1
 191 169 l 1,73,-1
 191 0 l 1,0,1
193 281 m 1,74,-1
 193 217 l 1,75,-1
 277 217 l 1,76,-1
 277 281 l 1,77,-1
 193 281 l 1,74,-1
EndSplineSet
Validated: 1
EndChar

StartChar: quotesingle
Encoding: 39 39 7
Width: 408
GlyphClass: 2
Flags: W
LayerCount: 2
Fore
SplineSet
75 767 m 1,0,-1
 91 807 l 1,1,-1
 121 822 l 1,2,-1
 155 807 l 1,3,-1
 169 767 l 1,4,-1
 169 612 l 1,5,-1
 155 580 l 1,6,-1
 127 566 l 1,7,-1
 99 580 l 1,8,-1
 75 612 l 1,9,-1
 75 767 l 1,0,-1
EndSplineSet
Validated: 1
EndChar

StartChar: parenleft
Encoding: 40 40 8
Width: 411
GlyphClass: 2
Flags: W
LayerCount: 2
Fore
SplineSet
121 608 m 0,0,1
 129 603 129 603 129 592 c 0,2,3
 129 588 129 588 100 548 c 0,4,5
 73 511 73 511 50 445 c 0,6,7
 28 382 28 382 28 293 c 0,8,9
 28 203 28 203 50 140 c 0,10,11
 73 75 73 75 127 3 c 1,12,13
 130 -3 130 -3 130 -9 c 0,14,15
 130 -13 130 -13 125 -20 c 128,-1,16
 120 -27 120 -27 112 -27 c 0,17,18
 102 -27 102 -27 68 15 c 0,19,20
 34 56 34 56 11 127 c 0,21,22
 -13 201 -13 201 -13 293 c 0,23,24
 -13 391 -13 391 10 458 c 128,-1,25
 33 525 33 525 92 605 c 1,26,27
 98 611 98 611 108 611 c 0,28,29
 115 611 115 611 121 608 c 0,0,1
EndSplineSet
Validated: 1
EndChar

StartChar: parenright
Encoding: 41 41 9
Width: 411
GlyphClass: 2
Flags: W
LayerCount: 2
Fore
SplineSet
23 -19 m 0,0,1
 17 -27 17 -27 5 -27 c 0,2,3
 -3 -27 -3 -27 -8 -22 c 0,4,5
 -14 -16 -14 -16 -14 -7 c 0,6,7
 -14 -4 -14 -4 15 37 c 0,8,9
 47 82 47 82 67 140 c 0,10,11
 88 200 88 200 88 293 c 128,-1,12
 88 386 88 386 68 445 c 0,13,14
 48 503 48 503 18 546 c 0,15,16
 -13 590 -13 590 -13 592 c 0,17,18
 -13 601 -13 601 -3 607 c 0,19,20
 4 611 4 611 9 611 c 0,21,22
 19 611 19 611 25 605 c 1,23,24
 83 530 83 530 106 458 c 0,25,26
 129 387 129 387 129 293 c 0,27,28
 129 198 129 198 106 127 c 0,29,30
 84 58 84 58 23 -19 c 0,0,1
EndSplineSet
Validated: 1
EndChar

StartChar: asterisk
Encoding: 42 42 10
Width: 407
GlyphClass: 2
Flags: W
LayerCount: 2
Fore
SplineSet
-7 424 m 1,0,1
 -17 439 -17 439 -17 442 c 0,2,3
 -17 444 -17 444 -7 457 c 0,4,5
 -1 465 -1 465 7 465 c 0,6,7
 17 465 17 465 23 457 c 1,8,-1
 140 344 l 1,9,-1
 263 461 l 2,10,11
 269 467 269 467 279 467 c 0,12,13
 290 467 290 467 296 461 c 0,14,15
 303 454 303 454 303 443 c 0,16,17
 303 435 303 435 294 428 c 1,18,-1
 173 313 l 1,19,-1
 293 199 l 2,20,21
 300 192 300 192 300 182 c 0,22,23
 300 171 300 171 294 165 c 128,-1,24
 288 159 288 159 278 159 c 0,25,26
 267 159 267 159 261 165 c 2,27,-1
 139 282 l 1,28,-1
 21 169 l 2,29,30
 14 162 14 162 6 162 c 128,-1,31
 -2 162 -2 162 -10 170 c 0,32,33
 -17 177 -17 177 -17 187 c 0,34,35
 -17 195 -17 195 -7 203 c 1,36,-1
 107 313 l 1,37,-1
 -7 424 l 1,0,1
EndSplineSet
Validated: 1
EndChar

StartChar: plus
Encoding: 43 43 11
Width: 404
GlyphClass: 2
Flags: W
LayerCount: 2
Fore
SplineSet
170 444 m 2,0,1
 170 464 170 464 194 464 c 0,2,3
 217 464 217 464 217 444 c 2,4,-1
 217 314 l 1,5,-1
 355 314 l 2,6,7
 375 314 375 314 375 293 c 0,8,9
 375 269 375 269 354 269 c 2,10,-1
 217 269 l 1,11,-1
 217 139 l 2,12,13
 217 121 217 121 194 121 c 0,14,15
 170 121 170 121 170 139 c 2,16,-1
 170 269 l 1,17,-1
 33 269 l 2,18,19
 24 269 24 269 17 276 c 128,-1,20
 10 283 10 283 10 291 c 0,21,22
 10 297 10 297 17 306 c 0,23,24
 23 314 23 314 33 314 c 2,25,-1
 170 314 l 1,26,-1
 170 444 l 2,0,1
EndSplineSet
Validated: 1
EndChar

StartChar: comma
Encoding: 44 44 12
Width: 217
GlyphClass: 2
Flags: W
LayerCount: 2
Fore
SplineSet
55 39 m 0,0,1
 63 36 63 36 65 30 c 0,2,3
 66 26 66 26 66 17 c 1,4,-1
 35 -67 l 2,5,6
 34 -70 34 -70 27 -77 c 0,7,8
 25 -79 25 -79 21 -79 c 0,9,10
 18 -79 18 -79 10 -77 c 0,11,12
 -1 -73 -1 -73 -1 -68 c 2,13,-1
 -1 -55 l 1,14,-1
 30 28 l 2,15,16
 34 40 34 40 46 40 c 0,17,18
 53 40 53 40 55 39 c 0,0,1
EndSplineSet
Validated: 1
EndChar

StartChar: hyphen
Encoding: 45 45 13
Width: 404
GlyphClass: 2
Flags: W
LayerCount: 2
Fore
SplineSet
330 138 m 0,0,1
 330 117 330 117 309 117 c 2,2,-1
 74 117 l 2,3,4
 53 117 53 117 53 138 c 0,5,6
 53 161 53 161 74 161 c 2,7,-1
 308 161 l 2,8,9
 330 161 330 161 330 138 c 0,0,1
EndSplineSet
Validated: 1
EndChar

StartChar: period
Encoding: 46 46 14
Width: 239
GlyphClass: 2
Flags: W
LayerCount: 2
Fore
SplineSet
31 31 m 128,-1,1
 31 42 31 42 39 50 c 128,-1,2
 47 58 47 58 58 58 c 128,-1,3
 69 58 69 58 76.5 50 c 128,-1,4
 84 42 84 42 84 31 c 128,-1,5
 84 20 84 20 76.5 12.5 c 128,-1,6
 69 5 69 5 58 5 c 128,-1,7
 47 5 47 5 39 12.5 c 128,-1,0
 31 20 31 20 31 31 c 128,-1,1
EndSplineSet
Validated: 1
EndChar

StartChar: slash
Encoding: 47 47 15
Width: 737
GlyphClass: 2
Flags: W
LayerCount: 2
Fore
SplineSet
510 589 m 0,0,1
 522 583 522 583 522 573 c 0,2,3
 522 568 522 568 519 563 c 2,4,-1
 178 1 l 2,5,6
 172 -8 172 -8 164 -8 c 0,7,8
 162 -8 162 -8 152 -4 c 1,9,10
 140 3 140 3 140 10 c 0,11,12
 140 16 140 16 143 20 c 2,13,-1
 484 583 l 2,14,15
 490 592 490 592 499 592 c 0,16,17
 504 592 504 592 510 589 c 0,0,1
EndSplineSet
Validated: 1
EndChar

StartChar: zero
Encoding: 48 48 16
Width: 601
GlyphClass: 2
Flags: W
LayerCount: 2
Fore
SplineSet
197 313 m 128,-1,1
 197 321 197 321 204.5 326.5 c 128,-1,2
 212 332 212 332 223 332 c 128,-1,3
 234 332 234 332 241.5 326.5 c 128,-1,4
 249 321 249 321 249 313 c 128,-1,5
 249 305 249 305 241.5 299 c 128,-1,6
 234 293 234 293 223 293 c 128,-1,7
 212 293 212 293 204.5 299 c 128,-1,0
 197 305 197 305 197 313 c 128,-1,1
479 293 m 0,8,9
 479 164 479 164 410 61 c 0,10,11
 343 -39 343 -39 222 -39 c 0,12,13
 100 -39 100 -39 34 61 c 0,14,15
 -35 165 -35 165 -35 293 c 0,16,17
 -35 420 -35 420 34 523 c 0,18,19
 102 624 102 624 222 624 c 0,20,21
 343 624 343 624 410 524 c 0,22,23
 479 421 479 421 479 293 c 0,8,9
222 0 m 0,24,25
 321 0 321 0 380 89 c 0,26,27
 438 177 438 177 438 293 c 0,28,29
 438 411 438 411 381 498 c 128,-1,30
 324 585 324 585 222 585 c 0,31,32
 122 585 122 585 64 497 c 128,-1,33
 6 409 6 409 6 293 c 0,34,35
 6 176 6 176 63 88 c 128,-1,36
 120 0 120 0 222 0 c 0,24,25
EndSplineSet
Validated: 1
EndChar

StartChar: one
Encoding: 49 49 17
Width: 345
GlyphClass: 2
Flags: W
LayerCount: 2
Fore
SplineSet
125 606 m 0,0,1
 140 606 140 606 140 589 c 2,2,-1
 140 -15 l 2,3,4
 140 -33 140 -33 120 -33 c 0,5,6
 99 -33 99 -33 99 -15 c 2,7,-1
 99 527 l 1,8,-1
 15 407 l 1,9,10
 6 398 6 398 -2 398 c 0,11,12
 -7 398 -7 398 -14 403 c 128,-1,13
 -21 408 -21 408 -21 417 c 0,14,15
 -21 422 -21 422 -17 427 c 2,16,-1
 103 600 l 2,17,18
 108 606 108 606 125 606 c 0,0,1
EndSplineSet
Validated: 1
EndChar

StartChar: two
Encoding: 50 50 18
Width: 439
GlyphClass: 2
Flags: W
LayerCount: 2
Fore
SplineSet
377 423 m 0,0,1
 377 389 377 389 366 367 c 0,2,3
 352 340 352 340 334 320 c 2,4,-1
 42 -1 l 1,5,-1
 353 -1 l 2,6,7
 374 -1 374 -1 374 -20 c 0,8,9
 374 -41 374 -41 353 -41 c 2,10,-1
 -4 -41 l 2,11,12
 -16 -41 -16 -41 -22 -31 c 0,13,14
 -26 -24 -26 -24 -26 -19 c 0,15,16
 -26 -16 -26 -16 -19 -5 c 1,17,-1
 301 342 l 2,18,19
 334 379 334 379 334 424 c 0,20,21
 334 489 334 489 290 531 c 0,22,23
 248 572 248 572 180 572 c 0,24,25
 127 572 127 572 82 537 c 0,26,27
 35 501 35 501 26 437 c 1,28,29
 19 425 19 425 3 425 c 0,30,31
 -12 425 -12 425 -12 444 c 0,32,33
 -12 514 -12 514 54 565 c 0,34,35
 115 612 115 612 181 612 c 0,36,37
 265 612 265 612 322 557 c 0,38,39
 377 503 377 503 377 423 c 0,0,1
EndSplineSet
Validated: 1
EndChar

StartChar: three
Encoding: 51 51 19
Width: 467
GlyphClass: 2
Flags: W
LayerCount: 2
Fore
SplineSet
365 460 m 0,0,1
 365 412 365 412 341 376 c 0,2,3
 318 342 318 342 267 316 c 1,4,5
 322 294 322 294 352 249 c 128,-1,6
 382 204 382 204 382 150 c 0,7,8
 382 68 382 68 319 13 c 0,9,10
 258 -41 258 -41 169 -41 c 0,11,12
 31 -41 31 -41 -26 82 c 1,13,14
 -26 102 -26 102 -15 108 c 0,15,16
 -14 108 -14 108 -14 108 c 1,17,-1
 -12 109 l 1,18,19
 7 109 7 109 30 56 c 0,20,21
 55 0 55 0 167 0 c 0,22,23
 241 0 241 0 290 42 c 0,24,25
 341 86 341 86 341 150 c 0,26,27
 341 208 341 208 292 254 c 0,28,29
 244 299 244 299 181 299 c 2,30,-1
 132 299 l 2,31,32
 110 299 110 299 110 318 c 128,-1,33
 110 337 110 337 131 337 c 2,34,-1
 181 337 l 2,35,36
 240 337 240 337 281 372 c 0,37,38
 323 408 323 408 323 460 c 0,39,40
 323 514 323 514 276 549 c 0,41,42
 232 582 232 582 164 582 c 0,43,44
 120 582 120 582 85 562 c 0,45,46
 52 543 52 543 29 508 c 1,47,48
 22 501 22 501 13 501 c 0,49,50
 10 501 10 501 2 503 c 1,51,52
 -9 510 -9 510 -9 521 c 0,53,54
 -9 524 -9 524 -2 531 c 1,55,56
 24 577 24 577 66 598 c 0,57,58
 114 622 114 622 164 622 c 0,59,60
 245 622 245 622 306 578 c 0,61,62
 365 535 365 535 365 460 c 0,0,1
EndSplineSet
Validated: 1
EndChar

StartChar: four
Encoding: 52 52 20
Width: 425
GlyphClass: 2
Flags: W
LayerCount: 2
Fore
SplineSet
-7 602 m 0,0,1
 16 602 16 602 16 584 c 2,2,-1
 16 167 l 1,3,-1
 271 167 l 1,4,-1
 270 231 l 2,5,6
 270 249 270 249 290 249 c 0,7,8
 309 249 309 249 309 231 c 2,9,-1
 310 167 l 1,10,-1
 363 167 l 2,11,12
 384 167 384 167 384 147 c 0,13,14
 384 140 384 140 378 134 c 0,15,16
 371 127 371 127 363 127 c 2,17,-1
 310 127 l 1,18,-1
 310 -19 l 2,19,20
 310 -38 310 -38 291 -38 c 0,21,22
 271 -38 271 -38 271 -19 c 2,23,-1
 271 127 l 1,24,-1
 -7 127 l 2,25,26
 -9 127 -9 127 -21 133 c 1,27,28
 -26 140 -26 140 -26 147 c 2,29,-1
 -26 584 l 2,30,31
 -26 602 -26 602 -7 602 c 0,0,1
EndSplineSet
Validated: 1
EndChar

StartChar: five
Encoding: 53 53 21
Width: 472
GlyphClass: 2
Flags: W
LayerCount: 2
Fore
SplineSet
37 332 m 1,0,1
 69 351 69 351 102 358 c 0,2,3
 140 366 140 366 173 366 c 0,4,5
 266 366 266 366 327 305 c 0,6,7
 387 245 387 245 387 161 c 0,8,9
 387 76 387 76 325 19 c 0,10,11
 262 -39 262 -39 173 -39 c 0,12,13
 97 -39 97 -39 44 0 c 0,14,15
 -11 40 -11 40 -28 84 c 0,16,17
 -29 87 -29 87 -29 91 c 0,18,19
 -29 104 -29 104 -15 109 c 0,20,21
 -13 110 -13 110 -9 110 c 0,22,23
 6 110 6 110 18 85 c 0,24,25
 32 56 32 56 71 29 c 0,26,27
 113 0 113 0 174 0 c 0,28,29
 251 0 251 0 299 48 c 128,-1,30
 347 96 347 96 347 162 c 0,31,32
 347 231 347 231 299 279 c 0,33,34
 252 326 252 326 173 326 c 0,35,36
 138 326 138 326 98 316 c 0,37,38
 61 307 61 307 44 295 c 0,39,40
 25 282 25 282 18 282 c 0,41,42
 -6 282 -6 282 -6 302 c 2,43,-1
 -6 592 l 2,44,45
 -6 613 -6 613 14 613 c 2,46,-1
 313 613 l 2,47,48
 335 613 335 613 335 592 c 0,49,50
 335 586 335 586 328 579 c 0,51,52
 322 573 322 573 313 573 c 2,53,-1
 37 573 l 1,54,-1
 37 332 l 1,0,1
EndSplineSet
Validated: 1
EndChar

StartChar: six
Encoding: 54 54 22
Width: 481
GlyphClass: 2
Flags: W
LayerCount: 2
Fore
SplineSet
11 200 m 1,0,1
 35 254 35 254 98 296 c 0,2,3
 152 332 152 332 227 332 c 0,4,5
 317 332 317 332 371 285 c 0,6,7
 428 236 428 236 428 159 c 0,8,9
 428 81 428 81 355 20 c 0,10,11
 284 -39 284 -39 188 -39 c 0,12,13
 84 -39 84 -39 26 41 c 0,14,15
 -31 119 -31 119 -31 247 c 0,16,17
 -31 379 -31 379 98 510 c 0,18,19
 146 559 146 559 234 586.5 c 128,-1,20
 322 614 322 614 401 614 c 0,21,22
 420 614 420 614 420 596 c 0,23,24
 420 575 420 575 403 575 c 0,25,26
 332 575 332 575 250.5 548.5 c 128,-1,27
 169 522 169 522 124 479 c 0,28,29
 75 431 75 431 43 370.5 c 128,-1,30
 11 310 11 310 11 248 c 2,31,-1
 11 200 l 1,0,1
195 0 m 0,32,33
 264 0 264 0 326 50 c 0,34,35
 387 99 387 99 387 161 c 0,36,37
 387 219 387 219 340 257 c 0,38,39
 292 296 292 296 227 296 c 0,40,41
 144 296 144 296 88 238 c 0,42,43
 33 182 33 182 33 120 c 1,44,45
 52 58 52 58 92 31 c 0,46,47
 138 0 138 0 195 0 c 0,32,33
EndSplineSet
Validated: 1
EndChar

StartChar: seven
Encoding: 55 55 23
Width: 448
GlyphClass: 2
Flags: W
LayerCount: 2
Fore
SplineSet
242 585 m 2,0,-1
 242 303 l 1,1,-1
 297 303 l 2,2,3
 305 303 305 303 311 297 c 128,-1,4
 317 291 317 291 317 283 c 0,5,6
 317 265 317 265 297 265 c 2,7,-1
 242 265 l 1,8,-1
 242 -19 l 2,9,10
 242 -24 242 -24 234 -32 c 0,11,12
 229 -37 229 -37 220 -37 c 0,13,14
 200 -37 200 -37 200 -18 c 2,15,-1
 200 265 l 1,16,-1
 147 265 l 2,17,18
 128 265 128 265 128 283 c 0,19,20
 128 303 128 303 147 303 c 2,21,-1
 200 303 l 1,22,-1
 200 564 l 1,23,-1
 -7 564 l 2,24,25
 -27 564 -27 564 -27 583 c 0,26,27
 -27 591 -27 591 -22 596 c 0,28,29
 -15 603 -15 603 -7 603 c 2,30,-1
 220 603 l 2,31,32
 242 603 242 603 242 585 c 2,0,-1
EndSplineSet
Validated: 1
EndChar

StartChar: eight
Encoding: 56 56 24
Width: 481
GlyphClass: 2
Flags: W
LayerCount: 2
Fore
SplineSet
439 152 m 0,0,1
 439 68 439 68 368 14 c 0,2,3
 299 -39 299 -39 204 -39 c 0,4,5
 108 -39 108 -39 39 14 c 0,6,7
 -32 68 -32 68 -32 152 c 0,8,9
 -32 212 -32 212 4 258 c 0,10,11
 38 302 38 302 102 324 c 1,12,13
 7 367 7 367 7 462 c 0,14,15
 7 531 7 531 66 578 c 0,16,17
 123 623 123 623 204 623 c 128,-1,18
 285 623 285 623 344 579 c 0,19,20
 402 536 402 536 402 462 c 0,21,22
 402 366 402 366 308 324 c 1,23,24
 370 303 370 303 405 258 c 0,25,26
 439 214 439 214 439 152 c 0,0,1
204 3 m 0,27,28
 280 3 280 3 339 45 c 0,29,30
 397 87 397 87 397 152 c 0,31,32
 397 218 397 218 339 260 c 0,33,34
 280 302 280 302 204 302 c 0,35,36
 126 302 126 302 68 260 c 128,-1,37
 10 218 10 218 10 152 c 0,38,39
 10 87 10 87 68 45 c 128,-1,40
 126 3 126 3 204 3 c 0,27,28
204 342 m 0,41,42
 267 342 267 342 311 376 c 0,43,44
 358 412 358 412 358 462 c 0,45,46
 358 513 358 513 311 549 c 0,47,48
 268 582 268 582 204 582 c 0,49,50
 139 582 139 582 96 549 c 0,51,52
 50 514 50 514 50 462 c 0,53,54
 50 411 50 411 97 376 c 0,55,56
 143 342 143 342 204 342 c 0,41,42
EndSplineSet
Validated: 1
EndChar

StartChar: nine
Encoding: 57 57 25
Width: 427
GlyphClass: 2
Flags: W
LayerCount: 2
Fore
SplineSet
165 294 m 0,0,1
 85 294 85 294 29 337 c 128,-1,2
 -27 380 -27 380 -27 449 c 0,3,4
 -27 520 -27 520 34 568 c 0,5,6
 96 616 96 616 177 616 c 0,7,8
 262 616 262 616 319 559 c 1,9,-1
 331 546 l 2,10,11
 340 537 340 537 345 530 c 2,12,-1
 354 515 l 1,13,14
 363 491 363 491 363 488 c 2,15,-1
 362 -19 l 2,16,17
 362 -39 362 -39 342 -39 c 0,18,19
 319 -39 319 -39 319 -19 c 2,20,-1
 319 361 l 1,21,22
 288 330 288 330 249 312 c 128,-1,23
 210 294 210 294 165 294 c 0,0,1
319 463 m 0,24,25
 319 510 319 510 276 544 c 0,26,27
 235 576 235 576 177 576 c 0,28,29
 109 576 109 576 62 541 c 0,30,31
 14 505 14 505 14 450 c 0,32,33
 14 398 14 398 60 367 c 0,34,35
 108 335 108 335 167 335 c 128,-1,36
 226 335 226 335 272 372 c 0,37,38
 319 410 319 410 319 463 c 0,24,25
EndSplineSet
Validated: 1
EndChar

StartChar: colon
Encoding: 58 58 26
Width: 278
GlyphClass: 2
Flags: W
LayerCount: 2
Fore
SplineSet
82 266 m 128,-1,1
 98 266 98 266 108 256 c 0,2,3
 117 247 117 247 117 231 c 0,4,5
 117 217 117 217 108 208 c 128,-1,6
 99 199 99 199 82 199 c 0,7,8
 66 199 66 199 57 208 c 0,9,10
 47 218 47 218 47 231 c 0,11,12
 47 247 47 247 56 256 c 0,13,0
 66 266 66 266 82 266 c 128,-1,1
83 108 m 128,-1,15
 98 108 98 108 109 97 c 0,16,17
 118 88 118 88 118 73 c 128,-1,18
 118 58 118 58 109 49 c 128,-1,19
 100 40 100 40 83 40 c 0,20,21
 67 40 67 40 58 49 c 128,-1,22
 49 58 49 58 49 73 c 0,23,24
 49 89 49 89 57 97 c 0,25,14
 68 108 68 108 83 108 c 128,-1,15
EndSplineSet
Validated: 1
EndChar

StartChar: semicolon
Encoding: 59 59 27
Width: 266
GlyphClass: 2
Flags: W
LayerCount: 2
Fore
SplineSet
77 33 m 0,0,1
 87 29 87 29 89 22 c 0,2,3
 91 14 91 14 91 8 c 1,4,-1
 59 -73 l 1,5,6
 59 -73 59 -73 51 -81 c 0,7,8
 48 -84 48 -84 44 -84 c 0,9,10
 43 -84 43 -84 40.5 -83.5 c 128,-1,11
 38 -83 38 -83 37 -83 c 0,12,13
 28 -82 28 -82 25 -74 c 0,14,15
 23 -68 23 -68 23 -66 c 128,-1,16
 23 -64 23 -64 25 -58 c 2,17,-1
 54 20 l 1,18,19
 62 38 62 38 77 33 c 0,0,1
79 189 m 128,-1,21
 94 189 94 189 103 180 c 0,22,23
 113 170 113 170 113 158 c 0,24,25
 113 144 113 144 103 134 c 0,26,27
 94 125 94 125 79 125 c 128,-1,28
 64 125 64 125 55 134 c 0,29,30
 44 145 44 145 44 158 c 0,31,32
 44 169 44 169 55 180 c 0,33,20
 64 189 64 189 79 189 c 128,-1,21
EndSplineSet
Validated: 1
EndChar

StartChar: less
Encoding: 60 60 28
Width: 397
GlyphClass: 2
Flags: W
LayerCount: 2
Fore
SplineSet
212 153 m 1,0,-1
 520 13 l 2,1,2
 522 11 522 11 526.5 9 c 128,-1,3
 531 7 531 7 534 5.5 c 128,-1,4
 537 4 537 4 537 1 c 0,5,6
 537 -15 537 -15 516 -19 c 0,7,8
 513 -20 513 -20 508 -20 c 0,9,10
 502 -20 502 -20 492 -17.5 c 128,-1,11
 482 -15 482 -15 479 -14 c 2,12,-1
 222 99 l 2,13,14
 213 103 213 103 199 110.5 c 128,-1,15
 185 118 185 118 176 122 c 0,16,17
 172 124 172 124 157.5 129 c 128,-1,18
 143 134 143 134 137 139 c 128,-1,19
 131 144 131 144 131 149 c 0,20,21
 131 152 131 152 135 158 c 1,22,23
 139 162 139 162 144.5 165 c 128,-1,24
 150 168 150 168 157.5 171.5 c 128,-1,25
 165 175 165 175 170 178 c 2,26,-1
 454 342 l 1,27,28
 459 343 459 343 466 346 c 128,-1,29
 473 349 473 349 478.5 350.5 c 128,-1,30
 484 352 484 352 491 352 c 2,31,-1
 494 352 l 1,32,33
 516 351 516 351 529 339 c 1,34,35
 527 337 527 337 526.5 335 c 128,-1,36
 526 333 526 333 526 332 c 128,-1,37
 526 331 526 331 524.5 329.5 c 128,-1,38
 523 328 523 328 519 325.5 c 128,-1,39
 515 323 515 323 508 319 c 2,40,-1
 212 153 l 1,0,-1
EndSplineSet
Validated: 1
EndChar

StartChar: equal
Encoding: 61 61 29
Width: 403
GlyphClass: 2
Flags: W
LayerCount: 2
Fore
SplineSet
372 218 m 0,0,1
 372 194 372 194 351 194 c 2,2,-1
 71 194 l 2,3,4
 51 194 51 194 51 216 c 0,5,6
 51 239 51 239 71 239 c 2,7,-1
 352 241 l 2,8,9
 372 241 372 241 372 218 c 0,0,1
380 325 m 128,-1,11
 380 303 380 303 358 303 c 2,12,-1
 71 303 l 2,13,14
 51 303 51 303 51 325 c 128,-1,15
 51 347 51 347 71 347 c 2,16,-1
 352 347 l 2,17,10
 380 347 380 347 380 325 c 128,-1,11
EndSplineSet
Validated: 1
EndChar

StartChar: greater
Encoding: 62 62 30
Width: 397
GlyphClass: 2
Flags: W
LayerCount: 2
Fore
SplineSet
459 153 m 1,0,-1
 163 319 l 2,1,2
 154 324 154 324 150 327 c 128,-1,3
 146 330 146 330 145.5 331 c 128,-1,4
 145 332 145 332 144 334 c 128,-1,5
 143 336 143 336 141 339 c 1,6,7
 154 351 154 351 178 352 c 1,8,-1
 181 352 l 2,9,10
 188 352 188 352 193 350.5 c 128,-1,11
 198 349 198 349 204.5 346 c 128,-1,12
 211 343 211 343 216 342 c 1,13,-1
 500 178 l 2,14,15
 504 176 504 176 518 169.5 c 128,-1,16
 532 163 532 163 537 158 c 1,17,18
 541 152 541 152 541 149 c 0,19,20
 541 144 541 144 535 139 c 128,-1,21
 529 134 529 134 514.5 129 c 128,-1,22
 500 124 500 124 496 122 c 0,23,24
 487 118 487 118 473 110.5 c 128,-1,25
 459 103 459 103 450 99 c 2,26,-1
 192 -14 l 2,27,28
 189 -15 189 -15 179.5 -17.5 c 128,-1,29
 170 -20 170 -20 164 -20 c 0,30,31
 159 -20 159 -20 156 -19 c 0,32,33
 134 -15 134 -15 134 1 c 0,34,35
 134 4 134 4 137 5.5 c 128,-1,36
 140 7 140 7 144.5 9 c 128,-1,37
 149 11 149 11 151 13 c 2,38,-1
 459 153 l 1,0,-1
EndSplineSet
Validated: 1
EndChar

StartChar: question
Encoding: 63 63 31
Width: 406
GlyphClass: 2
Flags: W
LayerCount: 2
Fore
SplineSet
-12 471 m 1,0,1
 -24 477 -24 477 -24 482 c 2,2,-1
 -24 494 l 1,3,4
 -8 548 -8 548 39 586 c 128,-1,5
 86 624 86 624 160 624 c 0,6,7
 232 624 232 624 282 572 c 128,-1,8
 332 520 332 520 332 452 c 0,9,10
 332 405 332 405 307 367 c 0,11,12
 279 325 279 325 240 298 c 0,13,14
 202 272 202 272 185 240 c 0,15,16
 171 213 171 213 171 171 c 2,17,-1
 171 98 l 2,18,19
 171 80 171 80 153 80 c 0,20,21
 131 80 131 80 131 98 c 2,22,-1
 131 172 l 2,23,24
 131 218 131 218 149 256 c 0,25,26
 165 289 165 289 211 324 c 128,-1,27
 257 359 257 359 274 384 c 0,28,29
 294 413 294 413 294 452 c 0,30,31
 294 506 294 506 255 547 c 0,32,33
 217 586 217 586 160 586 c 0,34,35
 100 586 100 586 63 557 c 0,36,37
 29 530 29 530 19 501 c 0,38,39
 10 473 10 473 1 471 c 0,40,41
 -6 470 -6 470 -12 471 c 1,0,1
150 37 m 0,42,43
 166 37 166 37 174 29 c 0,44,45
 184 19 184 19 184 5 c 0,46,47
 184 -29 184 -29 150 -29 c 0,48,49
 138 -29 138 -29 127 -18 c 128,-1,50
 116 -7 116 -7 116 5 c 128,-1,51
 116 17 116 17 127 28 c 0,52,53
 136 37 136 37 150 37 c 0,42,43
EndSplineSet
Validated: 1
EndChar

StartChar: at
Encoding: 64 64 32
Width: 841
GlyphClass: 2
Flags: W
LayerCount: 2
Fore
SplineSet
410 429 m 0,0,1
 339 429 339 429 298 357.5 c 128,-1,2
 257 286 257 286 257 203 c 0,3,4
 257 131 257 131 294.5 75.5 c 128,-1,5
 332 20 332 20 389 20 c 0,6,7
 436 20 436 20 472.5 58 c 128,-1,8
 509 96 509 96 526.5 147 c 128,-1,9
 544 198 544 198 544 247 c 0,10,11
 544 319 544 319 506 374 c 128,-1,12
 468 429 468 429 410 429 c 0,0,1
759 211 m 0,13,14
 759 170 759 170 752.5 130.5 c 128,-1,15
 746 91 746 91 731.5 51.5 c 128,-1,16
 717 12 717 12 688 -14 c 128,-1,17
 659 -40 659 -40 619 -45 c 1,18,19
 562 -44 562 -44 546 43 c 0,20,21
 545 47 545 47 540 47 c 1,22,-1
 536 45 l 1,23,24
 472 -45 472 -45 386 -45 c 0,25,26
 314 -45 314 -45 265.5 18.5 c 128,-1,27
 217 82 217 82 205 159 c 0,28,29
 204 164 204 164 199 164 c 1,30,-1
 196 162 l 1,31,32
 184 150 184 150 173 150 c 0,33,34
 148 150 148 150 148 180 c 0,35,36
 148 195 148 195 154 201 c 1,37,-1
 154 202 l 1,38,-1
 241 371 l 1,39,40
 301 483 301 483 415 490 c 1,41,-1
 416 490 l 1,42,43
 487 489 487 489 530.5 440 c 128,-1,44
 574 391 574 391 595 319 c 1,45,-1
 595 317 l 1,46,-1
 598 73 l 2,47,48
 599 18 599 18 618 18 c 2,49,-1
 621 18 l 1,50,51
 684 19 684 19 694 186 c 0,52,53
 694 191 694 191 695.5 205 c 128,-1,54
 697 219 697 219 697 225 c 0,55,56
 697 275 697 275 678.5 330 c 128,-1,57
 660 385 660 385 627 435 c 128,-1,58
 594 485 594 485 539 519 c 128,-1,59
 484 553 484 553 418 556 c 1,60,-1
 417 556 l 1,61,62
 173 541 173 541 116 275 c 1,63,-1
 116 274 l 2,64,65
 116 190 116 190 133 126.5 c 128,-1,66
 150 63 150 63 199 6.5 c 128,-1,67
 248 -50 248 -50 329 -86 c 1,68,69
 395 -108 395 -108 468 -108 c 0,70,71
 532 -108 532 -108 597 -91 c 1,72,-1
 598 -91 l 1,73,74
 609 -87 609 -87 627 -77.5 c 128,-1,75
 645 -68 645 -68 653 -68 c 0,76,77
 665 -68 665 -68 671 -76.5 c 128,-1,78
 677 -85 677 -85 677 -92 c 0,79,80
 677 -100 677 -100 675 -103.5 c 128,-1,81
 673 -107 673 -107 671 -108.5 c 128,-1,82
 669 -110 669 -110 659 -113.5 c 128,-1,83
 649 -117 649 -117 641 -121 c 1,84,-1
 619 -129 l 1,85,-1
 618 -130 l 1,86,87
 568 -153 568 -153 485 -153 c 0,88,89
 407 -153 407 -153 315 -133 c 0,90,91
 248 -118 248 -118 195.5 -75 c 128,-1,92
 143 -32 143 -32 113.5 25 c 128,-1,93
 84 82 84 82 69.5 140 c 128,-1,94
 55 198 55 198 55 253 c 2,95,-1
 55 264 l 2,96,97
 55 266 55 266 55.5 269 c 128,-1,98
 56 272 56 272 56 273 c 0,99,100
 85 430 85 430 174.5 518 c 128,-1,101
 264 606 264 606 417 606 c 2,102,-1
 423 606 l 2,103,104
 487 606 487 606 542.5 582 c 128,-1,105
 598 558 598 558 637 518 c 128,-1,106
 676 478 676 478 704 426.5 c 128,-1,107
 732 375 732 375 745.5 320 c 128,-1,108
 759 265 759 265 759 211 c 0,13,14
EndSplineSet
Validated: 1
EndChar

StartChar: A
Encoding: 65 65 33
Width: 626
GlyphClass: 2
Flags: W
LayerCount: 2
Fore
SplineSet
298 689 m 0,0,1
 317 689 317 689 317 675 c 1,2,-1
 583 32 l 1,3,4
 583 13 583 13 573 8 c 0,5,6
 567 5 567 5 560 5 c 0,7,8
 548 5 548 5 543 15 c 2,9,-1
 428 294 l 1,10,-1
 169 294 l 1,11,-1
 56 15 l 1,12,13
 50 3 50 3 39 3 c 0,14,15
 36 3 36 3 28 5 c 0,16,17
 20 8 20 8 17 16 c 0,18,19
 13 26 13 26 14 30 c 2,20,-1
 279 677 l 1,21,22
 279 683 279 683 285 686 c 128,-1,23
 291 689 291 689 298 689 c 0,0,1
411 336 m 1,24,-1
 298 611 l 1,25,-1
 185 336 l 1,26,-1
 411 336 l 1,24,-1
EndSplineSet
Validated: 1
EndChar

StartChar: B
Encoding: 66 66 34
Width: 535
GlyphClass: 2
Flags: W
LayerCount: 2
Fore
SplineSet
295 687 m 2,0,1
 368 687 368 687 409 645 c 0,2,3
 457 596 457 596 457 530 c 1,4,5
 454 489 454 489 440 459.5 c 128,-1,6
 426 430 426 430 383 378 c 1,7,8
 389 371 389 371 403 357.5 c 128,-1,9
 417 344 417 344 432 323 c 0,10,11
 469 270 469 270 469 199 c 0,12,13
 469 121 469 121 417 60 c 0,14,15
 366 0 366 0 291 0 c 2,16,-1
 34 1 l 2,17,18
 14 1 14 1 14 22 c 2,19,-1
 14 668 l 2,20,21
 14 686 14 686 34 686 c 2,22,-1
 295 687 l 2,0,1
296 42 m 2,23,24
 346 42 346 42 386 90 c 0,25,26
 427 139 427 139 427 199 c 0,27,28
 427 258 427 258 390 305 c 0,29,30
 352 353 352 353 296 353 c 2,31,-1
 57 354 l 1,32,-1
 57 43 l 1,33,-1
 296 42 l 2,23,24
57 397 m 1,34,-1
 295 398 l 2,35,36
 337 398 337 398 379 442 c 0,37,38
 413 477 413 477 413 530 c 0,39,40
 413 577 413 577 380 617 c 0,41,42
 356 646 356 646 295 646 c 2,43,-1
 57 645 l 1,44,-1
 57 397 l 1,34,-1
EndSplineSet
Validated: 1
EndChar

StartChar: C
Encoding: 67 67 35
Width: 569
GlyphClass: 2
Flags: W
LayerCount: 2
Fore
SplineSet
503 188 m 0,0,1
 515 183 515 183 515 165 c 1,2,3
 484 76 484 76 427 43 c 0,4,5
 351 0 351 0 277 0 c 0,6,7
 147 0 147 0 78 97 c 128,-1,8
 9 194 9 194 9 351 c 0,9,10
 9 504 9 504 77 601 c 0,11,12
 142 694 142 694 277 694 c 0,13,14
 363 694 363 694 425 651 c 0,15,16
 486 609 486 609 515 530 c 1,17,18
 515 525 515 525 512 516 c 0,19,20
 510 510 510 510 504 508 c 0,21,22
 498 505 498 505 491 505 c 0,23,24
 478 505 478 505 472 516 c 1,25,26
 448 583 448 583 398 618 c 128,-1,27
 348 653 348 653 277 653 c 0,28,29
 165 653 165 653 111 571 c 0,30,31
 54 485 54 485 54 351 c 0,32,33
 54 211 54 211 110 126 c 0,34,35
 166 42 166 42 277 42 c 0,36,37
 343 42 343 42 381.5 60 c 128,-1,38
 420 78 420 78 448 113 c 0,39,40
 462 131 462 131 470.5 149.5 c 128,-1,41
 479 168 479 168 482 177.5 c 128,-1,42
 485 187 485 187 487 188 c 0,43,44
 496 191 496 191 503 188 c 0,0,1
EndSplineSet
Validated: 1
EndChar

StartChar: D
Encoding: 68 68 36
Width: 550
GlyphClass: 2
Flags: W
LayerCount: 2
Fore
SplineSet
215 685 m 2,0,1
 343 685 343 685 422 584 c 0,2,3
 500 484 500 484 500 345 c 0,4,5
 500 208 500 208 422 105 c 0,6,7
 342 0 342 0 223 0 c 2,8,-1
 34 1 l 2,9,10
 12 1 12 1 12 22 c 2,11,-1
 12 666 l 2,12,13
 12 686 12 686 33 686 c 2,14,-1
 215 685 l 2,0,1
53 42 m 1,15,-1
 223 41 l 2,16,17
 321 41 321 41 390 134 c 0,18,19
 459 228 459 228 459 345 c 0,20,21
 459 464 459 464 390 554 c 128,-1,22
 321 644 321 644 215 644 c 2,23,-1
 53 645 l 1,24,-1
 53 42 l 1,15,-1
EndSplineSet
Validated: 1
EndChar

StartChar: E
Encoding: 69 69 37
Width: 501
GlyphClass: 2
Flags: W
LayerCount: 2
Fore
SplineSet
431 666 m 0,0,1
 431 644 431 644 411 644 c 2,2,-1
 54 645 l 1,3,-1
 54 390 l 1,4,-1
 296 389 l 2,5,6
 306 389 306 389 310 383 c 0,7,8
 317 374 317 374 317 368 c 0,9,10
 317 346 317 346 296 346 c 2,11,-1
 54 347 l 1,12,-1
 54 43 l 1,13,-1
 409 42 l 2,14,15
 418 42 418 42 423 37 c 1,16,17
 428 30 428 30 428 20 c 0,18,19
 428 14 428 14 423 7 c 128,-1,20
 418 0 418 0 409 0 c 2,21,-1
 33 1 l 2,22,23
 13 1 13 1 13 22 c 2,24,-1
 13 668 l 2,25,26
 13 686 13 686 32 686 c 2,27,-1
 411 685 l 2,28,29
 420 685 420 685 425 679 c 0,30,31
 431 673 431 673 431 666 c 0,0,1
EndSplineSet
Validated: 1
EndChar

StartChar: F
Encoding: 70 70 38
Width: 473
GlyphClass: 2
Flags: W
LayerCount: 2
Fore
SplineSet
435 671 m 0,0,1
 435 649 435 649 416 649 c 2,2,-1
 54 649 l 1,3,-1
 54 394 l 1,4,-1
 248 394 l 2,5,6
 269 394 269 394 269 373 c 0,7,8
 269 351 269 351 248 351 c 2,9,-1
 54 351 l 1,10,-1
 54 26 l 2,11,12
 54 5 54 5 32 5 c 0,13,14
 11 5 11 5 11 26 c 2,15,-1
 11 672 l 2,16,17
 11 690 11 690 31 690 c 2,18,-1
 416 690 l 2,19,20
 435 690 435 690 435 671 c 0,0,1
EndSplineSet
Validated: 1
EndChar

StartChar: G
Encoding: 71 71 39
Width: 563
GlyphClass: 2
Flags: W
LayerCount: 2
Fore
SplineSet
464 300 m 1,0,-1
 345 301 l 2,1,2
 323 301 323 301 323 322 c 0,3,4
 323 344 323 344 345 344 c 2,5,-1
 481 343 l 2,6,7
 507 343 507 343 507 314 c 2,8,-1
 507 280 l 2,9,10
 507 148 507 148 451 75 c 0,11,12
 394 -1 394 -1 268 -1 c 128,-1,13
 142 -1 142 -1 76 97 c 128,-1,14
 10 195 10 195 10 357 c 0,15,16
 10 516 10 516 75 612 c 128,-1,17
 140 708 140 708 267 708 c 0,18,19
 351 708 351 708 408 665 c 0,20,21
 467 621 467 621 496 541 c 1,22,23
 496 521 496 521 485 517 c 0,24,25
 469 510 469 510 456 525 c 1,26,27
 432 593 432 593 384 629 c 0,28,29
 335 666 335 666 267 666 c 0,30,31
 158 666 158 666 105 582 c 0,32,33
 54 500 54 500 54 357 c 0,34,35
 54 211 54 211 105 128 c 0,36,37
 159 40 159 40 267 40 c 0,38,39
 374 40 374 40 421 105 c 0,40,41
 464 165 464 165 464 279 c 2,42,-1
 464 300 l 1,0,-1
EndSplineSet
Validated: 1
EndChar

StartChar: H
Encoding: 72 72 40
Width: 518
GlyphClass: 2
Flags: W
LayerCount: 2
Fore
SplineSet
422 401 m 1,0,-1
 422 673 l 2,1,2
 422 691 422 691 444 691 c 0,3,4
 465 691 465 691 465 673 c 2,5,-1
 465 25 l 2,6,7
 465 6 465 6 445 6 c 0,8,9
 422 6 422 6 422 25 c 2,10,-1
 422 359 l 1,11,-1
 61 358 l 1,12,-1
 61 24 l 2,13,14
 61 16 61 16 55 11 c 0,15,16
 49 5 49 5 38 5 c 0,17,18
 17 5 17 5 17 24 c 2,19,-1
 17 672 l 2,20,21
 17 690 17 690 39 690 c 128,-1,22
 61 690 61 690 61 671 c 2,23,-1
 61 400 l 1,24,-1
 422 401 l 1,0,-1
EndSplineSet
Validated: 1
EndChar

StartChar: I
Encoding: 73 73 41
Width: 121
GlyphClass: 2
Flags: W
LayerCount: 2
Fore
SplineSet
45 686 m 0,0,1
 65 686 65 686 65 668 c 2,2,-1
 65 19 l 2,3,4
 65 1 65 1 45 1 c 0,5,6
 24 1 24 1 24 19 c 2,7,-1
 24 668 l 2,8,9
 24 686 24 686 45 686 c 0,0,1
EndSplineSet
Validated: 1
EndChar

StartChar: J
Encoding: 74 74 42
Width: 513
GlyphClass: 2
Flags: W
LayerCount: 2
Fore
SplineSet
414 197 m 2,0,-1
 414 660 l 2,1,2
 414 679 414 679 436 679 c 128,-1,3
 458 679 458 679 458 660 c 2,4,-1
 458 195 l 2,5,6
 458 115 458 115 388 54 c 0,7,8
 319 -6 319 -6 231 -6 c 0,9,10
 149 -6 149 -6 79 55 c 0,11,12
 10 115 10 115 10 195 c 0,13,14
 10 216 10 216 30 216 c 0,15,16
 52 216 52 216 52 197 c 0,17,18
 52 137 52 137 109 87 c 0,19,20
 169 35 169 35 231 35 c 0,21,22
 300 35 300 35 358 84 c 0,23,24
 414 131 414 131 414 197 c 2,0,-1
EndSplineSet
Validated: 1
EndChar

StartChar: K
Encoding: 75 75 43
Width: 442
GlyphClass: 2
Flags: W
LayerCount: 2
Fore
SplineSet
355 675 m 2,0,1
 360 680 360 680 370 680 c 0,2,3
 378 680 378 680 383 674 c 256,4,5
 388 668 388 668 388 658 c 0,6,7
 388 649 388 649 385 646 c 2,8,-1
 87 344 l 1,9,-1
 379 34 l 2,10,11
 382 31 382 31 382 18 c 0,12,13
 382 10 382 10 377 5 c 128,-1,14
 372 0 372 0 362 0 c 0,15,16
 354 0 354 0 350 4 c 2,17,-1
 65 302 l 1,18,-1
 65 21 l 2,19,20
 65 2 65 2 44 2 c 0,21,22
 36 2 36 2 30 8 c 0,23,24
 23 14 23 14 23 23 c 2,25,-1
 23 669 l 2,26,27
 23 687 23 687 44 687 c 128,-1,28
 65 687 65 687 65 668 c 2,29,-1
 65 381 l 1,30,-1
 355 675 l 2,0,1
EndSplineSet
Validated: 1
EndChar

StartChar: L
Encoding: 76 76 44
Width: 498
GlyphClass: 2
Flags: W
LayerCount: 2
Fore
SplineSet
18 670 m 2,0,1
 18 688 18 688 38 688 c 0,2,3
 61 688 61 688 61 670 c 2,4,-1
 61 44 l 1,5,-1
 426 44 l 2,6,7
 445 44 445 44 445 24 c 0,8,9
 445 3 445 3 426 3 c 2,10,-1
 36 3 l 2,11,12
 18 3 18 3 18 19 c 2,13,-1
 18 670 l 2,0,1
EndSplineSet
Validated: 1
EndChar

StartChar: M
Encoding: 77 77 45
Width: 642
GlyphClass: 2
Flags: W
LayerCount: 2
Fore
SplineSet
41 3 m 0,0,1
 18 3 18 3 18 23 c 2,2,-1
 18 670 l 2,3,4
 18 685 18 685 32 685 c 1,5,6
 35 688 35 688 40 688 c 0,7,8
 46 688 46 688 53 683 c 1,9,-1
 298 292 l 1,10,-1
 551 682 l 1,11,12
 556 687 556 687 573 687 c 0,13,14
 586 687 586 687 586 669 c 2,15,-1
 586 23 l 2,16,17
 586 3 586 3 565 3 c 0,18,19
 546 3 546 3 546 23 c 2,20,-1
 546 611 l 1,21,-1
 316 258 l 1,22,23
 316 245 316 245 302 245 c 0,24,25
 284 245 284 245 284 260 c 1,26,-1
 59 611 l 1,27,-1
 59 23 l 2,28,29
 59 3 59 3 41 3 c 0,0,1
EndSplineSet
Validated: 1
EndChar

StartChar: N
Encoding: 78 78 46
Width: 533
GlyphClass: 2
Flags: W
LayerCount: 2
Fore
SplineSet
441 12 m 2,0,-1
 59 607 l 1,1,-1
 59 22 l 2,2,3
 59 15 59 15 53 9 c 0,4,5
 48 3 48 3 39 3 c 0,6,7
 18 3 18 3 18 22 c 2,8,-1
 18 670 l 2,9,10
 18 687 18 687 33 687 c 0,11,12
 52 687 52 687 57 679 c 2,13,-1
 437 85 l 1,14,-1
 437 670 l 2,15,16
 437 688 437 688 456 688 c 0,17,18
 477 688 477 688 477 670 c 2,19,-1
 477 23 l 2,20,21
 477 5 477 5 463 5 c 0,22,23
 446 5 446 5 441 12 c 2,0,-1
EndSplineSet
Validated: 1
EndChar

StartChar: O
Encoding: 79 79 47
Width: 609
GlyphClass: 2
Flags: W
LayerCount: 2
Fore
SplineSet
553 355 m 128,-1,1
 553 203 553 203 493 104 c 0,2,3
 430 0 430 0 293 0 c 0,4,5
 154 0 154 0 93 103 c 128,-1,6
 32 206 32 206 32 354 c 0,7,8
 32 503 32 503 93 606 c 128,-1,9
 154 709 154 709 293 709 c 0,10,11
 430 709 430 709 493 606 c 0,12,0
 553 507 553 507 553 355 c 128,-1,1
293 41 m 0,13,14
 410 41 410 41 460 131 c 0,15,16
 510 220 510 220 510 354 c 0,17,18
 510 491 510 491 461 577 c 0,19,20
 410 667 410 667 293 667 c 0,21,22
 175 667 175 667 125 577 c 0,23,24
 75 488 75 488 75 354 c 0,25,26
 75 219 75 219 124 131 c 0,27,28
 174 41 174 41 293 41 c 0,13,14
EndSplineSet
Validated: 1
EndChar

StartChar: P
Encoding: 80 80 48
Width: 444
GlyphClass: 2
Flags: W
LayerCount: 2
Fore
SplineSet
50 4 m 0,0,1
 28 4 28 4 28 23 c 2,2,-1
 28 670 l 2,3,4
 28 680 28 680 34 684 c 0,5,6
 39 687 39 687 48 689 c 1,7,-1
 207 689 l 2,8,9
 295 689 295 689 342 633 c 0,10,11
 391 575 391 575 391 494 c 0,12,13
 391 411 391 411 343 354 c 0,14,15
 294 296 294 296 210 296 c 2,16,-1
 69 296 l 1,17,-1
 69 24 l 2,18,19
 69 4 69 4 50 4 c 0,0,1
350 494 m 0,20,21
 350 556 350 556 312 604 c 0,22,23
 278 647 278 647 206 647 c 2,24,-1
 69 647 l 1,25,-1
 69 338 l 1,26,-1
 210 338 l 2,27,28
 276 338 276 338 312 384 c 0,29,30
 350 433 350 433 350 494 c 0,20,21
EndSplineSet
Validated: 1
EndChar

StartChar: Q
Encoding: 81 81 49
Width: 603
GlyphClass: 2
Flags: W
LayerCount: 2
Fore
SplineSet
523 31 m 0,0,1
 518 26 518 26 508 26 c 0,2,3
 502 26 502 26 496 30 c 1,4,-1
 463 71 l 1,5,6
 434 37 434 37 387 18 c 0,7,8
 344 1 344 1 291 1 c 0,9,10
 158 1 158 1 94 99 c 0,11,12
 31 196 31 196 31 356 c 0,13,14
 31 521 31 521 94 614 c 0,15,16
 160 711 160 711 291 711 c 0,17,18
 424 711 424 711 487 607 c 0,19,20
 550 504 550 504 550 356 c 0,21,22
 550 280 550 280 535 217 c 0,23,24
 522 164 522 164 488 104 c 1,25,-1
 526 57 l 2,26,27
 530 51 530 51 530 46 c 0,28,29
 530 38 530 38 523 31 c 0,0,1
508 356 m 0,30,31
 508 496 508 496 455 583 c 0,32,33
 403 669 403 669 291 669 c 0,34,35
 178 669 178 669 125 582 c 0,36,37
 74 499 74 499 74 356 c 0,38,39
 74 216 74 216 123 131 c 0,40,41
 173 44 173 44 291 44 c 0,42,43
 338 44 338 44 367 57 c 0,44,45
 405 74 405 74 432 101 c 1,46,-1
 391 151 l 1,47,48
 388 157 388 157 388 164 c 0,49,50
 388 173 388 173 393 178 c 128,-1,51
 398 183 398 183 407 183 c 0,52,53
 418 183 418 183 422 180 c 1,54,-1
 459 137 l 1,55,56
 481 176 481 176 494 234 c 0,57,58
 508 295 508 295 508 356 c 0,30,31
EndSplineSet
Validated: 1
EndChar

StartChar: R
Encoding: 82 82 50
Width: 443
GlyphClass: 2
Flags: W
LayerCount: 2
Fore
SplineSet
366 7 m 0,0,1
 361 2 361 2 352 2 c 0,2,3
 338 2 338 2 333 10 c 1,4,-1
 106 295 l 1,5,-1
 57 295 l 1,6,-1
 57 22 l 2,7,8
 57 2 57 2 38 2 c 0,9,10
 16 2 16 2 16 22 c 2,11,-1
 16 669 l 2,12,13
 16 678 16 678 22 682 c 0,14,15
 27 685 27 685 36 687 c 1,16,-1
 206 687 l 2,17,18
 292 687 292 687 341 631 c 128,-1,19
 390 575 390 575 390 493 c 0,20,21
 390 427 390 427 342 353 c 0,22,23
 303 294 303 294 188 294 c 1,24,-1
 158 295 l 1,25,-1
 368 32 l 1,26,27
 377 18 377 18 366 7 c 0,0,1
349 493 m 0,28,29
 349 556 349 556 311 602 c 0,30,31
 274 646 274 646 205 646 c 2,32,-1
 57 646 l 1,33,-1
 57 337 l 1,34,-1
 208 337 l 2,35,36
 276 337 276 337 312 382 c 0,37,38
 349 428 349 428 349 493 c 0,28,29
EndSplineSet
Validated: 1
EndChar

StartChar: S
Encoding: 83 83 51
Width: 548
GlyphClass: 2
Flags: W
LayerCount: 2
Fore
SplineSet
99 562 m 0,0,1
 99 505 99 505 140 477 c 0,2,3
 186 445 186 445 273 420 c 0,4,5
 362 394 362 394 431 343 c 0,6,7
 494 296 494 296 494 211 c 0,8,9
 494 120 494 120 424 60 c 0,10,11
 353 -1 353 -1 253 -1 c 0,12,13
 175 -1 175 -1 109 46 c 0,14,15
 40 95 40 95 18 173 c 1,16,17
 18 198 18 198 33 198 c 0,18,19
 57 198 57 198 62 186 c 1,20,21
 81 118 81 118 135 81 c 0,22,23
 193 41 193 41 253 41 c 0,24,25
 328 41 328 41 390 89 c 0,26,27
 450 136 450 136 450 211 c 0,28,29
 450 278 450 278 393 316 c 0,30,31
 333 356 333 356 236 387 c 0,32,33
 127 422 127 422 94 462 c 0,34,35
 57 507 57 507 57 562 c 0,36,37
 57 631 57 631 117 669 c 0,38,39
 178 708 178 708 260 708 c 0,40,41
 394 708 394 708 454 588 c 1,42,43
 454 569 454 569 445 564 c 0,44,45
 438 560 438 560 432 560 c 0,46,47
 420 560 420 560 416 567 c 0,48,49
 366 666 366 666 260 666 c 0,50,51
 200 666 200 666 148 639 c 0,52,53
 99 614 99 614 99 562 c 0,0,1
EndSplineSet
Validated: 1
EndChar

StartChar: T
Encoding: 84 84 52
Width: 551
GlyphClass: 2
Flags: W
LayerCount: 2
Fore
SplineSet
23 669 m 0,0,1
 23 688 23 688 43 688 c 2,2,-1
 475 688 l 2,3,4
 484 688 484 688 489 682 c 0,5,6
 494 677 494 677 494 669 c 0,7,8
 494 647 494 647 475 647 c 2,9,-1
 279 647 l 1,10,-1
 279 23 l 2,11,12
 279 14 279 14 274 9 c 1,13,14
 270 3 270 3 259 3 c 0,15,16
 240 3 240 3 240 23 c 2,17,-1
 240 647 l 1,18,-1
 43 647 l 2,19,20
 33 647 33 647 29 652 c 0,21,22
 23 660 23 660 23 669 c 0,0,1
EndSplineSet
Validated: 1
EndChar

StartChar: U
Encoding: 85 85 53
Width: 571
GlyphClass: 2
Flags: W
LayerCount: 2
Fore
SplineSet
36 697 m 0,0,1
 60 697 60 697 60 679 c 2,2,-1
 60 257 l 2,3,4
 60 163 60 163 119 104 c 0,5,6
 180 43 180 43 263 43 c 0,7,8
 352 43 352 43 412 103 c 128,-1,9
 472 163 472 163 472 257 c 2,10,-1
 472 679 l 2,11,12
 472 697 472 697 494 697 c 128,-1,13
 516 697 516 697 516 679 c 2,14,-1
 516 257 l 2,15,16
 516 150 516 150 442 74 c 0,17,18
 369 0 369 0 263 0 c 0,19,20
 160 0 160 0 89 74 c 0,21,22
 16 150 16 150 16 257 c 2,23,-1
 16 679 l 2,24,25
 16 697 16 697 36 697 c 0,0,1
EndSplineSet
Validated: 1
EndChar

StartChar: V
Encoding: 86 86 54
Width: 590
GlyphClass: 2
Flags: W
LayerCount: 2
Fore
SplineSet
493 684 m 2,0,1
 498 696 498 696 510 696 c 0,2,3
 512 696 512 696 520 694 c 1,4,5
 531 694 531 694 531 670 c 1,6,-1
 296 22 l 1,7,8
 296 10 296 10 278 10 c 0,9,10
 262 10 262 10 258 23 c 2,11,-1
 20 670 l 1,12,13
 20 694 20 694 34 694 c 0,14,15
 54 694 54 694 58 685 c 2,16,-1
 277 94 l 1,17,-1
 493 684 l 2,0,1
EndSplineSet
Validated: 1
EndChar

StartChar: W
Encoding: 87 87 55
Width: 824
GlyphClass: 2
Flags: W
LayerCount: 2
Fore
SplineSet
572 96 m 1,0,-1
 729 679 l 1,1,2
 733 687 733 687 743 689 c 0,3,4
 748 690 748 690 755 690 c 0,5,6
 771 690 771 690 771 667 c 1,7,-1
 591 21 l 1,8,9
 591 6 591 6 573 6 c 0,10,11
 560 6 560 6 552 21 c 1,12,-1
 396 435 l 1,13,-1
 243 21 l 1,14,15
 243 12 243 12 236 9 c 0,16,17
 230 6 230 6 223 6 c 0,18,19
 204 6 204 6 204 22 c 1,20,-1
 26 666 l 1,21,22
 26 690 26 690 41 690 c 0,23,24
 65 690 65 690 67 679 c 2,25,-1
 223 96 l 1,26,-1
 376 490 l 1,27,28
 376 503 376 503 395 503 c 0,29,30
 404 503 404 503 408 501 c 0,31,32
 414 498 414 498 414 489 c 1,33,-1
 572 96 l 1,0,-1
EndSplineSet
Validated: 1
EndChar

StartChar: X
Encoding: 88 88 56
Width: 541
GlyphClass: 2
Flags: W
LayerCount: 2
Fore
SplineSet
23 657 m 2,0,1
 18 664 18 664 18 672 c 0,2,3
 18 681 18 681 26 686 c 1,4,5
 31 691 31 691 39 691 c 0,6,7
 48 691 48 691 55 684 c 1,8,-1
 256 387 l 1,9,-1
 456 684 l 1,10,11
 463 691 463 691 474 691 c 0,12,13
 482 691 482 691 487 686 c 128,-1,14
 492 681 492 681 492 669 c 0,15,16
 492 661 492 661 489 657 c 2,17,-1
 278 351 l 1,18,-1
 489 40 l 2,19,20
 492 36 492 36 492 27 c 0,21,22
 492 17 492 17 486 11 c 1,23,24
 480 7 480 7 474 7 c 0,25,26
 463 7 463 7 456 14 c 1,27,-1
 256 314 l 1,28,-1
 55 14 l 1,29,30
 48 7 48 7 37 7 c 0,31,32
 33 7 33 7 25 11 c 0,33,34
 18 14 18 14 18 26 c 0,35,36
 18 30 18 30 23 40 c 1,37,-1
 232 351 l 1,38,-1
 23 657 l 2,0,1
EndSplineSet
Validated: 1
EndChar

StartChar: Y
Encoding: 89 89 57
Width: 549
GlyphClass: 2
Flags: W
LayerCount: 2
Fore
SplineSet
277 29 m 2,0,1
 277 8 277 8 259 8 c 0,2,3
 240 8 240 8 240 28 c 2,4,-1
 240 409 l 1,5,-1
 23 664 l 2,6,7
 20 668 20 668 20 674 c 0,8,9
 20 682 20 682 27 687 c 128,-1,10
 34 692 34 692 41 692 c 0,11,12
 51 692 51 692 57 686 c 2,13,-1
 259 453 l 1,14,-1
 460 686 l 2,15,16
 466 692 466 692 475 692 c 0,17,18
 481 692 481 692 489 688 c 0,19,20
 495 684 495 684 495 674 c 0,21,22
 495 668 495 668 492 664 c 2,23,-1
 277 411 l 1,24,-1
 277 29 l 2,0,1
EndSplineSet
Validated: 1
EndChar

StartChar: Z
Encoding: 90 90 58
Width: 562
GlyphClass: 2
Flags: W
LayerCount: 2
Fore
SplineSet
20 667 m 0,0,1
 20 687 20 687 44 687 c 2,2,-1
 489 687 l 2,3,4
 501 687 501 687 506 679 c 0,5,6
 510 672 510 672 510 664 c 128,-1,7
 510 656 510 656 507 652 c 2,8,-1
 340 413 l 1,9,-1
 390 414 l 2,10,11
 419 414 419 414 419 392 c 0,12,13
 419 368 419 368 389 368 c 2,14,-1
 307 367 l 1,15,-1
 80 43 l 1,16,-1
 491 43 l 2,17,18
 509 43 509 43 509 23 c 0,19,20
 509 2 509 2 491 2 c 2,21,-1
 39 2 l 2,22,23
 28 2 28 2 24 9 c 128,-1,24
 20 16 20 16 20 24 c 128,-1,25
 20 32 20 32 23 36 c 2,26,-1
 254 366 l 1,27,-1
 213 366 l 1,28,-1
 212 366 l 2,29,30
 183 366 183 366 183 387 c 0,31,32
 183 410 183 410 213 412 c 1,33,-1
 286 412 l 1,34,-1
 449 645 l 1,35,-1
 41 645 l 2,36,37
 20 645 20 645 20 667 c 0,0,1
EndSplineSet
Validated: 1
EndChar

StartChar: bracketleft
Encoding: 91 91 59
Width: 72
GlyphClass: 2
Flags: W
LayerCount: 2
Fore
SplineSet
55 34 m 1,0,-1
 177 34 l 2,1,2
 183 34 183 34 192 28 c 1,3,4
 202 18 202 18 202 7 c 0,5,6
 202 -5 202 -5 191 -16 c 1,7,8
 182 -23 182 -23 180 -24 c 1,9,-1
 -1 -24 l 2,10,11
 -7 -24 -7 -24 -7 -15 c 0,12,13
 -7 -14 -7 -14 -6 -12 c 1,14,-1
 -6 -9 l 1,15,-1
 -6 634 l 2,16,17
 -6 641 -6 641 -5 644 c 0,18,19
 -4 648 -4 648 -1 648 c 2,20,-1
 184 649 l 2,21,22
 197 649 197 649 203 646 c 0,23,24
 215 642 215 642 218 637.5 c 128,-1,25
 221 633 221 633 221 622 c 0,26,27
 221 606 221 606 206 596 c 1,28,-1
 184 593 l 1,29,-1
 52 593 l 1,30,-1
 55 34 l 1,0,-1
EndSplineSet
Validated: 1
EndChar

StartChar: backslash
Encoding: 92 92 60
Width: 737
GlyphClass: 2
Flags: W
LayerCount: 2
Fore
SplineSet
152 589 m 0,0,1
 158 592 158 592 163 592 c 0,2,3
 172 592 172 592 178 583 c 2,4,-1
 519 20 l 2,5,6
 522 14 522 14 522 11 c 0,7,8
 522 2 522 2 511 -4 c 1,9,10
 501 -8 501 -8 499 -8 c 0,11,12
 490 -8 490 -8 484 1 c 2,13,-1
 144 563 l 2,14,15
 140 569 140 569 140 573 c 0,16,17
 140 583 140 583 152 589 c 0,0,1
EndSplineSet
Validated: 1
EndChar

StartChar: bracketright
Encoding: 93 93 61
Width: 72
GlyphClass: 2
Flags: W
LayerCount: 2
Fore
SplineSet
160 34 m 1,0,-1
 162 593 l 1,1,-1
 31 593 l 1,2,3
 10 594 10 594 8 596 c 0,4,5
 -6 605 -6 605 -6 622 c 0,6,7
 -6 633 -6 633 -3 637.5 c 128,-1,8
 0 642 0 642 12 646 c 0,9,10
 18 649 18 649 31 649 c 2,11,-1
 215 648 l 2,12,13
 218 648 218 648 219 644 c 0,14,15
 221 638 221 638 221 634 c 2,16,-1
 221 -9 l 2,17,18
 221 -24 221 -24 215 -24 c 2,19,-1
 35 -24 l 1,20,21
 33 -23 33 -23 24 -16 c 1,22,23
 12 -4 12 -4 12 7 c 0,24,25
 12 17 12 17 23 28 c 1,26,27
 32 34 32 34 37 34 c 2,28,-1
 160 34 l 1,0,-1
EndSplineSet
Validated: 1
EndChar

StartChar: underscore
Encoding: 95 95 62
Width: 452
GlyphClass: 2
Flags: W
LayerCount: 2
Fore
SplineSet
445 23 m 0,0,1
 445 -2 445 -2 415 -2 c 2,2,-1
 9 -1 l 2,3,4
 -21 -1 -21 -1 -21 20 c 0,5,6
 -21 43 -21 43 9 43 c 2,7,-1
 416 45 l 2,8,9
 445 45 445 45 445 23 c 0,0,1
EndSplineSet
Validated: 1
EndChar

StartChar: a
Encoding: 97 97 63
Width: 479
GlyphClass: 2
Flags: W
LayerCount: 2
Fore
SplineSet
160 40 m 0,0,1
 216 40 216 40 257 87 c 0,2,3
 300 136 300 136 300 198 c 0,4,5
 300 252 300 252 264 289 c 128,-1,6
 228 326 228 326 179 326 c 0,7,8
 118 326 118 326 80 279 c 0,9,10
 41 231 41 231 41 167 c 0,11,12
 41 114 41 114 74 78 c 0,13,14
 109 40 109 40 160 40 c 0,0,1
184 365 m 0,15,16
 210 365 210 365 249 350 c 1,17,18
 287 329 287 329 309 305 c 128,-1,19
 331 281 331 281 335 268.5 c 128,-1,20
 339 256 339 256 339 247 c 2,21,-1
 342 80 l 1,22,23
 344 39 344 39 365 39 c 0,24,25
 384 39 384 39 403 54 c 128,-1,26
 422 69 422 69 430 86 c 1,27,-1
 476 171 l 1,28,29
 484 179 484 179 492 179 c 0,30,31
 497 179 497 179 507 175 c 1,32,33
 515 169 515 169 515 163 c 0,34,35
 515 161 515 161 514 160 c 0,36,37
 513 158 513 158 512.5 155 c 128,-1,38
 512 152 512 152 511 150 c 2,39,-1
 465 61 l 2,40,41
 453 39 453 39 419 16 c 0,42,43
 396 0 396 0 364 0 c 0,44,45
 335 0 335 0 318.5 21.5 c 128,-1,46
 302 43 302 43 300 73 c 1,47,48
 249 0 249 0 158 0 c 0,49,50
 94 0 94 0 44 47 c 0,51,52
 0 88 0 88 0 178 c 0,53,54
 0 230 0 230 21.5 269 c 128,-1,55
 43 308 43 308 74.5 327.5 c 128,-1,56
 106 347 106 347 134 356 c 128,-1,57
 162 365 162 365 184 365 c 0,15,16
EndSplineSet
Validated: 1
EndChar

StartChar: b
Encoding: 98 98 64
Width: 414
GlyphClass: 2
Flags: W
LayerCount: 2
Fore
SplineSet
129 679 m 2,0,-1
 130 679 l 2,1,2
 212 679 212 679 212 561 c 0,3,4
 212 482 212 482 177 385 c 128,-1,5
 142 288 142 288 98 241 c 1,6,-1
 98 101 l 2,7,8
 98 83 98 83 120 61 c 0,9,10
 140 41 140 41 175 41 c 0,11,12
 220 41 220 41 255 90 c 0,13,14
 289 137 289 137 289 187 c 0,15,16
 289 228 289 228 277 252 c 0,17,18
 274 258 274 258 274 260 c 0,19,20
 274 268 274 268 280.5 274 c 128,-1,21
 287 280 287 280 296 280 c 0,22,23
 310 280 310 280 318.5 262 c 128,-1,24
 327 244 327 244 327 225 c 1,25,26
 328 215 328 215 340 176 c 0,27,28
 343 167 343 167 355 151.5 c 128,-1,29
 367 136 367 136 374 136 c 128,-1,30
 381 136 381 136 388 145 c 0,31,32
 408 170 408 170 414 181 c 0,33,34
 420 193 420 193 434 193 c 0,35,36
 443 193 443 193 449 186.5 c 128,-1,37
 455 180 455 180 455 172 c 0,38,39
 455 170 455 170 449 158 c 1,40,41
 410 107 410 107 402 101 c 0,42,43
 386 90 386 90 372 90 c 0,44,45
 367 90 367 90 354.5 98 c 128,-1,46
 342 106 342 106 341 106 c 0,47,48
 337 107 337 107 330 117.5 c 128,-1,49
 323 128 323 128 321 133 c 1,50,51
 313 80 313 80 266 39 c 0,52,53
 221 0 221 0 175 0 c 0,54,55
 127 0 127 0 93 29.5 c 128,-1,56
 59 59 59 59 59 105 c 2,57,-1
 59 108 l 1,58,-1
 59 214 l 1,59,-1
 33 163 l 1,60,61
 24 154 24 154 16 154 c 0,62,63
 -4 154 -4 154 -4 176 c 0,64,65
 -4 180 -4 180 0 184 c 1,66,-1
 59 273 l 1,67,-1
 59 598 l 2,68,69
 59 635 59 635 78 657 c 128,-1,70
 97 679 97 679 129 679 c 2,0,-1
128 636 m 2,71,-1
 124 636 l 2,72,73
 100 636 100 636 100 598 c 2,74,-1
 100 307 l 1,75,76
 102 307 102 307 119 350 c 128,-1,77
 136 393 136 393 153 457 c 128,-1,78
 170 521 170 521 170 564 c 0,79,80
 170 636 170 636 128 636 c 2,71,-1
EndSplineSet
Validated: 1
EndChar

StartChar: c
Encoding: 99 99 65
Width: 333
GlyphClass: 2
Flags: W
LayerCount: 2
Fore
SplineSet
0 147 m 1,0,1
 0 147 0 147 0 161 c 0,2,3
 0 265 0 265 66 326 c 0,4,5
 80 338 80 338 117 353 c 0,6,7
 153 367 153 367 183 367 c 0,8,9
 202 367 202 367 231 358 c 0,10,11
 256 350 256 350 270 339 c 128,-1,12
 284 328 284 328 284 318 c 0,13,14
 284 314 284 314 279 306 c 128,-1,15
 274 298 274 298 262 298 c 0,16,17
 259 298 259 298 237 312 c 0,18,19
 214 327 214 327 183 327 c 0,20,21
 124 327 124 327 82 281 c 0,22,23
 40 234 40 234 40 172 c 0,24,25
 40 111 40 111 76 76 c 0,26,27
 114 40 114 40 179 40 c 0,28,29
 222 40 222 40 251 58 c 0,30,31
 260 63 260 63 270.5 76 c 128,-1,32
 281 89 281 89 297.5 112 c 128,-1,33
 314 135 314 135 317 139 c 2,34,-1
 337 170 l 2,35,36
 342 177 342 177 354 177 c 0,37,38
 363 177 363 177 368 173 c 128,-1,39
 373 169 373 169 373 157 c 0,40,41
 373 150 373 150 370 144 c 2,42,-1
 348 110 l 2,43,44
 345 105 345 105 332 87 c 128,-1,45
 319 69 319 69 311.5 59 c 128,-1,46
 304 49 304 49 292 37 c 128,-1,47
 280 25 280 25 271 20 c 0,48,49
 232 0 232 0 177 0 c 0,50,51
 96 0 96 0 49 46 c 1,52,53
 3 89 3 89 0 147 c 1,0,1
EndSplineSet
Validated: 1
EndChar

StartChar: d
Encoding: 100 100 66
Width: 507
GlyphClass: 2
Flags: W
LayerCount: 2
Fore
SplineSet
0 164 m 2,0,1
 0 164 0 164 0 166 c 0,2,3
 0 263 0 263 57 317 c 128,-1,4
 114 371 114 371 185 371 c 0,5,6
 255 371 255 371 302 314 c 1,7,-1
 302 660 l 2,8,9
 302 681 302 681 321 681 c 0,10,11
 343 681 343 681 343 660 c 2,12,-1
 343 87 l 2,13,14
 343 45 343 45 369 45 c 0,15,16
 382 45 382 45 402 57 c 128,-1,17
 422 69 422 69 428 78 c 1,18,19
 431 80 431 80 435.5 86 c 128,-1,20
 440 92 440 92 449.5 104 c 128,-1,21
 459 116 459 116 467 126 c 2,22,-1
 501 167 l 1,23,24
 507 180 507 180 519 180 c 0,25,26
 539 180 539 180 539 159 c 0,27,28
 539 149 539 149 523 130 c 2,29,-1
 499 102 l 2,30,31
 491 93 491 93 473 68.5 c 128,-1,32
 455 44 455 44 445 33.5 c 128,-1,33
 435 23 435 23 415 12.5 c 128,-1,34
 395 2 395 2 370 2 c 0,35,36
 340 2 340 2 322.5 23 c 128,-1,37
 305 44 305 44 302 76 c 1,38,39
 245 2 245 2 159 2 c 0,40,41
 95 2 95 2 47.5 51.5 c 128,-1,42
 0 101 0 101 0 164 c 2,0,1
184 331 m 0,43,44
 122 331 122 331 81 283.5 c 128,-1,45
 40 236 40 236 40 173 c 0,46,47
 40 120 40 120 74 81.5 c 128,-1,48
 108 43 108 43 161 43 c 0,49,50
 221 43 221 43 261.5 92.5 c 128,-1,51
 302 142 302 142 302 204 c 0,52,53
 302 255 302 255 267.5 293 c 128,-1,54
 233 331 233 331 184 331 c 0,43,44
EndSplineSet
Validated: 1
EndChar

StartChar: e
Encoding: 101 101 67
Width: 367
GlyphClass: 2
Flags: W
LayerCount: 2
Fore
SplineSet
182 366 m 0,0,1
 230 366 230 366 261 343.5 c 128,-1,2
 292 321 292 321 292 279 c 0,3,4
 292 257 292 257 278.5 238 c 128,-1,5
 265 219 265 219 247 207.5 c 128,-1,6
 229 196 229 196 199 185 c 128,-1,7
 169 174 169 174 147.5 168.5 c 128,-1,8
 126 163 126 163 92.5 155 c 128,-1,9
 59 147 59 147 46 144 c 1,10,-1
 45 144 l 1,11,12
 55 96 55 96 89.5 68.5 c 128,-1,13
 124 41 124 41 177 41 c 0,14,15
 265 41 265 41 339 145 c 1,16,-1
 370 187 l 1,17,18
 378 200 378 200 388 200 c 0,19,20
 409 200 409 200 409 180 c 0,21,22
 409 175 409 175 399 158 c 0,23,24
 378 124 378 124 361.5 102.5 c 128,-1,25
 345 81 345 81 318 54.5 c 128,-1,26
 291 28 291 28 255.5 15 c 128,-1,27
 220 2 220 2 177 2 c 0,28,29
 101 2 101 2 50.5 49.5 c 128,-1,30
 0 97 0 97 0 171 c 0,31,32
 0 251 0 251 51 308.5 c 128,-1,33
 102 366 102 366 182 366 c 0,0,1
42 187 m 1,34,35
 142 216 142 216 186.5 231 c 128,-1,36
 231 246 231 246 238 250 c 128,-1,37
 245 254 245 254 246 260 c 0,38,39
 250 278 250 278 250 286 c 0,40,41
 250 326 250 326 187 326 c 2,42,-1
 182 326 l 1,43,44
 119 325 119 325 79.5 280 c 128,-1,45
 40 235 40 235 40 188 c 1,46,-1
 42 187 l 1,34,35
39 185 m 0,47,-1
EndSplineSet
Validated: 1
EndChar

StartChar: f
Encoding: 102 102 68
Width: 311
GlyphClass: 2
Flags: W
LayerCount: 2
Fore
SplineSet
119 569 m 2,0,1
 119 606 119 606 136 629 c 0,2,3
 154 653 154 653 188 653 c 0,4,5
 228 653 228 653 252 616 c 0,6,7
 277 577 277 577 277 530 c 0,8,9
 277 469 277 469 245 415 c 0,10,11
 238 402 238 402 160 302 c 1,12,-1
 163 56 l 1,13,-1
 299 180 l 2,14,15
 310 191 310 191 315 191 c 0,16,17
 323 191 323 191 331 185 c 0,18,19
 338 180 338 180 338 169 c 0,20,21
 338 160 338 160 334 156 c 2,22,-1
 163 -14 l 1,23,-1
 161 -251 l 2,24,25
 161 -291 161 -291 139 -327 c 0,26,27
 119 -360 119 -360 71 -360 c 0,28,29
 29 -360 29 -360 6 -327 c 0,30,31
 -19 -291 -19 -291 -19 -249 c 0,32,33
 -19 -205 -19 -205 14 -151 c 0,34,35
 14 -150 14 -150 36.5 -112 c 128,-1,36
 59 -74 59 -74 79 -42.5 c 128,-1,37
 99 -11 99 -11 121 19 c 1,38,-1
 118 253 l 1,39,-1
 37 152 l 1,40,41
 29 140 29 140 19 140 c 0,42,43
 16 140 16 140 6 145 c 0,44,45
 -2 149 -2 149 -2 163 c 0,46,47
 -2 170 -2 170 2 175 c 2,48,-1
 118 326 l 1,49,-1
 119 569 l 2,0,1
72 -319 m 0,50,51
 98 -319 98 -319 107 -297 c 0,52,53
 119 -269 119 -269 119 -251 c 2,54,-1
 121 -55 l 1,55,56
 99 -86 99 -86 50 -172 c 0,57,58
 23 -220 23 -220 23 -251 c 128,-1,59
 23 -282 23 -282 35 -299 c 0,60,61
 49 -319 49 -319 72 -319 c 0,50,51
235 531 m 0,62,63
 235 568 235 568 223 588 c 0,64,65
 209 611 209 611 189 611 c 0,66,67
 173 611 173 611 167 599 c 128,-1,68
 161 587 161 587 161 569 c 2,69,-1
 160 369 l 1,70,71
 202 424 202 424 219 464 c 0,72,73
 235 500 235 500 235 531 c 0,62,63
EndSplineSet
Validated: 1
EndChar

StartChar: g
Encoding: 103 103 69
Width: 398
GlyphClass: 2
Flags: W
LayerCount: 2
Fore
SplineSet
199 -233 m 0,0,1
 199 -258 199 -258 211.5 -278.5 c 128,-1,2
 224 -299 224 -299 244 -299 c 2,3,-1
 245 -299 l 1,4,5
 266 -298 266 -298 279 -279.5 c 128,-1,6
 292 -261 292 -261 292 -236 c 2,7,-1
 292 -42 l 1,8,9
 250 -103 250 -103 228 -144 c 0,10,11
 199 -199 199 -199 199 -233 c 0,0,1
292 191 m 0,12,13
 292 242 292 242 258 282 c 128,-1,14
 224 322 224 322 174 322 c 0,15,16
 113 322 113 322 71 274.5 c 128,-1,17
 29 227 29 227 29 166 c 0,18,19
 29 114 29 114 64 74.5 c 128,-1,20
 99 35 99 35 150 35 c 0,21,22
 210 35 210 35 251 82.5 c 128,-1,23
 292 130 292 130 292 191 c 0,12,13
-11 161 m 1,24,-1
 -11 163 l 2,25,26
 -11 252 -11 252 44 307.5 c 128,-1,27
 99 363 99 363 172 363 c 1,28,-1
 173 362 l 1,29,-1
 174 362 l 2,30,31
 175 362 175 362 177.5 362.5 c 128,-1,32
 180 363 180 363 181 363 c 0,33,34
 202 363 202 363 237.5 349 c 128,-1,35
 273 335 273 335 286 322 c 1,36,37
 311 308 311 308 334 260 c 1,38,-1
 334 86 l 1,39,-1
 394 175 l 1,40,41
 398 185 398 185 409 185 c 0,42,43
 418 185 418 185 425 179 c 128,-1,44
 432 173 432 173 432 164 c 0,45,46
 432 158 432 158 428 153 c 2,47,-1
 332 14 l 1,48,-1
 332 -236 l 1,49,50
 333 -241 333 -241 333 -250 c 0,51,52
 333 -290 333 -290 307 -312.5 c 128,-1,53
 281 -335 281 -335 245 -335 c 128,-1,54
 209 -335 209 -335 182.5 -312 c 128,-1,55
 156 -289 156 -289 156 -247 c 0,56,57
 156 -237 156 -237 157 -231 c 1,58,59
 155 -221 155 -221 155 -217 c 0,60,61
 155 -184 155 -184 184.5 -131 c 128,-1,62
 214 -78 214 -78 252 -26.5 c 128,-1,63
 290 25 290 25 292 29 c 1,64,-1
 292 67 l 1,65,66
 253 -3 253 -3 166 -3 c 0,67,68
 98 -3 98 -3 44 43 c 128,-1,69
 -10 89 -10 89 -11 161 c 1,24,-1
EndSplineSet
Validated: 1
EndChar

StartChar: h
Encoding: 104 104 70
Width: 605
GlyphClass: 2
Flags: W
LayerCount: 2
Fore
SplineSet
171 638 m 2,0,1
 148 638 148 638 148 596 c 2,2,-1
 148 375 l 2,3,4
 148 381 148 381 169 419.5 c 128,-1,5
 190 458 190 458 210.5 506.5 c 128,-1,6
 231 555 231 555 231 586 c 0,7,8
 231 638 231 638 172 638 c 2,9,-1
 171 638 l 2,0,1
152 315 m 1,10,-1
 152 243 l 1,11,12
 197 284 197 284 226 297.5 c 128,-1,13
 255 311 255 311 301 311 c 0,14,15
 359 311 359 311 395.5 262.5 c 128,-1,16
 432 214 432 214 432 158 c 2,17,-1
 432 62 l 2,18,19
 432 37 432 37 450 37 c 0,20,21
 461 37 461 37 477.5 46 c 128,-1,22
 494 55 494 55 503.5 62.5 c 128,-1,23
 513 70 513 70 516 73 c 0,24,25
 527 82 527 82 530 85 c 128,-1,26
 533 88 533 88 537 94 c 128,-1,27
 541 100 541 100 545 106 c 2,28,-1
 600 180 l 2,29,30
 606 189 606 189 619 189 c 0,31,32
 639 189 639 189 639 167 c 0,33,34
 639 162 639 162 636 156 c 1,35,-1
 578 80 l 2,36,37
 562 60 562 60 550.5 49 c 128,-1,38
 539 38 539 38 530 27 c 0,39,40
 521 17 521 17 494.5 7.5 c 128,-1,41
 468 -2 468 -2 443 -2 c 0,42,43
 389 -2 389 -2 389 45 c 2,44,-1
 389 160 l 2,45,46
 389 218 389 218 365.5 243 c 128,-1,47
 342 268 342 268 285 268 c 0,48,49
 225 268 225 268 189 222 c 128,-1,50
 153 176 153 176 153 111 c 2,51,-1
 154 18 l 2,52,53
 154 10 154 10 145.5 4.5 c 128,-1,54
 137 -1 137 -1 126 -1 c 0,55,56
 117 -1 117 -1 111.5 5 c 128,-1,57
 106 11 106 11 106 19 c 2,58,-1
 106 266 l 1,59,-1
 22 155 l 2,60,61
 15 146 15 146 5 146 c 0,62,63
 -15 146 -15 146 -15 167 c 0,64,65
 -15 170 -15 170 -11 175 c 2,66,-1
 106 336 l 1,67,-1
 106 601 l 2,68,69
 106 633 106 633 123 655.5 c 128,-1,70
 140 678 140 678 169 678 c 2,71,-1
 171 678 l 2,72,73
 277 678 277 678 277 597 c 0,74,75
 277 553 277 553 247.5 489.5 c 128,-1,76
 218 426 218 426 186 373.5 c 128,-1,77
 154 321 154 321 152 315 c 1,10,-1
EndSplineSet
Validated: 1
EndChar

StartChar: i
Encoding: 105 105 71
Width: 275
GlyphClass: 2
Flags: W
LayerCount: 2
Fore
SplineSet
2 186 m 1,0,-1
 55 275 l 1,1,-1
 55 346 l 1,2,3
 56 347 56 347 59.5 352 c 128,-1,4
 63 357 63 357 67 360 c 128,-1,5
 71 363 71 363 75 363 c 0,6,7
 88 363 88 363 91 357 c 0,8,9
 95 349 95 349 95 343 c 2,10,-1
 95 89 l 2,11,12
 95 70 95 70 103 57 c 0,13,14
 105 53 105 53 108.5 51.5 c 128,-1,15
 112 50 112 50 118.5 48 c 128,-1,16
 125 46 125 46 128 45 c 0,17,18
 134 43 134 43 138 43 c 0,19,20
 163 43 163 43 204 82.5 c 128,-1,21
 245 122 245 122 280 180 c 0,22,23
 284 187 284 187 295 187 c 0,24,25
 302 187 302 187 309 181 c 128,-1,26
 316 175 316 175 316 170 c 0,27,28
 316 167 316 167 315 166 c 0,29,30
 284 112 284 112 252 75.5 c 128,-1,31
 220 39 220 39 194 25 c 128,-1,32
 168 11 168 11 154 7 c 128,-1,33
 140 3 140 3 128 3 c 0,34,35
 93 3 93 3 74.5 26 c 128,-1,36
 56 49 56 49 56 88 c 2,37,-1
 56 89 l 1,38,-1
 57 201 l 1,39,-1
 33 163 l 1,40,41
 26 159 26 159 18 159 c 1,42,43
 4 161 4 161 1 171 c 1,44,45
 1 181 1 181 2 186 c 1,0,-1
74 525 m 0,46,47
 108 525 108 525 108 489 c 0,48,49
 108 476 108 476 97 465 c 128,-1,50
 86 454 86 454 74 454 c 0,51,52
 59 454 59 454 48 465 c 0,53,54
 36 477 36 477 36 489 c 0,55,56
 36 499 36 499 45 513 c 0,57,58
 52 525 52 525 74 525 c 0,46,47
EndSplineSet
Validated: 1
EndChar

StartChar: j
Encoding: 106 106 72
Width: 233
GlyphClass: 2
Flags: W
LayerCount: 2
Fore
SplineSet
0 163 m 0,0,1
 -10 169 -10 169 -10 181 c 0,2,3
 -10 183 -10 183 -8 185.5 c 128,-1,4
 -6 188 -6 188 -6 189 c 2,5,-1
 89 340 l 1,6,7
 94 346 94 346 110 346 c 0,8,9
 125 346 125 346 125 328 c 2,10,-1
 128 20 l 1,11,-1
 224 162 l 2,12,13
 231 174 231 174 245 174 c 0,14,15
 252 174 252 174 257 170 c 0,16,17
 264 165 264 165 264 153 c 0,18,19
 264 152 264 152 261 143 c 1,20,-1
 125 -55 l 1,21,-1
 124 -250 l 2,22,23
 124 -295 124 -295 98 -329 c 0,24,25
 74 -360 74 -360 33 -360 c 0,26,27
 -7 -360 -7 -360 -28 -331 c 128,-1,28
 -49 -302 -49 -302 -49 -246 c 0,29,30
 -49 -211 -49 -211 -29 -174 c 0,31,32
 -23 -163 -23 -163 -10 -145 c 128,-1,33
 3 -127 3 -127 31 -90 c 128,-1,34
 59 -53 59 -53 82 -20 c 1,35,-1
 80 250 l 1,36,-1
 29 170 l 1,37,38
 24 160 24 160 10 160 c 0,39,40
 4 160 4 160 0 163 c 0,0,1
34 -319 m 0,41,42
 51 -319 51 -319 66 -301 c 0,43,44
 84 -280 84 -280 84 -255 c 2,45,-1
 84 -254 l 1,46,-1
 80 -90 l 1,47,48
 27 -160 27 -160 17 -177 c 0,49,50
 -9 -221 -9 -221 -9 -246 c 0,51,52
 -9 -280 -9 -280 0 -302 c 0,53,54
 7 -319 7 -319 34 -319 c 0,41,42
109 525 m 0,55,56
 145 525 145 525 145 489 c 0,57,58
 145 476 145 476 135 466 c 0,59,60
 124 455 124 455 109 455 c 0,61,62
 95 455 95 455 84 466 c 128,-1,63
 73 477 73 477 73 489 c 0,64,65
 73 500 73 500 81 513 c 0,66,67
 88 525 88 525 109 525 c 0,55,56
EndSplineSet
Validated: 1
EndChar

StartChar: k
Encoding: 107 107 73
Width: 377
GlyphClass: 2
Flags: W
LayerCount: 2
Fore
SplineSet
97 275 m 1,0,1
 41 275 41 275 41 165 c 2,2,-1
 41 24 l 2,3,4
 41 3 41 3 23 3 c 0,5,6
 15 3 15 3 8 9.5 c 128,-1,7
 1 16 1 16 1 24 c 2,8,-1
 0 355 l 1,9,-1
 0 663 l 2,10,11
 0 682 0 682 22 682 c 0,12,13
 41 682 41 682 41 663 c 2,14,-1
 41 410 l 1,15,-1
 168 614 l 1,16,17
 172 623 172 623 184 623 c 0,18,19
 202 623 202 623 202 605 c 0,20,21
 202 594 202 594 199 588 c 2,22,-1
 42 332 l 1,23,-1
 42 290 l 1,24,25
 75 321 75 321 103 321 c 0,26,27
 136 321 136 321 149 293 c 1,28,29
 174 244 174 244 204.5 179 c 128,-1,30
 235 114 235 114 248.5 86.5 c 128,-1,31
 262 59 262 59 266 59 c 1,32,33
 326 129 326 129 352 164 c 1,34,35
 357 173 357 173 369 181 c 128,-1,36
 381 189 381 189 385 189 c 0,37,38
 403 189 403 189 403 168 c 0,39,40
 403 164 403 164 400 159 c 2,41,-1
 359 101 l 2,42,43
 348 86 348 86 333.5 63.5 c 128,-1,44
 319 41 319 41 311 29.5 c 128,-1,45
 303 18 303 18 293 9 c 128,-1,46
 283 0 283 0 273 0 c 128,-1,47
 263 0 263 0 250 10 c 0,48,49
 226 30 226 30 193 96.5 c 128,-1,50
 160 163 160 163 134 218.5 c 128,-1,51
 108 274 108 274 97 275 c 1,0,1
EndSplineSet
Validated: 1
EndChar

StartChar: l
Encoding: 108 108 74
Width: 262
GlyphClass: 2
Flags: W
LayerCount: 2
Fore
SplineSet
90 47 m 0,0,1
 91 47 91 47 99 48 c 128,-1,2
 107 49 107 49 119 51.5 c 128,-1,3
 131 54 131 54 145 59.5 c 128,-1,4
 159 65 159 65 174.5 78 c 128,-1,5
 190 91 190 91 202 110 c 1,6,-1
 248 160 l 1,7,8
 264 181 264 181 273 181 c 0,9,10
 291 181 291 181 291 162 c 0,11,12
 291 158 291 158 288 153 c 2,13,-1
 245 98 l 1,14,15
 226 70 226 70 210 56 c 0,16,17
 186 33 186 33 166 20 c 0,18,19
 140 2 140 2 83 2 c 0,20,21
 46 2 46 2 23 24.5 c 128,-1,22
 0 47 0 47 0 83 c 2,23,-1
 0 319 l 1,24,-1
 2 601 l 2,25,26
 2 634 2 634 18.5 657.5 c 128,-1,27
 35 681 35 681 64 681 c 2,28,-1
 68 681 l 2,29,30
 70 681 70 681 73 681.5 c 128,-1,31
 76 682 76 682 78 682 c 0,32,33
 123 682 123 682 150 634.5 c 128,-1,34
 177 587 177 587 177 512 c 0,35,36
 177 431 177 431 143 340 c 128,-1,37
 109 249 109 249 41 170 c 1,38,-1
 42 83 l 2,39,40
 42 47 42 47 90 47 c 0,0,1
41 240 m 1,41,42
 81 277 81 277 105.5 356 c 128,-1,43
 130 435 130 435 130 511 c 0,44,45
 130 568 130 568 114.5 604 c 128,-1,46
 99 640 99 640 69 640 c 0,47,48
 42 640 42 640 42 606 c 2,49,-1
 41 240 l 1,41,42
EndSplineSet
Validated: 1
EndChar

StartChar: m
Encoding: 109 109 75
Width: 903
GlyphClass: 2
Flags: W
LayerCount: 2
Fore
SplineSet
934 153 m 0,0,1
 908 100 908 100 882 64 c 128,-1,2
 856 28 856 28 840 15.5 c 128,-1,3
 824 3 824 3 814 3 c 0,4,5
 769 3 769 3 752 26 c 128,-1,6
 735 49 735 49 735 88 c 2,7,-1
 735 217 l 2,8,9
 735 271 735 271 703 298 c 0,10,11
 669 327 669 327 632 327 c 0,12,13
 583 327 583 327 546 284 c 0,14,15
 510 242 510 242 510 184 c 2,16,-1
 510 20 l 2,17,18
 510 3 510 3 492 3 c 128,-1,19
 474 3 474 3 474 22 c 2,20,-1
 474 215 l 2,21,22
 474 270 474 270 442 297 c 0,23,24
 408 326 408 326 369 326 c 0,25,26
 322 326 322 326 285 283 c 0,27,28
 249 241 249 241 249 182 c 2,29,-1
 249 19 l 2,30,31
 249 0 249 0 229 0 c 0,32,33
 212 0 212 0 212 19 c 2,34,-1
 212 233 l 2,35,36
 212 279 212 279 195 302 c 0,37,38
 177 326 177 326 160 326 c 0,39,40
 132 326 132 326 117 316 c 0,41,42
 101 306 101 306 94 291 c 2,43,-1
 33 170 l 1,44,45
 28 163 28 163 18 163 c 0,46,47
 10 163 10 163 5 169 c 0,48,49
 0 174 0 174 0 185 c 0,50,51
 0 192 0 192 3 197 c 2,52,-1
 67 318 l 2,53,54
 77 337 77 337 104 353 c 0,55,56
 127 366 127 366 161 366 c 0,57,58
 192 366 192 366 214 344 c 0,59,60
 240 318 240 318 244 285 c 1,61,62
 263 318 263 318 292 341 c 0,63,64
 323 366 323 366 369 366 c 0,65,66
 468 366 468 366 501 281 c 1,67,68
 518 318 518 318 547 340 c 0,69,70
 583 368 583 368 632 368 c 0,71,72
 696 368 696 368 733 330 c 0,73,74
 772 290 772 290 772 214 c 2,75,-1
 772 87 l 2,76,77
 772 42 772 42 806 42 c 0,78,79
 820 42 820 42 836 62 c 128,-1,80
 852 82 852 82 877 128 c 128,-1,81
 902 174 902 174 904 178 c 0,82,83
 908 184 908 184 913 184 c 0,84,85
 924 184 924 184 932 178 c 0,86,87
 937 174 937 174 937 163 c 0,88,89
 937 159 937 159 934 153 c 0,0,1
EndSplineSet
Validated: 1
EndChar

StartChar: n
Encoding: 110 110 76
Width: 686
GlyphClass: 2
Flags: W
LayerCount: 2
Fore
SplineSet
245 181 m 2,0,-1
 245 18 l 2,1,2
 245 0 245 0 227 0 c 0,3,4
 219 0 219 0 214 5 c 0,5,6
 208 13 208 13 208 19 c 2,7,-1
 208 232 l 2,8,9
 208 279 208 279 191 302 c 0,10,11
 173 326 173 326 155 326 c 0,12,13
 131 326 131 326 113 316 c 0,14,15
 100 309 100 309 90 291 c 1,16,-1
 30 167 l 1,17,18
 23 160 23 160 16 160 c 0,19,20
 10 160 10 160 4 166 c 0,21,22
 0 170 0 170 0 183 c 0,23,24
 0 188 0 188 3 194 c 2,25,-1
 61 317 l 1,26,27
 78 341 78 341 98 353 c 0,28,29
 121 366 121 366 158 366 c 0,30,31
 184 366 184 366 209 343 c 0,32,33
 236 318 236 318 240 285 c 1,34,35
 260 319 260 319 287 341 c 0,36,37
 318 366 318 366 365 366 c 0,38,39
 429 366 429 366 467 327 c 0,40,41
 506 286 506 286 506 212 c 2,42,-1
 506 87 l 2,43,44
 506 69 506 69 513 53 c 0,45,46
 519 40 519 40 536 40 c 0,47,48
 564 40 564 40 582 55 c 128,-1,49
 600 70 600 70 611 81 c 0,50,51
 635 105 635 105 649 131 c 2,52,-1
 681 187 l 1,53,54
 689 195 689 195 694 195 c 0,55,56
 698 195 698 195 707 189 c 1,57,58
 713 182 713 182 713 174 c 0,59,60
 713 169 713 169 710 163 c 2,61,-1
 682 112 l 2,62,63
 664 78 664 78 643 57 c 1,64,-1
 609 27 l 1,65,66
 568 0 568 0 535 0 c 0,67,68
 504 0 504 0 487 23 c 0,69,70
 469 48 469 48 469 87 c 2,71,-1
 469 215 l 2,72,73
 469 271 469 271 440 296 c 0,74,75
 406 325 406 325 366 325 c 0,76,77
 320 325 320 325 283 282 c 0,78,79
 245 238 245 238 245 181 c 2,0,-1
EndSplineSet
Validated: 1
EndChar

StartChar: o
Encoding: 111 111 77
Width: 424
GlyphClass: 2
Flags: W
LayerCount: 2
Fore
SplineSet
336 124 m 1,0,1
 317 74 317 74 270 37.5 c 128,-1,2
 223 1 223 1 162 1 c 0,3,4
 102 1 102 1 51 48 c 128,-1,5
 0 95 0 95 0 152 c 0,6,7
 0 154 0 154 0.5 156 c 128,-1,8
 1 158 1 158 1 160 c 2,9,-1
 5 215 l 1,10,-1
 10 237 l 1,11,-1
 23 272 l 1,12,13
 48 307 48 307 57.5 319 c 128,-1,14
 67 331 67 331 85.5 345.5 c 128,-1,15
 104 360 104 360 132 372 c 0,16,17
 161 384 161 384 194 384 c 0,18,19
 264 384 264 384 308 332.5 c 128,-1,20
 352 281 352 281 352 209 c 2,21,-1
 352 187 l 2,22,23
 352 184 352 184 350.5 178 c 128,-1,24
 349 172 349 172 348 168 c 2,25,-1
 347 164 l 1,26,27
 362 159 362 159 371 159 c 0,28,29
 385 159 385 159 397 165.5 c 128,-1,30
 409 172 409 172 417 180 c 128,-1,31
 425 188 425 188 428 189 c 0,32,33
 434 192 434 192 438 192 c 0,34,35
 446 192 446 192 451.5 186 c 128,-1,36
 457 180 457 180 457 172 c 0,37,38
 457 165 457 165 446.5 153.5 c 128,-1,39
 436 142 436 142 425 134 c 2,40,-1
 414 126 l 2,41,42
 404 119 404 119 380 119 c 1,43,-1
 336 124 l 1,0,1
295 135 m 1,44,45
 221 150 221 150 165.5 195.5 c 128,-1,46
 110 241 110 241 110 307 c 1,47,48
 83 291 83 291 63 253 c 128,-1,49
 43 215 43 215 43 175 c 0,50,51
 43 122 43 122 77.5 81.5 c 128,-1,52
 112 41 112 41 162 41 c 0,53,54
 207 41 207 41 241.5 68.5 c 128,-1,55
 276 96 276 96 295 135 c 1,44,45
306 175 m 1,56,57
 310 187 310 187 310 208 c 2,58,-1
 310 209 l 2,59,60
 310 265 310 265 278 304.5 c 128,-1,61
 246 344 246 344 192 344 c 0,62,63
 152 344 152 344 152 303 c 0,64,65
 152 254 152 254 200 220.5 c 128,-1,66
 248 187 248 187 306 175 c 1,56,57
EndSplineSet
Validated: 1
EndChar

StartChar: p
Encoding: 112 112 78
Width: 608
GlyphClass: 2
Flags: W
LayerCount: 2
Fore
SplineSet
288 362 m 0,0,1
 366 362 366 362 397 330 c 0,2,3
 431 295 431 295 431 228 c 2,4,-1
 431 79 l 2,5,6
 431 63 431 63 440 49 c 0,7,8
 448 36 448 36 466 36 c 0,9,10
 495 36 495 36 512 50 c 0,11,12
 530 64 530 64 544 84 c 2,13,-1
 613 187 l 1,14,15
 620 194 620 194 629 194 c 0,16,17
 633 194 633 194 643 189 c 0,18,19
 649 186 649 186 649 175 c 0,20,21
 649 170 649 170 646 164 c 2,22,-1
 574 59 l 2,23,24
 559 36 559 36 532 15 c 128,-1,25
 505 -6 505 -6 465 -6 c 0,26,27
 389 -6 389 -6 389 81 c 2,28,-1
 389 226 l 2,29,30
 389 274 389 274 368 294 c 0,31,32
 341 319 341 319 288 319 c 0,33,34
 244 319 244 319 220 305 c 128,-1,35
 196 291 196 291 184 249 c 0,36,37
 163 176 163 176 143 43 c 0,38,39
 142 30 142 30 140 5 c 0,40,41
 138 -27 138 -27 138 -41 c 2,42,-1
 138 -319 l 2,43,44
 138 -340 138 -340 120 -340 c 0,45,46
 110 -340 110 -340 105 -335 c 0,47,48
 98 -328 98 -328 98 -321 c 2,49,-1
 98 270 l 1,50,-1
 39 174 l 2,51,52
 34 166 34 166 21 166 c 0,53,54
 16 166 16 166 8 170 c 0,55,56
 2 173 2 173 2 185 c 0,57,58
 2 195 2 195 6 200 c 2,59,-1
 104 352 l 1,60,61
 113 361 113 361 127 356 c 1,62,63
 138 356 138 356 138 340 c 2,64,-1
 138 243 l 1,65,66
 151 290 151 290 192 333 c 0,67,68
 220 362 220 362 288 362 c 0,0,1
EndSplineSet
Validated: 1
EndChar

StartChar: q
Encoding: 113 113 79
Width: 434
GlyphClass: 2
Flags: W
LayerCount: 2
Fore
SplineSet
159 33 m 0,0,1
 218 33 218 33 262.5 82.5 c 128,-1,2
 307 132 307 132 307 193 c 0,3,4
 307 247 307 247 269 284.5 c 128,-1,5
 231 322 231 322 176 322 c 0,6,7
 117 322 117 322 75 273.5 c 128,-1,8
 33 225 33 225 33 164 c 0,9,10
 33 110 33 110 69 71.5 c 128,-1,11
 105 33 105 33 159 33 c 0,0,1
-10 176 m 1,12,13
 2 267 2 267 52.5 314.5 c 128,-1,14
 103 362 103 362 171 362 c 0,15,16
 235 362 235 362 293 321 c 1,17,-1
 316 298 l 1,18,19
 340 266 340 266 343 247 c 1,20,-1
 343 85 l 1,21,-1
 435 187 l 1,22,23
 441 197 441 197 451 197 c 0,24,25
 459 197 459 197 466.5 190.5 c 128,-1,26
 474 184 474 184 474 176 c 0,27,28
 474 169 474 169 469 164 c 2,29,-1
 343 19 l 1,30,-1
 343 -28 l 1,31,-1
 374 -28 l 2,32,33
 375 -28 375 -28 376 -28 c 2,34,-1
 378 -27 l 1,35,36
 394 -27 394 -27 394 -46 c 0,37,38
 394 -67 394 -67 377 -67 c 2,39,-1
 374 -67 l 1,40,-1
 343 -67 l 1,41,-1
 343 -319 l 1,42,43
 344 -329 344 -329 338 -334.5 c 128,-1,44
 332 -340 332 -340 323 -340 c 0,45,46
 313 -340 313 -340 307 -334 c 128,-1,47
 301 -328 301 -328 302 -319 c 1,48,-1
 302 -67 l 1,49,-1
 263 -67 l 1,50,-1
 259 -67 l 2,51,52
 243 -67 243 -67 243 -47 c 128,-1,53
 243 -27 243 -27 259 -27 c 0,54,55
 260 -27 260 -27 261 -27.5 c 128,-1,56
 262 -28 262 -28 263 -28 c 2,57,-1
 302 -28 l 1,58,-1
 302 70 l 1,59,60
 263 -6 263 -6 168 -6 c 0,61,62
 98 -6 98 -6 43 38.5 c 128,-1,63
 -12 83 -12 83 -12 153 c 0,64,65
 -12 154 -12 154 -11.5 157 c 128,-1,66
 -11 160 -11 160 -11 162 c 2,67,-1
 -10 176 l 1,12,13
EndSplineSet
Validated: 1
EndChar

StartChar: r
Encoding: 114 114 80
Width: 458
GlyphClass: 2
Flags: W
LayerCount: 2
Fore
SplineSet
295 319 m 0,0,1
 235 306 235 306 225 306 c 0,2,3
 200 306 200 306 167.5 312.5 c 128,-1,4
 135 319 135 319 132 319 c 1,5,-1
 131 318 l 2,6,7
 130 318 130 318 129 318 c 0,8,9
 125 318 125 318 121.5 315.5 c 128,-1,10
 118 313 118 313 116.5 311 c 128,-1,11
 115 309 115 309 112.5 305.5 c 128,-1,12
 110 302 110 302 110 301 c 2,13,-1
 37 173 l 2,14,15
 32 166 32 166 22 163 c 0,16,17
 10 159 10 159 4 164 c 0,18,19
 -2 170 -2 170 -2 180 c 0,20,21
 -2 186 -2 186 2 194 c 2,22,-1
 74 312 l 1,23,24
 93 341 93 341 110 356 c 0,25,26
 110 357 110 357 112 357 c 0,27,28
 113 357 113 357 152 350.5 c 128,-1,29
 191 344 191 344 223 344 c 0,30,31
 258 344 258 344 324 360 c 1,32,-1
 325 360 l 1,33,34
 326 361 326 361 327 361 c 0,35,36
 330 361 330 361 344 350 c 0,37,38
 351 344 351 344 351 337 c 0,39,40
 351 335 351 335 345 315 c 0,41,42
 343 310 343 310 337 296 c 128,-1,43
 331 282 331 282 321.5 263.5 c 128,-1,44
 312 245 312 245 298 221 c 0,45,46
 251 142 251 142 251 100 c 0,47,48
 251 74 251 74 264 58 c 0,49,50
 278 41 278 41 298 41 c 0,51,52
 339 41 339 41 367 61 c 0,53,54
 386 75 386 75 410 100 c 1,55,-1
 457 171 l 2,56,57
 464 180 464 180 475 180 c 0,58,59
 481 180 481 180 487 176 c 1,60,61
 495 168 495 168 495 159 c 0,62,63
 495 158 495 158 490 148 c 1,64,-1
 443 76 l 2,65,66
 425 48 425 48 386 25 c 0,67,68
 344 0 344 0 298 0 c 0,69,70
 258 0 258 0 234 28 c 0,71,72
 209 58 209 58 209 99 c 0,73,74
 209 157 209 157 239 204 c 1,75,-1
 304 310 l 1,76,77
 307 321 307 321 295 319 c 0,0,1
EndSplineSet
Validated: 1
EndChar

StartChar: s
Encoding: 115 115 81
Width: 344
GlyphClass: 2
Flags: W
LayerCount: 2
Fore
SplineSet
179 339 m 0,0,1
 193 324 193 324 212.5 301.5 c 128,-1,2
 232 279 232 279 246 263 c 128,-1,3
 260 247 260 247 266 241 c 0,4,5
 275 232 275 232 283.5 211 c 128,-1,6
 292 190 292 190 292 180 c 2,7,-1
 292 177 l 1,8,-1
 292 135 l 1,9,10
 293 139 293 139 322 170.5 c 128,-1,11
 351 202 351 202 357 202 c 128,-1,12
 363 202 363 202 372 196 c 0,13,14
 378 193 378 193 378 186 c 0,15,16
 378 184 378 184 374 174 c 1,17,-1
 248 31 l 1,18,19
 218 9 218 9 198.5 4.5 c 128,-1,20
 179 0 179 0 138 0 c 0,21,22
 96 0 96 0 67 17 c 0,23,24
 34 36 34 36 27 48 c 0,25,26
 16 66 16 66 16 72 c 0,27,28
 16 79 16 79 25 86 c 0,29,30
 32 91 32 91 38 91 c 0,31,32
 48 91 48 91 53 83 c 1,33,34
 80 52 80 52 87 49 c 0,35,36
 105 41 105 41 138 41 c 0,37,38
 203 41 203 41 225 67 c 0,39,40
 249 96 249 96 249 159 c 0,41,42
 249 194 249 194 216 233 c 2,43,-1
 165 292 l 2,44,45
 158 299 158 299 147 311 c 128,-1,46
 136 323 136 323 129 330 c 1,47,-1
 35 170 l 2,48,49
 31 163 31 163 19 163 c 0,50,51
 12 163 12 163 8 166 c 0,52,53
 0 171 0 171 0 182 c 0,54,55
 0 191 0 191 3 195 c 2,56,-1
 111 371 l 1,57,58
 120 381 120 381 130 381 c 0,59,60
 133 381 133 381 141 379 c 1,61,62
 146 376 146 376 179 339 c 0,0,1
EndSplineSet
Validated: 1
EndChar

StartChar: t
Encoding: 116 116 82
Width: 259
GlyphClass: 2
Flags: W
LayerCount: 2
Fore
SplineSet
5 660 m 2,0,1
 5 679 5 679 23 679 c 0,2,3
 45 679 45 679 45 660 c 2,4,-1
 45 598 l 1,5,-1
 171 598 l 2,6,7
 181 598 181 598 188.5 589.5 c 128,-1,8
 196 581 196 581 196 571 c 0,9,10
 196 555 196 555 173 555 c 2,11,-1
 45 556 l 1,12,-1
 45 81 l 1,13,14
 47 53 47 53 60 47 c 1,15,16
 73 36 73 36 96 36 c 0,17,18
 100 36 100 36 105.5 36.5 c 128,-1,19
 111 37 111 37 113 37 c 0,20,21
 125 37 125 37 147 43 c 128,-1,22
 169 49 169 49 180 57 c 0,23,24
 206 76 206 76 217 96 c 2,25,-1
 265 182 l 2,26,27
 270 191 270 191 281 191 c 0,28,29
 285 191 285 191 294 184 c 0,30,31
 301 179 301 179 301 168 c 1,32,-1
 297 160 l 1,33,-1
 247 66 l 1,34,35
 226 39 226 39 194 18 c 0,36,37
 166 0 166 0 113 0 c 0,38,39
 59 0 59 0 25 24 c 0,40,41
 5 38 5 38 5 79 c 2,42,-1
 5 81 l 1,43,-1
 7 340 l 1,44,-1
 5 556 l 1,45,-1
 -11 555 l 1,46,47
 -28 561 -28 561 -28 575 c 0,48,49
 -28 582 -28 582 -22.5 589.5 c 128,-1,50
 -17 597 -17 597 -11 597 c 2,51,-1
 5 598 l 1,52,-1
 5 660 l 2,0,1
EndSplineSet
Validated: 1
EndChar

StartChar: u
Encoding: 117 117 83
Width: 514
GlyphClass: 2
Flags: W
LayerCount: 2
Fore
SplineSet
0 355 m 1,0,1
 8 369 8 369 25 369 c 0,2,3
 33 369 33 369 38 365.5 c 128,-1,4
 43 362 43 362 42 356 c 1,5,-1
 43 151 l 2,6,7
 43 92 43 92 74 69 c 0,8,9
 113 40 113 40 158 40 c 0,10,11
 212 40 212 40 251 84 c 128,-1,12
 290 128 290 128 290 184 c 2,13,-1
 290 347 l 2,14,15
 290 366 290 366 312 366 c 0,16,17
 320 366 320 366 326 360 c 128,-1,18
 332 354 332 354 332 346 c 2,19,-1
 332 131 l 2,20,21
 332 82 332 82 351 62 c 0,22,23
 371 40 371 40 392 40 c 0,24,25
 421 40 421 40 431 48 c 0,26,27
 444 59 444 59 458 81 c 2,28,-1
 505 153 l 2,29,30
 514 165 514 165 524 165 c 0,31,32
 532 165 532 165 538.5 159.5 c 128,-1,33
 545 154 545 154 545 146 c 0,34,35
 545 137 545 137 542 134 c 1,36,-1
 494 55 l 1,37,38
 463 0 463 0 388 0 c 0,39,40
 354 0 354 0 327.5 24.5 c 128,-1,41
 301 49 301 49 296 81 c 1,42,43
 241 0 241 0 158 0 c 0,44,45
 85 0 85 0 43.5 41 c 128,-1,46
 2 82 2 82 1 154 c 2,47,-1
 0 355 l 1,0,1
EndSplineSet
Validated: 1
EndChar

StartChar: v
Encoding: 118 118 84
Width: 328
GlyphClass: 2
Flags: W
LayerCount: 2
Fore
SplineSet
188 290 m 0,0,1
 188 300 188 300 195 305.5 c 128,-1,2
 202 311 202 311 211 311 c 0,3,4
 224 311 224 311 229.5 294 c 128,-1,5
 235 277 235 277 236.5 254.5 c 128,-1,6
 238 232 238 232 239 229 c 0,7,8
 240 228 240 228 245 215 c 128,-1,9
 250 202 250 202 255.5 190 c 128,-1,10
 261 178 261 178 269 167 c 128,-1,11
 277 156 277 156 284 156 c 0,12,13
 293 156 293 156 313.5 173.5 c 128,-1,14
 334 191 334 191 336 191 c 0,15,16
 343 191 343 191 350 184.5 c 128,-1,17
 357 178 357 178 357 168 c 0,18,19
 357 162 357 162 353.5 157 c 128,-1,20
 350 152 350 152 346.5 149.5 c 128,-1,21
 343 147 343 147 333.5 140.5 c 128,-1,22
 324 134 324 134 319 130 c 0,23,24
 297 114 297 114 281 114 c 0,25,26
 274 114 274 114 265 122.5 c 128,-1,27
 256 131 256 131 245.5 144 c 128,-1,28
 235 157 235 157 234 158 c 1,29,30
 232 153 232 153 226.5 138 c 128,-1,31
 221 123 221 123 218 115.5 c 128,-1,32
 215 108 215 108 209.5 95.5 c 128,-1,33
 204 83 204 83 197 73 c 128,-1,34
 190 63 190 63 182 53 c 0,35,36
 135 -2 135 -2 96 -2 c 0,37,38
 88 -2 88 -2 81 0 c 128,-1,39
 74 2 74 2 67.5 5.5 c 128,-1,40
 61 9 61 9 56.5 12 c 128,-1,41
 52 15 52 15 47 20.5 c 128,-1,42
 42 26 42 26 39.5 28.5 c 128,-1,43
 37 31 37 31 34 36 c 2,44,-1
 30 41 l 2,45,46
 18 56 18 56 10 122.5 c 128,-1,47
 2 189 2 189 0 226 c 2,48,-1
 -4 281 l 2,49,50
 -6 308 -6 308 -11 321 c 1,51,-1
 -11 322 l 2,52,53
 -11 324 -11 324 -13.5 334 c 128,-1,54
 -16 344 -16 344 -16 348 c 0,55,56
 -16 361 -16 361 -3 361 c 0,57,58
 6 361 6 361 17 348 c 1,59,60
 36 329 36 329 36 287 c 0,61,62
 36 286 36 286 35 276.5 c 128,-1,63
 34 267 34 267 33.5 253.5 c 128,-1,64
 33 240 33 240 33 227 c 0,65,66
 33 155 33 155 45.5 99.5 c 128,-1,67
 58 44 58 44 88 44 c 2,68,-1
 90 44 l 1,69,-1
 94 44 l 1,70,71
 134 52 134 52 166.5 89.5 c 128,-1,72
 199 127 199 127 199 206 c 0,73,74
 199 240 199 240 189 283 c 0,75,76
 188 285 188 285 188 290 c 0,0,1
EndSplineSet
Validated: 1
EndChar

StartChar: w
Encoding: 119 119 85
Width: 569
GlyphClass: 2
Flags: W
LayerCount: 2
Fore
SplineSet
5 342 m 0,0,1
 20 347 20 347 21 347 c 128,-1,2
 22 347 22 347 34 341 c 0,3,4
 53 330 53 330 53 286 c 2,5,-1
 53 110 l 2,6,7
 53 81 53 81 75 59 c 0,8,9
 94 40 94 40 130 40 c 0,10,11
 174 40 174 40 208 88 c 0,12,13
 242 135 242 135 242 188 c 2,14,-1
 242 314 l 2,15,16
 242 333 242 333 262 333 c 0,17,18
 271 333 271 333 274 329 c 0,19,20
 275 328 275 328 277 323 c 128,-1,21
 279 318 279 318 280 316 c 1,22,-1
 280 109 l 2,23,24
 280 81 280 81 302 59 c 0,25,26
 321 40 321 40 356 40 c 0,27,28
 402 40 402 40 436 87 c 128,-1,29
 470 134 470 134 470 186 c 0,30,31
 470 200 470 200 463 238 c 0,32,33
 459 261 459 261 449 283 c 0,34,35
 443 296 443 296 443 304 c 0,36,37
 443 314 443 314 451 319 c 1,38,39
 457 325 457 325 464 325 c 128,-1,40
 471 325 471 325 480 316 c 1,41,42
 492 294 492 294 498 269 c 0,43,44
 507 229 507 229 507 226 c 0,45,46
 514 189 514 189 523 172 c 0,47,48
 528 162 528 162 543 162 c 0,49,50
 548 162 548 162 551 165 c 2,51,-1
 558 172 l 1,52,-1
 574 194 l 2,53,54
 578 200 578 200 592 200 c 0,55,56
 597 200 597 200 603 197 c 1,57,58
 610 191 610 191 610 180 c 0,59,60
 610 172 610 172 608 168 c 2,61,-1
 593 148 l 1,62,63
 586 135 586 135 571 127 c 0,64,65
 558 120 558 120 541 120 c 0,66,67
 532 120 532 120 522 124 c 0,68,69
 521 124 521 124 513.5 126.5 c 128,-1,70
 506 129 506 129 503 131 c 1,71,72
 486 68 486 68 448 34 c 128,-1,73
 410 0 410 0 357 0 c 0,74,75
 318 0 318 0 280 25 c 0,76,77
 247 47 247 47 247 83 c 1,78,79
 244 56 244 56 203 28 c 0,80,81
 163 0 163 0 130 0 c 0,82,83
 83 0 83 0 47 30 c 0,84,85
 15 56 15 56 15 109 c 2,86,-1
 15 284 l 2,87,88
 15 292 15 292 5 308 c 0,89,90
 0 315 0 315 0 329 c 0,91,92
 0 341 0 341 5 342 c 0,0,1
EndSplineSet
Validated: 1
EndChar

StartChar: x
Encoding: 120 120 86
Width: 604
GlyphClass: 2
Flags: W
LayerCount: 2
Fore
SplineSet
21 163 m 128,-1,1
 12 163 12 163 6 169.5 c 128,-1,2
 0 176 0 176 0 184 c 0,3,4
 0 191 0 191 4 195 c 1,5,-1
 5 200 l 1,6,7
 14 210 14 210 33 237.5 c 128,-1,8
 52 265 52 265 59 272 c 0,9,10
 61 275 61 275 74.5 290.5 c 128,-1,11
 88 306 88 306 95.5 313.5 c 128,-1,12
 103 321 103 321 117.5 332.5 c 128,-1,13
 132 344 132 344 149.5 351 c 128,-1,14
 167 358 167 358 187 361 c 0,15,16
 191 362 191 362 198 362 c 0,17,18
 225 362 225 362 258 338 c 0,19,20
 292 313 292 313 311 273 c 1,21,22
 359 361 359 361 454 361 c 0,23,24
 488 361 488 361 518 345.5 c 128,-1,25
 548 330 548 330 560 309 c 0,26,27
 571 289 571 289 571 286 c 0,28,29
 571 266 571 266 549 266 c 0,30,31
 540 266 540 266 536 270 c 0,32,33
 515 297 515 297 499 308 c 0,34,35
 478 322 478 322 455 322 c 0,36,37
 399 322 399 322 363.5 274 c 128,-1,38
 328 226 328 226 328 165 c 0,39,40
 328 117 328 117 355.5 79 c 128,-1,41
 383 41 383 41 426 41 c 0,42,43
 454 41 454 41 480 57 c 0,44,45
 489 63 489 63 517 93 c 2,46,-1
 598 180 l 2,47,48
 606 188 606 188 615 188 c 0,49,50
 635 188 635 188 635 167 c 1,51,-1
 633 156 l 1,52,-1
 554 74 l 2,53,54
 551 71 551 71 538.5 57.5 c 128,-1,55
 526 44 526 44 517 36 c 128,-1,56
 508 28 508 28 497 22 c 0,57,58
 461 1 461 1 426 1 c 0,59,60
 383 1 383 1 349.5 28 c 128,-1,61
 316 55 316 55 298 93 c 1,62,63
 278 55 278 55 241.5 28 c 128,-1,64
 205 1 205 1 158 1 c 0,65,66
 87 1 87 1 64 35 c 0,67,68
 39 72 39 72 39 75 c 0,69,70
 39 80 39 80 47 92 c 1,71,72
 51 96 51 96 63 96 c 0,73,74
 69 96 69 96 82 82 c 0,75,76
 117 41 117 41 158 41 c 0,77,78
 209 41 209 41 246.5 88 c 128,-1,79
 284 135 284 135 284 189 c 0,80,81
 284 241 284 241 257 282 c 0,82,83
 234 318 234 318 202 318 c 0,84,85
 182 318 182 318 161.5 306.5 c 128,-1,86
 141 295 141 295 129.5 283.5 c 128,-1,87
 118 272 118 272 104 254 c 2,88,-1
 90 237 l 2,89,90
 85 232 85 232 65 206 c 128,-1,91
 45 180 45 180 38 173 c 1,92,0
 30 163 30 163 21 163 c 128,-1,1
EndSplineSet
Validated: 1
EndChar

StartChar: y
Encoding: 121 121 87
Width: 475
GlyphClass: 2
Flags: W
LayerCount: 2
Fore
SplineSet
252 39 m 0,0,1
 256 38 256 38 263 38 c 0,2,3
 286 38 286 38 305 60.5 c 128,-1,4
 324 83 324 83 332 106 c 0,5,6
 340 132 340 132 342.5 143.5 c 128,-1,7
 345 155 345 155 345 172 c 128,-1,8
 345 189 345 189 347 205 c 2,9,-1
 359 340 l 2,10,11
 360 360 360 360 381 360 c 0,12,13
 401 360 401 360 401 340 c 2,14,-1
 401 72 l 1,15,-1
 469 190 l 2,16,17
 475 200 475 200 490 200 c 0,18,19
 491 200 491 200 499 194 c 0,20,21
 506 189 506 189 506 181 c 2,22,-1
 506 170 l 1,23,-1
 399 -4 l 1,24,-1
 399 -205 l 2,25,26
 399 -264 399 -264 382 -301 c 0,27,28
 364 -339 364 -339 317 -339 c 0,29,30
 276 -339 276 -339 253 -315 c 0,31,32
 230 -290 230 -290 230 -249 c 0,33,34
 230 -202 230 -202 251 -157 c 0,35,36
 275 -108 275 -108 306 -62 c 1,37,-1
 359 11 l 1,38,-1
 361 78 l 1,39,40
 347 48 347 48 317 24.5 c 128,-1,41
 287 1 287 1 267 0 c 1,42,43
 246 0 246 0 234 2 c 128,-1,44
 222 4 222 4 199 18 c 128,-1,45
 176 32 176 32 151 60 c 1,46,47
 121 111 121 111 108 158 c 1,48,-1
 80 283 l 1,49,-1
 25 170 l 1,50,51
 20 163 20 163 8 163 c 0,52,53
 3 163 3 163 -5 169 c 0,54,55
 -12 174 -12 174 -12 184 c 0,56,57
 -12 189 -12 189 -8 195 c 2,58,-1
 70 348 l 2,59,60
 75 357 75 357 95 357 c 0,61,62
 106 357 106 357 110 339 c 2,63,-1
 160 157 l 1,64,65
 190 55 190 55 252 39 c 0,0,1
272 -249 m 0,66,67
 272 -270 272 -270 281 -286 c 0,68,69
 288 -299 288 -299 317 -299 c 0,70,71
 341 -299 341 -299 349 -270 c 0,72,73
 359 -234 359 -234 359 -202 c 2,74,-1
 359 -61 l 1,75,-1
 341 -86 l 1,76,77
 272 -187 272 -187 272 -249 c 0,66,67
EndSplineSet
Validated: 1
EndChar

StartChar: z
Encoding: 122 122 88
Width: 471
GlyphClass: 2
Flags: W
LayerCount: 2
Fore
SplineSet
243 239 m 1,0,-1
 308 312 l 1,1,-1
 111 314 l 1,2,-1
 39 169 l 2,3,4
 35 159 35 159 22 159 c 0,5,6
 13 159 13 159 6.5 164 c 128,-1,7
 0 169 0 169 0 178 c 1,8,-1
 1 179 l 1,9,10
 1 187 1 187 5 193 c 2,11,-1
 84 348 l 1,12,13
 84 360 84 360 97 360 c 1,14,-1
 98 359 l 1,15,-1
 111 359 l 2,16,17
 113 359 113 359 118 359.5 c 128,-1,18
 123 360 123 360 126 360 c 0,19,20
 131 360 131 360 146 359.5 c 128,-1,21
 161 359 161 359 171 359 c 2,22,-1
 278 359 l 2,23,24
 340 359 340 359 357 360 c 0,25,26
 369 360 369 360 376.5 354 c 128,-1,27
 384 348 384 348 384 339 c 0,28,29
 384 335 384 335 379 328 c 2,30,-1
 289 224 l 1,31,-1
 308 224 l 2,32,33
 337 224 337 224 337 202 c 0,34,35
 337 178 337 178 313 178 c 2,36,-1
 300 178 l 1,37,-1
 247 177 l 1,38,-1
 236 167 l 1,39,-1
 128 44 l 1,40,41
 144 42 144 42 244 42 c 2,42,-1
 330 42 l 2,43,44
 363 42 363 42 377 52 c 0,45,46
 407 76 407 76 421 98 c 2,47,-1
 468 175 l 1,48,49
 474 182 474 182 482 182 c 0,50,51
 491 182 491 182 499 176 c 128,-1,52
 507 170 507 170 509 162 c 0,53,54
 509 160 509 160 505 152 c 2,55,-1
 458 77 l 2,56,57
 410 0 410 0 322 0 c 2,58,-1
 307 0 l 2,59,60
 277 0 277 0 195.5 1 c 128,-1,61
 114 2 114 2 83 2 c 0,62,63
 56 2 56 2 56 19 c 0,64,65
 56 21 56 21 57.5 25.5 c 128,-1,66
 59 30 59 30 59 32 c 1,67,-1
 190 178 l 1,68,-1
 178 178 l 2,69,70
 148 178 148 178 148 201 c 128,-1,71
 148 224 148 224 178 224 c 2,72,-1
 230 224 l 1,73,-1
 243 239 l 1,0,-1
EndSplineSet
Validated: 1
EndChar

StartChar: braceleft
Encoding: 123 123 89
Width: 199
GlyphClass: 2
Flags: W
LayerCount: 2
Fore
SplineSet
157 608 m 0,0,1
 166 603 166 603 166 592 c 0,2,3
 166 588 166 588 137 548 c 0,4,5
 108 509 108 509 86 445 c 0,6,7
 71 400 71 400 66 335 c 0,8,9
 66 329 66 329 54.5 310 c 128,-1,10
 43 291 43 291 43 284 c 0,11,12
 43 273 43 273 54.5 258.5 c 128,-1,13
 66 244 66 244 67 236 c 0,14,15
 72 182 72 182 86 140 c 0,16,17
 109 75 109 75 163 3 c 1,18,19
 167 -5 167 -5 167 -9 c 128,-1,20
 167 -13 167 -13 162 -20 c 128,-1,21
 157 -27 157 -27 148 -27 c 0,22,23
 138 -27 138 -27 104 15 c 0,24,25
 70 56 70 56 47 127 c 0,26,27
 31 175 31 175 26 236 c 0,28,29
 26 245 26 245 8 262 c 128,-1,30
 -10 279 -10 279 -10 289 c 0,31,32
 -10 297 -10 297 7.5 313.5 c 128,-1,33
 25 330 25 330 25 337 c 0,34,35
 28 402 28 402 46 458 c 1,36,37
 69 525 69 525 128 605 c 1,38,39
 134 611 134 611 144 611 c 0,40,41
 151 611 151 611 157 608 c 0,0,1
EndSplineSet
Validated: 1
EndChar

StartChar: bar
Encoding: 124 124 90
Width: 322
GlyphClass: 2
Flags: W
LayerCount: 2
Fore
SplineSet
123 474 m 0,0,1
 143 474 143 474 143 462 c 2,2,-1
 143 4 l 2,3,4
 143 -9 143 -9 123 -9 c 0,5,6
 101 -9 101 -9 101 4 c 2,7,-1
 101 462 l 2,8,9
 101 474 101 474 123 474 c 0,0,1
EndSplineSet
Validated: 1
EndChar

StartChar: braceright
Encoding: 125 125 91
Width: 196
GlyphClass: 2
Flags: W
LayerCount: 2
Fore
SplineSet
21 616 m 0,0,1
 29 620 29 620 34 620 c 0,2,3
 43 620 43 620 50 613 c 1,4,5
 111 531 111 531 133 466 c 0,6,7
 150 413 150 413 153 345 c 0,8,9
 153 338 153 338 171 321.5 c 128,-1,10
 189 305 189 305 189 297 c 0,11,12
 189 287 189 287 170.5 270 c 128,-1,13
 152 253 152 253 152 244 c 0,14,15
 147 179 147 179 132 135 c 0,16,17
 110 66 110 66 75 24 c 256,18,19
 40 -18 40 -18 30 -18 c 0,20,21
 22 -18 22 -18 17 -12 c 0,22,23
 11 -4 11 -4 11 -1 c 0,24,25
 11 3 11 3 15 11 c 1,26,27
 69 83 69 83 92 148 c 0,28,29
 106 190 106 190 111 244 c 0,30,31
 112 252 112 252 123.5 266.5 c 128,-1,32
 135 281 135 281 135 292 c 0,33,34
 135 299 135 299 123.5 318 c 128,-1,35
 112 337 112 337 112 343 c 0,36,37
 107 410 107 410 92 454 c 0,38,39
 71 516 71 516 41 556 c 0,40,41
 12 596 12 596 12 600 c 0,42,43
 12 611 12 611 21 616 c 0,0,1
EndSplineSet
Validated: 1
EndChar

StartChar: exclamdown
Encoding: 161 161 93
Width: 329
GlyphClass: 2
Flags: W
LayerCount: 2
Fore
SplineSet
162 -44 m 128,-1,1
 142 -44 142 -44 142 -26 c 2,2,-1
 142 481 l 2,3,4
 142 501 142 501 162 501 c 128,-1,5
 182 501 182 501 182 481 c 2,6,-1
 182 -26 l 2,7,0
 182 -44 182 -44 162 -44 c 128,-1,1
162 544 m 128,-1,9
 145 544 145 544 136 553 c 0,10,11
 126 563 126 563 126 578 c 0,12,13
 126 592 126 592 136 602 c 128,-1,14
 146 612 146 612 162 612 c 0,15,16
 177 612 177 612 187 602 c 0,17,18
 196 593 196 593 196 578 c 0,19,20
 196 561 196 561 188 553 c 0,21,8
 179 544 179 544 162 544 c 128,-1,9
EndSplineSet
Validated: 1
EndChar

StartChar: ordfeminine
Encoding: 170 170 94
Width: 350
GlyphClass: 2
Flags: W
LayerCount: 2
Fore
SplineSet
12 496 m 0,0,1
 9 498 9 498 9 502 c 0,2,3
 9 505 9 505 11 507 c 2,4,-1
 44 555 l 2,5,6
 56 571 56 571 67 577 c 0,7,8
 83 585 83 585 102 585 c 0,9,10
 113 585 113 585 129 579 c 0,11,12
 138 575 138 575 150 562 c 1,13,-1
 150 561 l 1,14,15
 152 561 152 561 157 549 c 0,16,17
 160 543 160 543 160 539 c 2,18,-1
 166 474 l 2,19,20
 168 458 168 458 175 458 c 128,-1,21
 182 458 182 458 189 464 c 0,22,23
 198 471 198 471 201 476 c 2,24,-1
 228 514 l 1,25,26
 234 520 234 520 239 516 c 1,27,-1
 241 515 l 1,28,29
 244 512 244 512 244 509 c 0,30,31
 244 508 244 508 242 506 c 2,32,-1
 215 467 l 2,33,34
 208 457 208 457 197 450 c 128,-1,35
 186 443 186 443 174 443 c 128,-1,36
 162 443 162 443 156 451 c 0,37,38
 150 458 150 458 150 471 c 1,39,40
 141 459 141 459 125 451 c 128,-1,41
 109 443 109 443 93 443 c 0,42,43
 66 443 66 443 47 463 c 128,-1,44
 28 483 28 483 28 510 c 1,45,46
 28 504 28 504 27 502 c 128,-1,47
 26 500 26 500 23 497 c 0,48,49
 21 495 21 495 16 495 c 0,50,51
 13 495 13 495 12 496 c 0,0,1
94 459 m 0,52,53
 116 459 116 459 132 477 c 0,54,55
 150 497 150 497 150 519 c 0,56,57
 150 542 150 542 135 555 c 0,58,59
 119 569 119 569 100 569 c 0,60,61
 76 569 76 569 60 551 c 0,62,63
 45 535 45 535 45 508 c 0,64,65
 45 487 45 487 59 473 c 128,-1,66
 73 459 73 459 94 459 c 0,52,53
EndSplineSet
Validated: 1
EndChar

StartChar: degree
Encoding: 176 176 95
Width: 269
GlyphClass: 2
Flags: W
LayerCount: 2
Fore
SplineSet
205 512 m 128,-1,1
 205 478 205 478 182 456 c 0,2,3
 157 433 157 433 104 433 c 128,-1,4
 51 433 51 433 28 456 c 0,5,6
 4 480 4 480 4 512 c 128,-1,7
 4 544 4 544 28 568 c 0,8,9
 51 591 51 591 104 591 c 128,-1,10
 157 591 157 591 182 568 c 0,11,0
 205 546 205 546 205 512 c 128,-1,1
104 442 m 0,12,13
 149 442 149 442 169 462 c 0,14,15
 188 481 188 481 188 512 c 128,-1,16
 188 543 188 543 169 562 c 0,17,18
 149 582 149 582 104 582 c 0,19,20
 61 582 61 582 41 562 c 0,21,22
 22 543 22 543 22 512 c 0,23,24
 22 480 22 480 40 462 c 0,25,26
 60 442 60 442 104 442 c 0,12,13
EndSplineSet
Validated: 1
EndChar

StartChar: uni00B2
Encoding: 178 178 96
Width: 288
GlyphClass: 2
Flags: W
LayerCount: 2
Fore
SplineSet
146 555 m 0,0,1
 146 542 146 542 143 536 c 0,2,3
 139 528 139 528 131 520 c 2,4,-1
 29 411 l 1,5,-1
 138 411 l 2,6,7
 145 411 145 411 145 404 c 128,-1,8
 145 397 145 397 138 397 c 2,9,-1
 13 397 l 2,10,11
 8 397 8 397 7 400 c 0,12,13
 5 404 5 404 5 405 c 0,14,15
 5 407 5 407 8 410 c 2,16,-1
 120 528 l 2,17,18
 131 540 131 540 131 555 c 0,19,20
 131 578 131 578 116 592 c 0,21,22
 100 606 100 606 78 606 c 0,23,24
 60 606 60 606 43 594 c 0,25,26
 27 582 27 582 24 560 c 1,27,28
 20 556 20 556 15 556 c 128,-1,29
 10 556 10 556 10 562 c 0,30,31
 13 588 13 588 34 603 c 0,32,33
 56 619 56 619 78 619 c 0,34,35
 108 619 108 619 127 601 c 128,-1,36
 146 583 146 583 146 555 c 0,0,1
EndSplineSet
Validated: 1
EndChar

StartChar: uni00B3
Encoding: 179 179 97
Width: 399
GlyphClass: 2
Flags: W
LayerCount: 2
Fore
SplineSet
154 554 m 0,0,1
 154 539 154 539 146 528 c 0,2,3
 139 519 139 519 122 510 c 1,4,5
 141 502 141 502 149 490 c 0,6,7
 159 475 159 475 159 460 c 0,8,9
 159 434 159 434 138 418 c 0,10,11
 116 401 116 401 90 401 c 0,12,13
 45 401 45 401 27 439 c 1,14,15
 27 445 27 445 31 447 c 0,16,17
 35 448 35 448 38 444.5 c 128,-1,18
 41 441 41 441 45 432 c 0,19,20
 53 413 53 413 90 413 c 0,21,22
 113 413 113 413 129 426 c 0,23,24
 146 440 146 440 146 460 c 0,25,26
 146 477 146 477 130 491 c 128,-1,27
 114 505 114 505 95 505 c 2,28,-1
 78 505 l 2,29,30
 72 505 72 505 72 511 c 128,-1,31
 72 517 72 517 78 517 c 2,32,-1
 95 517 l 2,33,34
 114 517 114 517 127 527 c 128,-1,35
 140 537 140 537 140 554 c 0,36,37
 140 570 140 570 125 580 c 0,38,39
 109 591 109 591 89 591 c 0,40,41
 74 591 74 591 63 585 c 0,42,43
 53 579 53 579 45 568 c 1,44,45
 41 566 41 566 40 566 c 2,46,-1
 38 566 l 1,47,48
 37 567 37 567 36 567 c 0,49,50
 33 568 33 568 33 572 c 0,51,52
 33 573 33 573 35 575 c 0,53,54
 43 588 43 588 57 595 c 0,55,56
 73 603 73 603 89 603 c 0,57,58
 115 603 115 603 135 589 c 0,59,60
 154 576 154 576 154 554 c 0,0,1
EndSplineSet
Validated: 1
EndChar

StartChar: acute
Encoding: 180 180 98
Width: 415
GlyphClass: 2
Flags: W
LayerCount: 2
Fore
SplineSet
239 498 m 0,0,1
 250 492 250 492 250 481 c 0,2,3
 250 479 250 479 248 473 c 1,4,-1
 192 399 l 2,5,6
 187 391 187 391 177 391 c 0,7,8
 169 391 169 391 165 395 c 1,9,10
 158 399 158 399 158 410 c 0,11,12
 158 415 158 415 161 421 c 2,13,-1
 212 494 l 1,14,15
 219 501 219 501 230 501 c 0,16,17
 233 501 233 501 239 498 c 0,0,1
EndSplineSet
Validated: 1
EndChar

StartChar: uni00B9
Encoding: 185 185 99
Width: 266
GlyphClass: 2
Flags: W
LayerCount: 2
Fore
SplineSet
157 802 m 0,0,1
 166 802 166 802 166 795 c 2,2,-1
 166 499 l 2,3,4
 166 489 166 489 155 489 c 0,5,6
 141 489 141 489 141 499 c 2,7,-1
 142 765 l 1,8,-1
 39 654 l 1,9,10
 30 647 30 647 25 647 c 0,11,12
 23 647 23 647 17 649 c 0,13,14
 13 650 13 650 13 656 c 0,15,16
 13 660 13 660 15 662 c 2,17,-1
 144 799 l 2,18,19
 147 802 147 802 157 802 c 0,0,1
EndSplineSet
Validated: 1
EndChar

StartChar: ordmasculine
Encoding: 186 186 100
Width: 269
GlyphClass: 2
Flags: W
LayerCount: 2
Fore
SplineSet
205 512 m 128,-1,1
 205 478 205 478 182 456 c 0,2,3
 157 433 157 433 104 433 c 128,-1,4
 51 433 51 433 28 456 c 0,5,6
 4 480 4 480 4 512 c 128,-1,7
 4 544 4 544 28 568 c 0,8,9
 51 591 51 591 104 591 c 128,-1,10
 157 591 157 591 182 568 c 0,11,0
 205 546 205 546 205 512 c 128,-1,1
104 442 m 0,12,13
 149 442 149 442 169 462 c 0,14,15
 188 481 188 481 188 512 c 128,-1,16
 188 543 188 543 169 562 c 0,17,18
 149 582 149 582 104 582 c 0,19,20
 61 582 61 582 41 562 c 0,21,22
 22 543 22 543 22 512 c 0,23,24
 22 480 22 480 40 462 c 0,25,26
 60 442 60 442 104 442 c 0,12,13
EndSplineSet
Validated: 1
EndChar

StartChar: questiondown
Encoding: 191 191 101
Width: 405
GlyphClass: 2
Flags: W
LayerCount: 2
Fore
SplineSet
316 110 m 0,0,1
 328 106 328 106 328 87 c 1,2,3
 312 32 312 32 266 -5 c 0,4,5
 219 -43 219 -43 144 -43 c 0,6,7
 72 -43 72 -43 22 8 c 0,8,9
 -28 60 -28 60 -28 129 c 0,10,11
 -28 176 -28 176 -3 214 c 0,12,13
 23 254 23 254 66 283 c 0,14,15
 104 309 104 309 120 341 c 0,16,17
 133 367 133 367 133 410 c 2,18,-1
 133 482 l 2,19,20
 133 502 133 502 153 502 c 128,-1,21
 173 502 173 502 173 482 c 2,22,-1
 173 409 l 2,23,24
 173 362 173 362 155 325 c 0,25,26
 139 291 139 291 94 257 c 0,27,28
 46 221 46 221 30 197 c 0,29,30
 10 168 10 168 10 129 c 0,31,32
 10 76 10 76 49 35 c 0,33,34
 88 -5 88 -5 144 -5 c 0,35,36
 204 -5 204 -5 241 24 c 0,37,38
 274 50 274 50 291 100 c 0,39,40
 297 116 297 116 316 110 c 0,0,1
153 544 m 0,41,42
 137 544 137 544 129 552 c 0,43,44
 118 563 118 563 118 575 c 0,45,46
 118 589 118 589 128 599 c 128,-1,47
 138 609 138 609 153 609 c 0,48,49
 166 609 166 609 176 599 c 0,50,51
 187 588 187 588 187 575 c 0,52,53
 187 564 187 564 176 553 c 0,54,55
 167 544 167 544 153 544 c 0,41,42
EndSplineSet
Validated: 1
EndChar

StartChar: Agrave
Encoding: 192 192 102
Width: 587
GlyphClass: 2
Flags: W
LayerCount: 2
Fore
SplineSet
161 814 m 0,0,1
 167 817 167 817 171 817 c 0,2,3
 181 817 181 817 188 810 c 1,4,-1
 240 737 l 1,5,6
 243 731 243 731 243 726 c 0,7,8
 243 717 243 717 235 712 c 1,9,10
 231 708 231 708 224 708 c 0,11,12
 214 708 214 708 209 716 c 2,13,-1
 153 790 l 1,14,15
 146 805 146 805 161 814 c 0,0,1
237 686 m 0,16,17
 255 686 255 686 255 672 c 1,18,-1
 521 29 l 1,19,20
 521 10 521 10 511 5 c 0,21,22
 503 1 503 1 498 1 c 0,23,24
 488 1 488 1 482 12 c 1,25,-1
 367 291 l 1,26,-1
 108 291 l 1,27,-1
 -5 12 l 1,28,29
 -11 0 -11 0 -23 0 c 0,30,31
 -25 0 -25 0 -33 2 c 1,32,33
 -42 6 -42 6 -45 13 c 0,34,35
 -49 22 -49 22 -47 27 c 2,36,-1
 217 674 l 1,37,38
 217 680 217 680 224 683 c 0,39,40
 230 686 230 686 237 686 c 0,16,17
349 333 m 1,41,-1
 237 608 l 1,42,-1
 124 333 l 1,43,-1
 349 333 l 1,41,-1
EndSplineSet
Validated: 1
EndChar

StartChar: Aacute
Encoding: 193 193 103
Width: 587
GlyphClass: 2
Flags: W
LayerCount: 2
Fore
SplineSet
311 825 m 0,0,1
 326 816 326 816 319 801 c 1,2,-1
 263 727 l 2,3,4
 258 719 258 719 248 719 c 0,5,6
 241 719 241 719 237 723 c 1,7,8
 229 728 229 728 229 737 c 0,9,10
 229 743 229 743 232 749 c 1,11,-1
 284 821 l 1,12,13
 291 828 291 828 301 828 c 0,14,15
 305 828 305 828 311 825 c 0,0,1
237 686 m 0,16,17
 255 686 255 686 255 672 c 1,18,-1
 521 29 l 1,19,20
 521 10 521 10 511 5 c 0,21,22
 503 1 503 1 498 1 c 0,23,24
 488 1 488 1 482 12 c 1,25,-1
 367 291 l 1,26,-1
 108 291 l 1,27,-1
 -5 12 l 1,28,29
 -11 0 -11 0 -23 0 c 0,30,31
 -25 0 -25 0 -33 2 c 1,32,33
 -42 6 -42 6 -45 13 c 0,34,35
 -49 22 -49 22 -47 27 c 2,36,-1
 217 674 l 1,37,38
 217 680 217 680 224 683 c 0,39,40
 230 686 230 686 237 686 c 0,16,17
349 333 m 1,41,-1
 237 608 l 1,42,-1
 124 333 l 1,43,-1
 349 333 l 1,41,-1
EndSplineSet
Validated: 1
EndChar

StartChar: Acircumflex
Encoding: 194 194 104
Width: 587
GlyphClass: 2
Flags: W
LayerCount: 2
Fore
SplineSet
242 800 m 1,0,-1
 131 740 l 2,1,2
 122 736 122 736 118 735 c 1,3,4
 110 737 110 737 108 742 c 1,5,6
 108 742 108 742 114 751 c 1,7,-1
 223 807 l 2,8,9
 232 812 232 812 237 814 c 0,10,11
 239 815 239 815 243 815 c 2,12,-1
 249 814 l 1,13,14
 254 812 254 812 263 807 c 2,15,16
 263 807 263 807 281 798 c 2,17,-1
 369 749 l 1,18,19
 374 742 374 742 373 741 c 0,20,21
 370 737 370 737 361 737 c 1,22,23
 361 737 361 737 349 740 c 1,24,-1
 242 800 l 1,0,-1
237 686 m 0,25,26
 255 686 255 686 255 672 c 1,27,-1
 521 29 l 1,28,29
 521 10 521 10 511 5 c 0,30,31
 503 1 503 1 498 1 c 0,32,33
 488 1 488 1 482 12 c 1,34,-1
 367 291 l 1,35,-1
 108 291 l 1,36,-1
 -5 12 l 1,37,38
 -11 0 -11 0 -23 0 c 0,39,40
 -25 0 -25 0 -33 2 c 1,41,42
 -42 6 -42 6 -45 13 c 0,43,44
 -49 22 -49 22 -47 27 c 2,45,-1
 217 674 l 1,46,47
 217 680 217 680 224 683 c 0,48,49
 230 686 230 686 237 686 c 0,25,26
349 333 m 1,50,-1
 237 608 l 1,51,-1
 124 333 l 1,52,-1
 349 333 l 1,50,-1
EndSplineSet
Validated: 1
EndChar

StartChar: Atilde
Encoding: 195 195 105
Width: 587
GlyphClass: 2
Flags: W
LayerCount: 2
Fore
SplineSet
113 766 m 0,0,1
 113 785 113 785 131 785 c 2,2,-1
 337 785 l 2,3,4
 345 785 345 785 350 780 c 0,5,6
 357 773 357 773 357 766 c 0,7,8
 357 748 357 748 337 748 c 2,9,-1
 131 748 l 2,10,11
 113 748 113 748 113 766 c 0,0,1
237 686 m 0,12,13
 255 686 255 686 255 672 c 1,14,-1
 521 29 l 1,15,16
 521 10 521 10 511 5 c 0,17,18
 503 1 503 1 498 1 c 0,19,20
 488 1 488 1 482 12 c 1,21,-1
 367 291 l 1,22,-1
 108 291 l 1,23,-1
 -5 12 l 1,24,25
 -11 0 -11 0 -23 0 c 0,26,27
 -25 0 -25 0 -33 2 c 1,28,29
 -42 6 -42 6 -45 13 c 0,30,31
 -49 22 -49 22 -47 27 c 2,32,-1
 217 674 l 1,33,34
 217 680 217 680 224 683 c 0,35,36
 230 686 230 686 237 686 c 0,12,13
349 333 m 1,37,-1
 237 608 l 1,38,-1
 124 333 l 1,39,-1
 349 333 l 1,37,-1
EndSplineSet
Validated: 1
EndChar

StartChar: Adieresis
Encoding: 196 196 106
Width: 587
GlyphClass: 2
Flags: W
LayerCount: 2
Fore
SplineSet
113 807 m 128,-1,1
 113 822 113 822 126 833 c 128,-1,2
 139 844 139 844 158 844 c 128,-1,3
 177 844 177 844 190 833 c 128,-1,4
 203 822 203 822 203 807 c 128,-1,5
 203 792 203 792 190 781 c 128,-1,6
 177 770 177 770 158 770 c 128,-1,7
 139 770 139 770 126 781 c 128,-1,0
 113 792 113 792 113 807 c 128,-1,1
270 805 m 128,-1,9
 270 820 270 820 283 831 c 128,-1,10
 296 842 296 842 315 842 c 128,-1,11
 334 842 334 842 347 831 c 128,-1,12
 360 820 360 820 360 805 c 128,-1,13
 360 790 360 790 347 779 c 128,-1,14
 334 768 334 768 315 768 c 128,-1,15
 296 768 296 768 283 779 c 128,-1,8
 270 790 270 790 270 805 c 128,-1,9
237 686 m 0,16,17
 255 686 255 686 255 672 c 1,18,-1
 521 29 l 1,19,20
 521 10 521 10 511 5 c 0,21,22
 503 1 503 1 498 1 c 0,23,24
 488 1 488 1 482 12 c 1,25,-1
 367 291 l 1,26,-1
 108 291 l 1,27,-1
 -5 12 l 1,28,29
 -11 0 -11 0 -23 0 c 0,30,31
 -25 0 -25 0 -33 2 c 1,32,33
 -42 6 -42 6 -45 13 c 0,34,35
 -49 22 -49 22 -47 27 c 2,36,-1
 217 674 l 1,37,38
 217 680 217 680 224 683 c 0,39,40
 230 686 230 686 237 686 c 0,16,17
349 333 m 1,41,-1
 237 608 l 1,42,-1
 124 333 l 1,43,-1
 349 333 l 1,41,-1
EndSplineSet
Validated: 1
EndChar

StartChar: Aring
Encoding: 197 197 107
Width: 587
GlyphClass: 2
Flags: W
LayerCount: 2
Fore
SplineSet
202 776 m 0,0,1
 202 763 202 763 211.5 753.5 c 128,-1,2
 221 744 221 744 235 744 c 0,3,4
 248 744 248 744 258.5 753 c 128,-1,5
 269 762 269 762 269 776 c 0,6,7
 269 788 269 788 259.5 798 c 128,-1,8
 250 808 250 808 235 808 c 0,9,10
 222 808 222 808 212 799 c 128,-1,11
 202 790 202 790 202 776 c 0,0,1
148 776 m 0,12,13
 148 812 148 812 174 835.5 c 128,-1,14
 200 859 200 859 235 859 c 0,15,16
 272 859 272 859 297.5 834 c 128,-1,17
 323 809 323 809 323 776 c 0,18,19
 323 740 323 740 296.5 716.5 c 128,-1,20
 270 693 270 693 235 693 c 0,21,22
 198 693 198 693 173 718 c 128,-1,23
 148 743 148 743 148 776 c 0,12,13
237 686 m 0,24,25
 255 686 255 686 255 672 c 1,26,-1
 521 29 l 1,27,28
 521 10 521 10 511 5 c 0,29,30
 503 1 503 1 498 1 c 0,31,32
 488 1 488 1 482 12 c 1,33,-1
 367 291 l 1,34,-1
 108 291 l 1,35,-1
 -5 12 l 1,36,37
 -11 0 -11 0 -23 0 c 0,38,39
 -25 0 -25 0 -33 2 c 1,40,41
 -42 6 -42 6 -45 13 c 0,42,43
 -49 22 -49 22 -47 27 c 2,44,-1
 217 674 l 1,45,46
 217 680 217 680 224 683 c 0,47,48
 230 686 230 686 237 686 c 0,24,25
349 333 m 1,49,-1
 237 608 l 1,50,-1
 124 333 l 1,51,-1
 349 333 l 1,49,-1
EndSplineSet
Validated: 1
EndChar

StartChar: Ccedilla
Encoding: 199 199 108
Width: 530
GlyphClass: 2
Flags: W
LayerCount: 2
Fore
SplineSet
162 168 m 1,0,1
 176 148 176 148 176 125 c 0,2,3
 176 113 176 113 173 101 c 1,4,-1
 152 44 l 1,5,6
 181 36 181 36 214 36 c 0,7,8
 352 36 352 36 377 108 c 0,9,10
 402 179 402 179 414 184 c 0,11,12
 417 185 417 185 421 185 c 0,13,14
 427 185 427 185 429 184 c 0,15,16
 441 179 441 179 441 161 c 1,17,18
 414 81 414 81 357 37 c 0,19,20
 301 -6 301 -6 214 -6 c 0,21,22
 171 -6 171 -6 138 4 c 1,23,-1
 102 -102 l 1,24,25
 96 -124 96 -124 82 -124 c 0,26,27
 73 -124 73 -124 67 -112 c 1,28,29
 57 -99 57 -99 57 -72 c 0,30,31
 57 -55 57 -55 61 -42 c 2,32,-1
 85 31 l 1,33,34
 48 55 48 55 24 92 c 0,35,36
 -41 190 -41 190 -41 349 c 0,37,38
 -41 504 -41 504 23 601 c 0,39,40
 86 696 86 696 214 696 c 0,41,42
 295 696 295 696 355 651 c 128,-1,43
 415 606 415 606 441 530 c 0,44,45
 441 528 441 528 437 516 c 0,46,47
 435 509 435 509 430 507 c 0,48,49
 424 504 424 504 418 504 c 0,50,51
 406 504 406 504 400 516 c 1,52,53
 378 579 378 579 329 618 c 0,54,55
 283 654 283 654 214 654 c 0,56,57
 108 654 108 654 56 571 c 0,58,59
 2 485 2 485 2 349 c 0,60,61
 2 206 2 206 55 121 c 1,62,63
 75 91 75 91 99 72 c 1,64,-1
 127 159 l 1,65,66
 134 177 134 177 149 177 c 0,67,68
 154 177 154 177 162 168 c 1,0,1
EndSplineSet
Validated: 1
EndChar

StartChar: Egrave
Encoding: 200 200 109
Width: 549
GlyphClass: 2
Flags: W
LayerCount: 2
Fore
SplineSet
118 806 m 0,0,1
 124 809 124 809 128 809 c 0,2,3
 138 809 138 809 145 802 c 1,4,-1
 197 729 l 1,5,6
 200 723 200 723 200 718 c 0,7,8
 200 708 200 708 192 703 c 1,9,10
 188 699 188 699 180 699 c 0,11,12
 170 699 170 699 165 708 c 1,13,-1
 110 781 l 1,14,15
 108 787 108 787 108 789 c 0,16,17
 108 800 108 800 118 806 c 0,0,1
376 666 m 0,18,19
 376 644 376 644 357 644 c 2,20,-1
 -1 645 l 1,21,-1
 -1 390 l 1,22,-1
 242 389 l 2,23,24
 252 389 252 389 256 383 c 0,25,26
 262 375 262 375 262 368 c 0,27,28
 262 346 262 346 242 346 c 2,29,-1
 -1 347 l 1,30,-1
 -1 43 l 1,31,-1
 355 42 l 2,32,33
 364 42 364 42 369 37 c 1,34,35
 374 30 374 30 374 20 c 0,36,37
 374 14 374 14 369 7 c 128,-1,38
 364 0 364 0 355 0 c 2,39,-1
 -21 1 l 2,40,41
 -42 1 -42 1 -42 22 c 2,42,-1
 -42 668 l 2,43,44
 -42 686 -42 686 -22 686 c 2,45,-1
 357 685 l 2,46,47
 366 685 366 685 371 679 c 0,48,49
 376 674 376 674 376 666 c 0,18,19
EndSplineSet
Validated: 1
EndChar

StartChar: Eacute
Encoding: 201 201 110
Width: 549
GlyphClass: 2
Flags: W
LayerCount: 2
Fore
SplineSet
213 803 m 0,0,1
 224 797 224 797 224 786 c 0,2,3
 224 784 224 784 222 778 c 1,4,-1
 166 705 l 1,5,6
 161 696 161 696 151 696 c 0,7,8
 143 696 143 696 139 700 c 1,9,10
 131 705 131 705 131 715 c 0,11,12
 131 718 131 718 135 726 c 1,13,-1
 186 799 l 1,14,15
 193 806 193 806 204 806 c 0,16,17
 207 806 207 806 213 803 c 0,0,1
376 666 m 0,18,19
 376 644 376 644 357 644 c 2,20,-1
 -1 645 l 1,21,-1
 -1 390 l 1,22,-1
 242 389 l 2,23,24
 252 389 252 389 256 383 c 0,25,26
 262 375 262 375 262 368 c 0,27,28
 262 346 262 346 242 346 c 2,29,-1
 -1 347 l 1,30,-1
 -1 43 l 1,31,-1
 355 42 l 2,32,33
 364 42 364 42 369 37 c 1,34,35
 374 30 374 30 374 20 c 0,36,37
 374 14 374 14 369 7 c 128,-1,38
 364 0 364 0 355 0 c 2,39,-1
 -21 1 l 2,40,41
 -42 1 -42 1 -42 22 c 2,42,-1
 -42 668 l 2,43,44
 -42 686 -42 686 -22 686 c 2,45,-1
 357 685 l 2,46,47
 366 685 366 685 371 679 c 0,48,49
 376 674 376 674 376 666 c 0,18,19
EndSplineSet
Validated: 1
EndChar

StartChar: Ecircumflex
Encoding: 202 202 111
Width: 549
GlyphClass: 2
Flags: W
LayerCount: 2
Fore
SplineSet
184 786 m 1,0,-1
 74 727 l 2,1,2
 66 723 66 723 61 722 c 1,3,4
 52 724 52 724 50 729 c 0,5,6
 49 731 49 731 53 734 c 0,7,8
 55 736 55 736 56 737 c 2,9,-1
 165 794 l 2,10,11
 174 799 174 799 179 801 c 0,12,13
 181 802 181 802 185 802 c 2,14,-1
 192 801 l 1,15,16
 197 799 197 799 206 794 c 0,17,18
 209 792 209 792 214.5 789 c 128,-1,19
 220 786 220 786 223 784 c 2,20,-1
 311 735 l 2,21,22
 312 734 312 734 313.5 732.5 c 128,-1,23
 315 731 315 731 315.5 730.5 c 128,-1,24
 316 730 316 730 315 728 c 0,25,26
 312 724 312 724 304 724 c 1,27,-1
 292 727 l 1,28,-1
 184 786 l 1,0,-1
376 666 m 0,29,30
 376 644 376 644 357 644 c 2,31,-1
 -1 645 l 1,32,-1
 -1 390 l 1,33,-1
 242 389 l 2,34,35
 252 389 252 389 256 383 c 0,36,37
 262 375 262 375 262 368 c 0,38,39
 262 346 262 346 242 346 c 2,40,-1
 -1 347 l 1,41,-1
 -1 43 l 1,42,-1
 355 42 l 2,43,44
 364 42 364 42 369 37 c 1,45,46
 374 30 374 30 374 20 c 0,47,48
 374 14 374 14 369 7 c 128,-1,49
 364 0 364 0 355 0 c 2,50,-1
 -21 1 l 2,51,52
 -42 1 -42 1 -42 22 c 2,53,-1
 -42 668 l 2,54,55
 -42 686 -42 686 -22 686 c 2,56,-1
 357 685 l 2,57,58
 366 685 366 685 371 679 c 0,59,60
 376 674 376 674 376 666 c 0,29,30
EndSplineSet
Validated: 1
EndChar

StartChar: Edieresis
Encoding: 203 203 112
Width: 549
GlyphClass: 2
Flags: W
LayerCount: 2
Fore
SplineSet
208 762 m 128,-1,1
 208 776 208 776 218 785.5 c 128,-1,2
 228 795 228 795 241 795 c 128,-1,3
 254 795 254 795 264 785.5 c 128,-1,4
 274 776 274 776 274 762 c 128,-1,5
 274 748 274 748 264 738.5 c 128,-1,6
 254 729 254 729 241 729 c 128,-1,7
 228 729 228 729 218 738.5 c 128,-1,0
 208 748 208 748 208 762 c 128,-1,1
71 762 m 128,-1,9
 71 775 71 775 81 785 c 128,-1,10
 91 795 91 795 105 795 c 0,11,12
 118 795 118 795 128 785.5 c 128,-1,13
 138 776 138 776 138 762 c 128,-1,14
 138 748 138 748 128 738.5 c 128,-1,15
 118 729 118 729 105 729 c 0,16,17
 91 729 91 729 81 739 c 128,-1,8
 71 749 71 749 71 762 c 128,-1,9
376 666 m 0,18,19
 376 644 376 644 357 644 c 2,20,-1
 -1 645 l 1,21,-1
 -1 390 l 1,22,-1
 242 389 l 2,23,24
 252 389 252 389 256 383 c 0,25,26
 262 375 262 375 262 368 c 0,27,28
 262 346 262 346 242 346 c 2,29,-1
 -1 347 l 1,30,-1
 -1 43 l 1,31,-1
 355 42 l 2,32,33
 364 42 364 42 369 37 c 1,34,35
 374 30 374 30 374 20 c 0,36,37
 374 14 374 14 369 7 c 128,-1,38
 364 0 364 0 355 0 c 2,39,-1
 -21 1 l 2,40,41
 -42 1 -42 1 -42 22 c 2,42,-1
 -42 668 l 2,43,44
 -42 686 -42 686 -22 686 c 2,45,-1
 357 685 l 2,46,47
 366 685 366 685 371 679 c 0,48,49
 376 674 376 674 376 666 c 0,18,19
EndSplineSet
Validated: 1
EndChar

StartChar: Igrave
Encoding: 204 204 113
Width: 168
GlyphClass: 2
Flags: W
LayerCount: 2
Fore
SplineSet
-38 828 m 0,0,1
 -32 831 -32 831 -28 831 c 0,2,3
 -18 831 -18 831 -11 824 c 1,4,-1
 41 752 l 1,5,6
 44 746 44 746 44 740 c 0,7,8
 44 731 44 731 36 726 c 1,9,10
 32 722 32 722 25 722 c 0,11,12
 15 722 15 722 10 730 c 2,13,-1
 -46 804 l 1,14,15
 -48 810 -48 810 -48 812 c 0,16,17
 -48 822 -48 822 -38 828 c 0,0,1
11 668 m 2,18,19
 11 686 11 686 32 686 c 0,20,21
 52 686 52 686 52 668 c 2,22,-1
 52 19 l 2,23,24
 52 1 52 1 32 1 c 0,25,26
 11 1 11 1 11 19 c 2,27,-1
 11 668 l 2,18,19
EndSplineSet
Validated: 1
EndChar

StartChar: Iacute
Encoding: 205 205 114
Width: 166
GlyphClass: 2
Flags: W
LayerCount: 2
Fore
SplineSet
98 831 m 0,0,1
 109 825 109 825 109 815 c 0,2,3
 109 813 109 813 107 807 c 1,4,-1
 51 733 l 2,5,6
 46 725 46 725 36 725 c 0,7,8
 28 725 28 725 24 729 c 1,9,10
 16 734 16 734 16 743 c 0,11,12
 16 747 16 747 20 755 c 1,13,-1
 71 827 l 1,14,15
 79 835 79 835 88 835 c 0,16,17
 90 835 90 835 98 831 c 0,0,1
29 686 m 0,18,19
 49 686 49 686 49 668 c 2,20,-1
 49 19 l 2,21,22
 49 1 49 1 29 1 c 0,23,24
 8 1 8 1 8 19 c 2,25,-1
 8 668 l 2,26,27
 8 686 8 686 29 686 c 0,18,19
EndSplineSet
Validated: 1
EndChar

StartChar: Icircumflex
Encoding: 206 206 115
Width: 167
GlyphClass: 2
Flags: W
LayerCount: 2
Fore
SplineSet
31 690 m 0,0,1
 42 690 42 690 46 685 c 128,-1,2
 50 680 50 680 48 676 c 1,3,-1
 47 671 l 1,4,5
 50 671 50 671 50 668 c 2,6,-1
 50 19 l 2,7,8
 50 1 50 1 31 1 c 0,9,10
 9 1 9 1 9 19 c 2,11,-1
 9 668 l 2,12,13
 9 690 9 690 31 690 c 0,0,1
33 743 m 1,14,-1
 -78 684 l 2,15,16
 -86 680 -86 680 -91 679 c 1,17,18
 -102 682 -102 682 -102 687 c 0,19,20
 -102 689 -102 689 -99 691 c 128,-1,21
 -96 693 -96 693 -95 694 c 2,22,-1
 13 751 l 2,23,24
 22 756 22 756 27 758 c 0,25,26
 29 759 29 759 34 759 c 2,27,-1
 40 758 l 1,28,29
 45 756 45 756 54 751 c 0,30,31
 57 750 57 750 63 746 c 128,-1,32
 69 742 69 742 72 741 c 2,33,-1
 160 692 l 1,34,-1
 165 687 l 1,35,36
 164 686 164 686 164 685 c 0,37,38
 161 681 161 681 152 681 c 1,39,-1
 140 684 l 1,40,-1
 33 743 l 1,14,-1
EndSplineSet
Validated: 1
EndChar

StartChar: Idieresis
Encoding: 207 207 116
Width: 167
GlyphClass: 2
Flags: W
LayerCount: 2
Fore
SplineSet
62 803 m 128,-1,1
 62 816 62 816 72 826 c 128,-1,2
 82 836 82 836 95 836 c 0,3,4
 109 836 109 836 119 826 c 128,-1,5
 129 816 129 816 129 803 c 128,-1,6
 129 790 129 790 119 780 c 128,-1,7
 109 770 109 770 95 770 c 0,8,9
 82 770 82 770 72 780 c 128,-1,0
 62 790 62 790 62 803 c 128,-1,1
-74 803 m 128,-1,11
 -74 816 -74 816 -64 826 c 128,-1,12
 -54 836 -54 836 -41 836 c 128,-1,13
 -28 836 -28 836 -18 826 c 128,-1,14
 -8 816 -8 816 -8 803 c 128,-1,15
 -8 790 -8 790 -18 780 c 128,-1,16
 -28 770 -28 770 -41 770 c 128,-1,17
 -54 770 -54 770 -64 780 c 128,-1,10
 -74 790 -74 790 -74 803 c 128,-1,11
31 686 m 0,18,19
 50 686 50 686 50 668 c 2,20,-1
 50 19 l 2,21,22
 50 1 50 1 31 1 c 0,23,24
 9 1 9 1 9 19 c 2,25,-1
 9 668 l 2,26,27
 9 686 9 686 31 686 c 0,18,19
EndSplineSet
Validated: 1
EndChar

StartChar: Ntilde
Encoding: 209 209 117
Width: 566
GlyphClass: 2
Flags: W
LayerCount: 2
Fore
SplineSet
76 760 m 128,-1,1
 76 779 76 779 94 779 c 2,2,-1
 300 779 l 2,3,4
 309 779 309 779 314 774 c 0,5,6
 320 768 320 768 320 760 c 0,7,8
 320 741 320 741 300 741 c 2,9,-1
 94 741 l 2,10,0
 76 741 76 741 76 760 c 128,-1,1
380 10 m 2,11,-1
 -2 605 l 1,12,-1
 -2 19 l 2,13,14
 -2 13 -2 13 -8 7 c 1,15,16
 -12 1 -12 1 -22 1 c 0,17,18
 -43 1 -43 1 -43 19 c 2,19,-1
 -43 668 l 2,20,21
 -43 685 -43 685 -28 685 c 0,22,23
 -9 685 -9 685 -4 677 c 2,24,-1
 376 83 l 1,25,-1
 376 668 l 2,26,27
 376 686 376 686 395 686 c 0,28,29
 416 686 416 686 416 668 c 2,30,-1
 416 20 l 2,31,32
 416 3 416 3 402 3 c 0,33,34
 385 3 385 3 380 10 c 2,11,-1
EndSplineSet
Validated: 1
EndChar

StartChar: Ograve
Encoding: 210 210 118
Width: 542
GlyphClass: 2
Flags: W
LayerCount: 2
Fore
SplineSet
161 846 m 0,0,1
 167 849 167 849 171 849 c 0,2,3
 181 849 181 849 188 842 c 1,4,-1
 240 769 l 1,5,6
 243 763 243 763 243 758 c 0,7,8
 243 748 243 748 235 743 c 1,9,10
 231 739 231 739 224 739 c 0,11,12
 213 739 213 739 208 748 c 1,13,-1
 153 821 l 1,14,15
 146 837 146 837 161 846 c 0,0,1
477 344 m 128,-1,17
 477 192 477 192 417 93 c 0,18,19
 354 -11 354 -11 217 -11 c 0,20,21
 78 -11 78 -11 17 92 c 0,22,23
 -43 193 -43 193 -43 343 c 0,24,25
 -43 494 -43 494 17 595 c 0,26,27
 78 698 78 698 217 698 c 0,28,29
 354 698 354 698 417 595 c 0,30,16
 477 496 477 496 477 344 c 128,-1,17
217 30 m 0,31,32
 335 30 335 30 385 120 c 0,33,34
 434 208 434 208 434 343 c 0,35,36
 434 482 434 482 386 566 c 0,37,38
 335 656 335 656 217 656 c 128,-1,39
 99 656 99 656 49 566 c 0,40,41
 0 478 0 478 0 343 c 0,42,43
 0 206 0 206 48 120 c 0,44,45
 98 30 98 30 217 30 c 0,31,32
EndSplineSet
Validated: 1
EndChar

StartChar: Oacute
Encoding: 211 211 119
Width: 542
GlyphClass: 2
Flags: W
LayerCount: 2
Fore
SplineSet
288 831 m 0,0,1
 304 822 304 822 297 807 c 1,2,-1
 241 733 l 2,3,4
 236 725 236 725 226 725 c 0,5,6
 218 725 218 725 214 729 c 1,7,8
 206 734 206 734 206 743 c 0,9,10
 206 747 206 747 210 755 c 1,11,-1
 261 827 l 1,12,13
 269 835 269 835 278 835 c 0,14,15
 280 835 280 835 288 831 c 0,0,1
477 344 m 128,-1,17
 477 192 477 192 417 93 c 0,18,19
 354 -11 354 -11 217 -11 c 0,20,21
 78 -11 78 -11 17 92 c 0,22,23
 -43 193 -43 193 -43 343 c 0,24,25
 -43 494 -43 494 17 595 c 0,26,27
 78 698 78 698 217 698 c 0,28,29
 354 698 354 698 417 595 c 0,30,16
 477 496 477 496 477 344 c 128,-1,17
217 30 m 0,31,32
 335 30 335 30 385 120 c 0,33,34
 434 208 434 208 434 343 c 0,35,36
 434 482 434 482 386 566 c 0,37,38
 335 656 335 656 217 656 c 128,-1,39
 99 656 99 656 49 566 c 0,40,41
 0 478 0 478 0 343 c 0,42,43
 0 206 0 206 48 120 c 0,44,45
 98 30 98 30 217 30 c 0,31,32
EndSplineSet
Validated: 1
EndChar

StartChar: Ocircumflex
Encoding: 212 212 120
Width: 542
GlyphClass: 2
Flags: W
LayerCount: 2
Fore
SplineSet
221 793 m 1,0,-1
 111 733 l 2,1,2
 102 729 102 729 98 728 c 1,3,4
 89 730 89 730 87 735 c 0,5,6
 86 737 86 737 90 740 c 0,7,8
 92 742 92 742 93 743 c 2,9,-1
 202 800 l 2,10,11
 211 805 211 805 216 807 c 0,12,13
 218 808 218 808 222 808 c 2,14,-1
 229 807 l 1,15,16
 234 805 234 805 243 800 c 0,17,18
 246 798 246 798 251.5 795 c 128,-1,19
 257 792 257 792 260 791 c 2,20,-1
 348 741 l 2,21,22
 349 740 349 740 351 738.5 c 128,-1,23
 353 737 353 737 353.5 736.5 c 128,-1,24
 354 736 354 736 353 734 c 0,25,26
 350 730 350 730 341 730 c 1,27,-1
 329 733 l 1,28,-1
 221 793 l 1,0,-1
477 344 m 128,-1,30
 477 192 477 192 417 93 c 0,31,32
 354 -11 354 -11 217 -11 c 0,33,34
 78 -11 78 -11 17 92 c 0,35,36
 -43 193 -43 193 -43 343 c 0,37,38
 -43 494 -43 494 17 595 c 0,39,40
 78 698 78 698 217 698 c 0,41,42
 354 698 354 698 417 595 c 0,43,29
 477 496 477 496 477 344 c 128,-1,30
217 30 m 0,44,45
 335 30 335 30 385 120 c 0,46,47
 434 208 434 208 434 343 c 0,48,49
 434 482 434 482 386 566 c 0,50,51
 335 656 335 656 217 656 c 128,-1,52
 99 656 99 656 49 566 c 0,53,54
 0 478 0 478 0 343 c 0,55,56
 0 206 0 206 48 120 c 0,57,58
 98 30 98 30 217 30 c 0,44,45
EndSplineSet
Validated: 1
EndChar

StartChar: Otilde
Encoding: 213 213 121
Width: 542
GlyphClass: 2
Flags: W
LayerCount: 2
Fore
SplineSet
108 788 m 0,0,1
 108 808 108 808 127 808 c 2,2,-1
 332 808 l 2,3,4
 341 808 341 808 346 803 c 0,5,6
 353 796 353 796 353 788 c 0,7,8
 353 770 353 770 332 770 c 2,9,-1
 127 770 l 2,10,11
 108 770 108 770 108 788 c 0,0,1
477 344 m 128,-1,13
 477 192 477 192 417 93 c 0,14,15
 354 -11 354 -11 217 -11 c 0,16,17
 78 -11 78 -11 17 92 c 0,18,19
 -43 193 -43 193 -43 343 c 0,20,21
 -43 494 -43 494 17 595 c 0,22,23
 78 698 78 698 217 698 c 0,24,25
 354 698 354 698 417 595 c 0,26,12
 477 496 477 496 477 344 c 128,-1,13
217 30 m 0,27,28
 335 30 335 30 385 120 c 0,29,30
 434 208 434 208 434 343 c 0,31,32
 434 482 434 482 386 566 c 0,33,34
 335 656 335 656 217 656 c 128,-1,35
 99 656 99 656 49 566 c 0,36,37
 0 478 0 478 0 343 c 0,38,39
 0 206 0 206 48 120 c 0,40,41
 98 30 98 30 217 30 c 0,27,28
EndSplineSet
Validated: 1
EndChar

StartChar: Odieresis
Encoding: 214 214 122
Width: 542
GlyphClass: 2
Flags: W
LayerCount: 2
Fore
SplineSet
95 817 m 128,-1,1
 95 832 95 832 108 843 c 128,-1,2
 121 854 121 854 140 854 c 128,-1,3
 159 854 159 854 172 843 c 128,-1,4
 185 832 185 832 185 817 c 128,-1,5
 185 802 185 802 172 791 c 128,-1,6
 159 780 159 780 140 780 c 128,-1,7
 121 780 121 780 108 791 c 128,-1,0
 95 802 95 802 95 817 c 128,-1,1
251 815 m 128,-1,9
 251 830 251 830 264.5 841 c 128,-1,10
 278 852 278 852 297 852 c 128,-1,11
 316 852 316 852 329 841 c 128,-1,12
 342 830 342 830 342 815 c 128,-1,13
 342 800 342 800 329 789 c 128,-1,14
 316 778 316 778 297 778 c 128,-1,15
 278 778 278 778 264.5 789 c 128,-1,8
 251 800 251 800 251 815 c 128,-1,9
477 344 m 128,-1,17
 477 192 477 192 417 93 c 0,18,19
 354 -11 354 -11 217 -11 c 0,20,21
 78 -11 78 -11 17 92 c 0,22,23
 -43 193 -43 193 -43 343 c 0,24,25
 -43 494 -43 494 17 595 c 0,26,27
 78 698 78 698 217 698 c 0,28,29
 354 698 354 698 417 595 c 0,30,16
 477 496 477 496 477 344 c 128,-1,17
217 30 m 0,31,32
 335 30 335 30 385 120 c 0,33,34
 434 208 434 208 434 343 c 0,35,36
 434 482 434 482 386 566 c 0,37,38
 335 656 335 656 217 656 c 128,-1,39
 99 656 99 656 49 566 c 0,40,41
 0 478 0 478 0 343 c 0,42,43
 0 206 0 206 48 120 c 0,44,45
 98 30 98 30 217 30 c 0,31,32
EndSplineSet
Validated: 1
EndChar

StartChar: Ugrave
Encoding: 217 217 123
Width: 548
GlyphClass: 2
Flags: W
LayerCount: 2
Fore
SplineSet
159 801 m 0,0,1
 165 804 165 804 169 804 c 0,2,3
 179 804 179 804 186 797 c 1,4,-1
 238 724 l 1,5,6
 241 718 241 718 241 713 c 0,7,8
 241 703 241 703 233 698 c 1,9,10
 229 694 229 694 222 694 c 0,11,12
 212 694 212 694 207 702 c 2,13,-1
 151 776 l 1,14,15
 144 792 144 792 159 801 c 0,0,1
-18 687 m 0,16,17
 6 687 6 687 6 669 c 2,18,-1
 6 247 l 2,19,20
 6 153 6 153 65 94 c 0,21,22
 126 33 126 33 209 33 c 0,23,24
 297 33 297 33 357 93 c 128,-1,25
 417 153 417 153 417 247 c 2,26,-1
 417 669 l 2,27,28
 417 687 417 687 440 687 c 0,29,30
 461 687 461 687 461 669 c 2,31,-1
 461 247 l 2,32,33
 461 139 461 139 387 63 c 0,34,35
 315 -10 315 -10 209 -10 c 0,36,37
 105 -10 105 -10 35 63 c 0,38,39
 -39 140 -39 140 -39 247 c 2,40,-1
 -39 669 l 2,41,42
 -39 687 -39 687 -18 687 c 0,16,17
EndSplineSet
Validated: 1
EndChar

StartChar: Uacute
Encoding: 218 218 124
Width: 548
GlyphClass: 2
Flags: W
LayerCount: 2
Fore
SplineSet
263 805 m 0,0,1
 278 796 278 796 271 780 c 1,2,-1
 215 707 l 1,3,4
 210 698 210 698 200 698 c 0,5,6
 192 698 192 698 188 702 c 1,7,8
 181 706 181 706 181 717 c 0,9,10
 181 722 181 722 184 728 c 1,11,-1
 236 801 l 1,12,13
 243 808 243 808 253 808 c 0,14,15
 257 808 257 808 263 805 c 0,0,1
-18 687 m 0,16,17
 6 687 6 687 6 669 c 2,18,-1
 6 247 l 2,19,20
 6 153 6 153 65 94 c 0,21,22
 126 33 126 33 209 33 c 0,23,24
 297 33 297 33 357 93 c 128,-1,25
 417 153 417 153 417 247 c 2,26,-1
 417 669 l 2,27,28
 417 687 417 687 440 687 c 0,29,30
 461 687 461 687 461 669 c 2,31,-1
 461 247 l 2,32,33
 461 139 461 139 387 63 c 0,34,35
 315 -10 315 -10 209 -10 c 0,36,37
 105 -10 105 -10 35 63 c 0,38,39
 -39 140 -39 140 -39 247 c 2,40,-1
 -39 669 l 2,41,42
 -39 687 -39 687 -18 687 c 0,16,17
EndSplineSet
Validated: 1
EndChar

StartChar: Ucircumflex
Encoding: 219 219 125
Width: 548
GlyphClass: 2
Flags: W
LayerCount: 2
Fore
SplineSet
222 793 m 1,0,-1
 111 733 l 2,1,2
 102 729 102 729 98 728 c 1,3,4
 89 730 89 730 87 735 c 0,5,6
 87 736 87 736 88 737.5 c 128,-1,7
 89 739 89 739 91 740.5 c 128,-1,8
 93 742 93 742 94 743 c 2,9,-1
 202 800 l 2,10,11
 211 805 211 805 216 807 c 0,12,13
 218 808 218 808 223 808 c 2,14,-1
 229 807 l 1,15,16
 234 805 234 805 243 800 c 0,17,18
 246 798 246 798 251.5 795 c 128,-1,19
 257 792 257 792 260 791 c 2,20,-1
 349 741 l 2,21,22
 350 740 350 740 351.5 738.5 c 128,-1,23
 353 737 353 737 353.5 736.5 c 128,-1,24
 354 736 354 736 353 734 c 0,25,26
 350 730 350 730 341 730 c 1,27,-1
 329 733 l 1,28,-1
 222 793 l 1,0,-1
-18 687 m 0,29,30
 6 687 6 687 6 669 c 2,31,-1
 6 247 l 2,32,33
 6 153 6 153 65 94 c 0,34,35
 126 33 126 33 209 33 c 0,36,37
 297 33 297 33 357 93 c 128,-1,38
 417 153 417 153 417 247 c 2,39,-1
 417 669 l 2,40,41
 417 687 417 687 440 687 c 0,42,43
 461 687 461 687 461 669 c 2,44,-1
 461 247 l 2,45,46
 461 139 461 139 387 63 c 0,47,48
 315 -10 315 -10 209 -10 c 0,49,50
 105 -10 105 -10 35 63 c 0,51,52
 -39 140 -39 140 -39 247 c 2,53,-1
 -39 669 l 2,54,55
 -39 687 -39 687 -18 687 c 0,29,30
EndSplineSet
Validated: 1
EndChar

StartChar: Udieresis
Encoding: 220 220 126
Width: 548
GlyphClass: 2
Flags: W
LayerCount: 2
Fore
SplineSet
95 817 m 128,-1,1
 95 832 95 832 108 843 c 128,-1,2
 121 854 121 854 140 854 c 128,-1,3
 159 854 159 854 172 843 c 128,-1,4
 185 832 185 832 185 817 c 128,-1,5
 185 802 185 802 172 791 c 128,-1,6
 159 780 159 780 140 780 c 128,-1,7
 121 780 121 780 108 791 c 128,-1,0
 95 802 95 802 95 817 c 128,-1,1
252 815 m 128,-1,9
 252 830 252 830 265 841 c 128,-1,10
 278 852 278 852 297 852 c 128,-1,11
 316 852 316 852 329 841 c 128,-1,12
 342 830 342 830 342 815 c 128,-1,13
 342 800 342 800 329 789 c 128,-1,14
 316 778 316 778 297 778 c 128,-1,15
 278 778 278 778 265 789 c 128,-1,8
 252 800 252 800 252 815 c 128,-1,9
-18 687 m 0,16,17
 6 687 6 687 6 669 c 2,18,-1
 6 247 l 2,19,20
 6 153 6 153 65 94 c 0,21,22
 126 33 126 33 209 33 c 0,23,24
 297 33 297 33 357 93 c 128,-1,25
 417 153 417 153 417 247 c 2,26,-1
 417 669 l 2,27,28
 417 687 417 687 440 687 c 0,29,30
 461 687 461 687 461 669 c 2,31,-1
 461 247 l 2,32,33
 461 139 461 139 387 63 c 0,34,35
 315 -10 315 -10 209 -10 c 0,36,37
 105 -10 105 -10 35 63 c 0,38,39
 -39 140 -39 140 -39 247 c 2,40,-1
 -39 669 l 2,41,42
 -39 687 -39 687 -18 687 c 0,16,17
EndSplineSet
Validated: 1
EndChar

StartChar: agrave
Encoding: 224 224 127
Width: 479
GlyphClass: 2
Flags: W
LayerCount: 2
Fore
SplineSet
122 509 m 0,0,1
 128 512 128 512 132 512 c 0,2,3
 142 512 142 512 149 505 c 1,4,-1
 201 432 l 1,5,6
 204 426 204 426 204 421 c 0,7,8
 204 412 204 412 196 407 c 1,9,10
 191 402 191 402 185 402 c 0,11,12
 175 402 175 402 170 411 c 1,13,-1
 114 484 l 1,14,15
 107 500 107 500 122 509 c 0,0,1
160 40 m 0,16,17
 216 40 216 40 257 87 c 0,18,19
 300 136 300 136 300 198 c 0,20,21
 300 252 300 252 264 289 c 128,-1,22
 228 326 228 326 179 326 c 0,23,24
 118 326 118 326 80 279 c 0,25,26
 41 231 41 231 41 167 c 0,27,28
 41 114 41 114 74 78 c 0,29,30
 109 40 109 40 160 40 c 0,16,17
184 365 m 0,31,32
 210 365 210 365 249 350 c 1,33,34
 287 329 287 329 309 305 c 128,-1,35
 331 281 331 281 335 268.5 c 128,-1,36
 339 256 339 256 339 247 c 2,37,-1
 342 80 l 1,38,39
 344 39 344 39 365 39 c 0,40,41
 384 39 384 39 403 54 c 128,-1,42
 422 69 422 69 430 86 c 1,43,-1
 476 171 l 1,44,45
 484 179 484 179 492 179 c 0,46,47
 497 179 497 179 507 175 c 1,48,49
 515 169 515 169 515 163 c 0,50,51
 515 161 515 161 514 160 c 0,52,53
 513 158 513 158 512.5 155 c 128,-1,54
 512 152 512 152 511 150 c 2,55,-1
 465 61 l 2,56,57
 453 39 453 39 419 16 c 0,58,59
 396 0 396 0 364 0 c 0,60,61
 335 0 335 0 318.5 21.5 c 128,-1,62
 302 43 302 43 300 73 c 1,63,64
 249 0 249 0 158 0 c 0,65,66
 94 0 94 0 44 47 c 0,67,68
 0 88 0 88 0 178 c 0,69,70
 0 230 0 230 21.5 269 c 128,-1,71
 43 308 43 308 74.5 327.5 c 128,-1,72
 106 347 106 347 134 356 c 128,-1,73
 162 365 162 365 184 365 c 0,31,32
EndSplineSet
Validated: 1
EndChar

StartChar: aacute
Encoding: 225 225 128
Width: 479
GlyphClass: 2
Flags: W
LayerCount: 2
Fore
SplineSet
251 505 m 0,0,1
 266 496 266 496 259 480 c 1,2,-1
 203 407 l 1,3,4
 198 398 198 398 188 398 c 0,5,6
 181 398 181 398 177 402 c 1,7,8
 169 407 169 407 169 417 c 0,9,10
 169 422 169 422 172 428 c 1,11,-1
 224 501 l 1,12,13
 231 508 231 508 241 508 c 0,14,15
 245 508 245 508 251 505 c 0,0,1
160 40 m 0,16,17
 216 40 216 40 257 87 c 0,18,19
 300 136 300 136 300 198 c 0,20,21
 300 252 300 252 264 289 c 128,-1,22
 228 326 228 326 179 326 c 0,23,24
 118 326 118 326 80 279 c 0,25,26
 41 231 41 231 41 167 c 0,27,28
 41 114 41 114 74 78 c 0,29,30
 109 40 109 40 160 40 c 0,16,17
184 365 m 0,31,32
 210 365 210 365 249 350 c 1,33,34
 287 329 287 329 309 305 c 128,-1,35
 331 281 331 281 335 268.5 c 128,-1,36
 339 256 339 256 339 247 c 2,37,-1
 342 80 l 1,38,39
 344 39 344 39 365 39 c 0,40,41
 384 39 384 39 403 54 c 128,-1,42
 422 69 422 69 430 86 c 1,43,-1
 476 171 l 1,44,45
 484 179 484 179 492 179 c 0,46,47
 497 179 497 179 507 175 c 1,48,49
 515 169 515 169 515 163 c 0,50,51
 515 161 515 161 514 160 c 0,52,53
 513 158 513 158 512.5 155 c 128,-1,54
 512 152 512 152 511 150 c 2,55,-1
 465 61 l 2,56,57
 453 39 453 39 419 16 c 0,58,59
 396 0 396 0 364 0 c 0,60,61
 335 0 335 0 318.5 21.5 c 128,-1,62
 302 43 302 43 300 73 c 1,63,64
 249 0 249 0 158 0 c 0,65,66
 94 0 94 0 44 47 c 0,67,68
 0 88 0 88 0 178 c 0,69,70
 0 230 0 230 21.5 269 c 128,-1,71
 43 308 43 308 74.5 327.5 c 128,-1,72
 106 347 106 347 134 356 c 128,-1,73
 162 365 162 365 184 365 c 0,31,32
EndSplineSet
Validated: 1
EndChar

StartChar: acircumflex
Encoding: 226 226 129
Width: 479
GlyphClass: 2
Flags: W
LayerCount: 2
Fore
SplineSet
181 475 m 1,0,-1
 70 416 l 2,1,2
 61 412 61 412 58 411 c 1,3,4
 49 413 49 413 47 418 c 0,5,6
 46 420 46 420 50 423 c 0,7,8
 52 425 52 425 53 426 c 2,9,-1
 162 482 l 2,10,11
 171 487 171 487 176 489 c 0,12,13
 178 490 178 490 182 490 c 2,14,-1
 189 489 l 1,15,16
 194 487 194 487 203 482 c 0,17,18
 206 480 206 480 211.5 477 c 128,-1,19
 217 474 217 474 220 473 c 2,20,-1
 308 424 l 1,21,22
 312 418 312 418 312 417 c 0,23,24
 309 413 309 413 301 413 c 1,25,-1
 289 416 l 1,26,-1
 181 475 l 1,0,-1
160 40 m 0,27,28
 216 40 216 40 257 87 c 0,29,30
 300 136 300 136 300 198 c 0,31,32
 300 252 300 252 264 289 c 128,-1,33
 228 326 228 326 179 326 c 0,34,35
 118 326 118 326 80 279 c 0,36,37
 41 231 41 231 41 167 c 0,38,39
 41 114 41 114 74 78 c 0,40,41
 109 40 109 40 160 40 c 0,27,28
184 365 m 0,42,43
 210 365 210 365 249 350 c 1,44,45
 287 329 287 329 309 305 c 128,-1,46
 331 281 331 281 335 268.5 c 128,-1,47
 339 256 339 256 339 247 c 2,48,-1
 342 80 l 1,49,50
 344 39 344 39 365 39 c 0,51,52
 384 39 384 39 403 54 c 128,-1,53
 422 69 422 69 430 86 c 1,54,-1
 476 171 l 1,55,56
 484 179 484 179 492 179 c 0,57,58
 497 179 497 179 507 175 c 1,59,60
 515 169 515 169 515 163 c 0,61,62
 515 161 515 161 514 160 c 0,63,64
 513 158 513 158 512.5 155 c 128,-1,65
 512 152 512 152 511 150 c 2,66,-1
 465 61 l 2,67,68
 453 39 453 39 419 16 c 0,69,70
 396 0 396 0 364 0 c 0,71,72
 335 0 335 0 318.5 21.5 c 128,-1,73
 302 43 302 43 300 73 c 1,74,75
 249 0 249 0 158 0 c 0,76,77
 94 0 94 0 44 47 c 0,78,79
 0 88 0 88 0 178 c 0,80,81
 0 230 0 230 21.5 269 c 128,-1,82
 43 308 43 308 74.5 327.5 c 128,-1,83
 106 347 106 347 134 356 c 128,-1,84
 162 365 162 365 184 365 c 0,42,43
EndSplineSet
Validated: 1
EndChar

StartChar: atilde
Encoding: 227 227 130
Width: 479
GlyphClass: 2
Flags: W
LayerCount: 2
Fore
SplineSet
90 430 m 0,0,1
 90 450 90 450 109 450 c 2,2,-1
 314 450 l 2,3,4
 322 450 322 450 328 444 c 128,-1,5
 334 438 334 438 334 430 c 0,6,7
 334 412 334 412 314 412 c 2,8,-1
 109 412 l 2,9,10
 90 412 90 412 90 430 c 0,0,1
160 40 m 0,11,12
 216 40 216 40 257 87 c 0,13,14
 300 136 300 136 300 198 c 0,15,16
 300 252 300 252 264 289 c 128,-1,17
 228 326 228 326 179 326 c 0,18,19
 118 326 118 326 80 279 c 0,20,21
 41 231 41 231 41 167 c 0,22,23
 41 114 41 114 74 78 c 0,24,25
 109 40 109 40 160 40 c 0,11,12
184 365 m 0,26,27
 210 365 210 365 249 350 c 1,28,29
 287 329 287 329 309 305 c 128,-1,30
 331 281 331 281 335 268.5 c 128,-1,31
 339 256 339 256 339 247 c 2,32,-1
 342 80 l 1,33,34
 344 39 344 39 365 39 c 0,35,36
 384 39 384 39 403 54 c 128,-1,37
 422 69 422 69 430 86 c 1,38,-1
 476 171 l 1,39,40
 484 179 484 179 492 179 c 0,41,42
 497 179 497 179 507 175 c 1,43,44
 515 169 515 169 515 163 c 0,45,46
 515 161 515 161 514 160 c 0,47,48
 513 158 513 158 512.5 155 c 128,-1,49
 512 152 512 152 511 150 c 2,50,-1
 465 61 l 2,51,52
 453 39 453 39 419 16 c 0,53,54
 396 0 396 0 364 0 c 0,55,56
 335 0 335 0 318.5 21.5 c 128,-1,57
 302 43 302 43 300 73 c 1,58,59
 249 0 249 0 158 0 c 0,60,61
 94 0 94 0 44 47 c 0,62,63
 0 88 0 88 0 178 c 0,64,65
 0 230 0 230 21.5 269 c 128,-1,66
 43 308 43 308 74.5 327.5 c 128,-1,67
 106 347 106 347 134 356 c 128,-1,68
 162 365 162 365 184 365 c 0,26,27
EndSplineSet
Validated: 1
EndChar

StartChar: adieresis
Encoding: 228 228 131
Width: 479
GlyphClass: 2
Flags: W
LayerCount: 2
Fore
SplineSet
236 446 m 128,-1,1
 236 461 236 461 247.5 472 c 128,-1,2
 259 483 259 483 276 483 c 128,-1,3
 293 483 293 483 305 472 c 128,-1,4
 317 461 317 461 317 446 c 128,-1,5
 317 431 317 431 305 420.5 c 128,-1,6
 293 410 293 410 276 410 c 128,-1,7
 259 410 259 410 247.5 420.5 c 128,-1,0
 236 431 236 431 236 446 c 128,-1,1
72 447 m 128,-1,9
 72 462 72 462 84 473 c 128,-1,10
 96 484 96 484 113 484 c 128,-1,11
 130 484 130 484 142 473 c 128,-1,12
 154 462 154 462 154 447 c 128,-1,13
 154 432 154 432 142 421.5 c 128,-1,14
 130 411 130 411 113 411 c 128,-1,15
 96 411 96 411 84 421.5 c 128,-1,8
 72 432 72 432 72 447 c 128,-1,9
160 40 m 0,16,17
 216 40 216 40 257 87 c 0,18,19
 300 136 300 136 300 198 c 0,20,21
 300 252 300 252 264 289 c 128,-1,22
 228 326 228 326 179 326 c 0,23,24
 118 326 118 326 80 279 c 0,25,26
 41 231 41 231 41 167 c 0,27,28
 41 114 41 114 74 78 c 0,29,30
 109 40 109 40 160 40 c 0,16,17
184 365 m 0,31,32
 210 365 210 365 249 350 c 1,33,34
 287 329 287 329 309 305 c 128,-1,35
 331 281 331 281 335 268.5 c 128,-1,36
 339 256 339 256 339 247 c 2,37,-1
 342 80 l 1,38,39
 344 39 344 39 365 39 c 0,40,41
 384 39 384 39 403 54 c 128,-1,42
 422 69 422 69 430 86 c 1,43,-1
 476 171 l 1,44,45
 484 179 484 179 492 179 c 0,46,47
 497 179 497 179 507 175 c 1,48,49
 515 169 515 169 515 163 c 0,50,51
 515 161 515 161 514 160 c 0,52,53
 513 158 513 158 512.5 155 c 128,-1,54
 512 152 512 152 511 150 c 2,55,-1
 465 61 l 2,56,57
 453 39 453 39 419 16 c 0,58,59
 396 0 396 0 364 0 c 0,60,61
 335 0 335 0 318.5 21.5 c 128,-1,62
 302 43 302 43 300 73 c 1,63,64
 249 0 249 0 158 0 c 0,65,66
 94 0 94 0 44 47 c 0,67,68
 0 88 0 88 0 178 c 0,69,70
 0 230 0 230 21.5 269 c 128,-1,71
 43 308 43 308 74.5 327.5 c 128,-1,72
 106 347 106 347 134 356 c 128,-1,73
 162 365 162 365 184 365 c 0,31,32
EndSplineSet
Validated: 1
EndChar

StartChar: aring
Encoding: 229 229 132
Width: 479
GlyphClass: 2
Flags: W
LayerCount: 2
Fore
SplineSet
258 481 m 128,-1,1
 258 458 258 458 243 442 c 128,-1,2
 228 426 228 426 195 426 c 0,3,4
 160 426 160 426 147 442 c 0,5,6
 132 460 132 460 132 481 c 0,7,8
 132 503 132 503 147 521 c 0,9,10
 160 537 160 537 195 537 c 0,11,12
 228 537 228 537 243 521 c 0,13,0
 258 504 258 504 258 481 c 128,-1,1
195 432 m 0,14,15
 223 432 223 432 235 446 c 128,-1,16
 247 460 247 460 247 481 c 0,17,18
 247 504 247 504 235 517 c 128,-1,19
 223 530 223 530 195 530 c 128,-1,20
 167 530 167 530 155 517 c 128,-1,21
 143 504 143 504 143 481 c 128,-1,22
 143 458 143 458 154 446 c 0,23,24
 166 432 166 432 195 432 c 0,14,15
160 40 m 0,25,26
 216 40 216 40 257 87 c 0,27,28
 300 136 300 136 300 198 c 0,29,30
 300 252 300 252 264 289 c 128,-1,31
 228 326 228 326 179 326 c 0,32,33
 118 326 118 326 80 279 c 0,34,35
 41 231 41 231 41 167 c 0,36,37
 41 114 41 114 74 78 c 0,38,39
 109 40 109 40 160 40 c 0,25,26
184 365 m 0,40,41
 210 365 210 365 249 350 c 1,42,43
 287 329 287 329 309 305 c 128,-1,44
 331 281 331 281 335 268.5 c 128,-1,45
 339 256 339 256 339 247 c 2,46,-1
 342 80 l 1,47,48
 344 39 344 39 365 39 c 0,49,50
 384 39 384 39 403 54 c 128,-1,51
 422 69 422 69 430 86 c 1,52,-1
 476 171 l 1,53,54
 484 179 484 179 492 179 c 0,55,56
 497 179 497 179 507 175 c 1,57,58
 515 169 515 169 515 163 c 0,59,60
 515 161 515 161 514 160 c 0,61,62
 513 158 513 158 512.5 155 c 128,-1,63
 512 152 512 152 511 150 c 2,64,-1
 465 61 l 2,65,66
 453 39 453 39 419 16 c 0,67,68
 396 0 396 0 364 0 c 0,69,70
 335 0 335 0 318.5 21.5 c 128,-1,71
 302 43 302 43 300 73 c 1,72,73
 249 0 249 0 158 0 c 0,74,75
 94 0 94 0 44 47 c 0,76,77
 0 88 0 88 0 178 c 0,78,79
 0 230 0 230 21.5 269 c 128,-1,80
 43 308 43 308 74.5 327.5 c 128,-1,81
 106 347 106 347 134 356 c 128,-1,82
 162 365 162 365 184 365 c 0,40,41
EndSplineSet
Validated: 1
EndChar

StartChar: ccedilla
Encoding: 231 231 133
Width: 371
GlyphClass: 2
Flags: W
LayerCount: 2
Fore
SplineSet
184 22 m 1,0,1
 217 22 217 22 249 41 c 0,2,3
 284 62 284 62 308 93 c 2,4,-1
 375 184 l 2,5,6
 380 190 380 190 390 190 c 128,-1,7
 400 190 400 190 404 187 c 0,8,9
 410 182 410 182 410 171 c 0,10,11
 410 166 410 166 407 160 c 1,12,-1
 338 66 l 1,13,14
 308 27 308 27 269 6 c 0,15,16
 232 -14 232 -14 176 -14 c 1,17,-1
 155 -13 l 1,18,-1
 104 -70 l 2,19,20
 101 -73 101 -73 99 -74 c 128,-1,21
 97 -75 97 -75 90 -75 c 128,-1,22
 83 -75 83 -75 76 -70 c 0,23,24
 71 -66 71 -66 71 -56 c 0,25,26
 71 -51 71 -51 74 -45 c 1,27,-1
 112 -6 l 1,28,29
 59 11 59 11 30 49 c 0,30,31
 0 88 0 88 0 140 c 1,32,-1
 -17 116 l 2,33,34
 -24 106 -24 106 -35 106 c 0,35,36
 -38 106 -38 106 -48 112 c 0,37,38
 -55 116 -55 116 -55 128 c 0,39,40
 -55 135 -55 135 -37 159 c 2,41,-1
 16 231 l 2,42,43
 54 284 54 284 65 293 c 0,44,45
 83 308 83 308 115 319 c 0,46,47
 155 333 155 333 180 333 c 0,48,49
 230 333 230 333 274 300 c 1,50,51
 280 294 280 294 280 286 c 0,52,53
 280 281 280 281 276 274 c 128,-1,54
 272 267 272 267 261 267 c 0,55,56
 256 267 256 267 234 281 c 0,57,58
 214 294 214 294 180 294 c 0,59,60
 122 294 122 294 80 251 c 128,-1,61
 38 208 38 208 38 147 c 0,62,63
 38 103 38 103 65 70 c 128,-1,64
 92 37 92 37 139 28 c 1,65,-1
 163 51 l 2,66,67
 171 59 171 59 177 59 c 128,-1,68
 183 59 183 59 190 54 c 0,69,70
 196 50 196 50 196 44 c 128,-1,71
 196 38 196 38 195 35 c 1,72,-1
 184 22 l 1,0,1
EndSplineSet
Validated: 1
EndChar

StartChar: egrave
Encoding: 232 232 134
Width: 367
GlyphClass: 2
Flags: W
LayerCount: 2
Fore
SplineSet
120 516 m 1,0,1
 128 519 128 519 130 519 c 0,2,3
 139 519 139 519 149 511 c 1,4,-1
 204 433 l 1,5,6
 208 425 208 425 208 421 c 0,7,8
 208 409 208 409 200 405 c 1,9,10
 196 401 196 401 187 401 c 0,11,12
 176 401 176 401 171 410 c 1,13,-1
 110 489 l 1,14,15
 103 504 103 504 120 516 c 1,0,1
182 360 m 0,16,17
 230 360 230 360 261 337.5 c 128,-1,18
 292 315 292 315 292 273 c 0,19,20
 292 251 292 251 278.5 232 c 128,-1,21
 265 213 265 213 247 201.5 c 128,-1,22
 229 190 229 190 199 179 c 128,-1,23
 169 168 169 168 147.5 162.5 c 128,-1,24
 126 157 126 157 92.5 149 c 128,-1,25
 59 141 59 141 46 138 c 1,26,-1
 45 138 l 1,27,28
 55 90 55 90 89.5 62.5 c 128,-1,29
 124 35 124 35 177 35 c 0,30,31
 265 35 265 35 339 139 c 1,32,-1
 370 181 l 1,33,34
 378 194 378 194 388 194 c 0,35,36
 409 194 409 194 409 174 c 0,37,38
 409 169 409 169 399 152 c 0,39,40
 378 118 378 118 361.5 96.5 c 128,-1,41
 345 75 345 75 318 48.5 c 128,-1,42
 291 22 291 22 255.5 9 c 128,-1,43
 220 -4 220 -4 177 -4 c 0,44,45
 101 -4 101 -4 50.5 43.5 c 128,-1,46
 0 91 0 91 0 165 c 0,47,48
 0 245 0 245 51 302.5 c 128,-1,49
 102 360 102 360 182 360 c 0,16,17
42 181 m 1,50,51
 142 210 142 210 186.5 225 c 128,-1,52
 231 240 231 240 238 244 c 128,-1,53
 245 248 245 248 246 254 c 0,54,55
 250 272 250 272 250 280 c 0,56,57
 250 320 250 320 187 320 c 2,58,-1
 182 320 l 1,59,60
 119 319 119 319 79.5 274 c 128,-1,61
 40 229 40 229 40 182 c 1,62,-1
 42 181 l 1,50,51
39 179 m 0,63,-1
EndSplineSet
Validated: 1
EndChar

StartChar: eacute
Encoding: 233 233 135
Width: 367
GlyphClass: 2
Flags: W
LayerCount: 2
Fore
SplineSet
247 515 m 1,0,1
 264 503 264 503 256 488 c 1,2,-1
 196 409 l 1,3,4
 192 400 192 400 179 400 c 0,5,6
 171 400 171 400 167 404 c 1,7,8
 158 408 158 408 158 420 c 0,9,10
 158 424 158 424 162 432 c 1,11,-1
 218 510 l 1,12,13
 228 518 228 518 236 518 c 0,14,15
 240 518 240 518 247 515 c 1,0,1
182 360 m 0,16,17
 230 360 230 360 261 337.5 c 128,-1,18
 292 315 292 315 292 273 c 0,19,20
 292 251 292 251 278.5 232 c 128,-1,21
 265 213 265 213 247 201.5 c 128,-1,22
 229 190 229 190 199 179 c 128,-1,23
 169 168 169 168 147.5 162.5 c 128,-1,24
 126 157 126 157 92.5 149 c 128,-1,25
 59 141 59 141 46 138 c 1,26,-1
 45 138 l 1,27,28
 55 90 55 90 89.5 62.5 c 128,-1,29
 124 35 124 35 177 35 c 0,30,31
 265 35 265 35 339 139 c 1,32,-1
 370 181 l 1,33,34
 378 194 378 194 388 194 c 0,35,36
 409 194 409 194 409 174 c 0,37,38
 409 169 409 169 399 152 c 0,39,40
 378 118 378 118 361.5 96.5 c 128,-1,41
 345 75 345 75 318 48.5 c 128,-1,42
 291 22 291 22 255.5 9 c 128,-1,43
 220 -4 220 -4 177 -4 c 0,44,45
 101 -4 101 -4 50.5 43.5 c 128,-1,46
 0 91 0 91 0 165 c 0,47,48
 0 245 0 245 51 302.5 c 128,-1,49
 102 360 102 360 182 360 c 0,16,17
42 181 m 1,50,51
 142 210 142 210 186.5 225 c 128,-1,52
 231 240 231 240 238 244 c 128,-1,53
 245 248 245 248 246 254 c 0,54,55
 250 272 250 272 250 280 c 0,56,57
 250 320 250 320 187 320 c 2,58,-1
 182 320 l 1,59,60
 119 319 119 319 79.5 274 c 128,-1,61
 40 229 40 229 40 182 c 1,62,-1
 42 181 l 1,50,51
39 179 m 0,63,-1
EndSplineSet
Validated: 1
EndChar

StartChar: ecircumflex
Encoding: 234 234 136
Width: 367
GlyphClass: 2
Flags: W
LayerCount: 2
Fore
SplineSet
196 507 m 1,0,-1
 76 443 l 2,1,2
 67 438 67 438 62 437 c 1,3,4
 53 439 53 439 51 445 c 0,5,6
 50 447 50 447 55 451 c 0,7,8
 57 453 57 453 58 454 c 2,9,-1
 175 514 l 2,10,11
 177 515 177 515 181.5 518 c 128,-1,12
 186 521 186 521 190 522 c 0,13,14
 192 523 192 523 197 523 c 2,15,-1
 204 522 l 2,16,17
 208 521 208 521 212.5 518 c 128,-1,18
 217 515 217 515 219 514 c 0,19,20
 222 512 222 512 228 509 c 128,-1,21
 234 506 234 506 238 505 c 1,22,-1
 333 451 l 2,23,24
 334 450 334 450 335.5 448.5 c 128,-1,25
 337 447 337 447 337.5 446.5 c 128,-1,26
 338 446 338 446 337 444 c 0,27,28
 334 439 334 439 325 439 c 0,29,30
 322 439 322 439 318 441 c 128,-1,31
 314 443 314 443 312 443 c 2,32,-1
 196 507 l 1,0,-1
182 360 m 0,33,34
 230 360 230 360 261 337.5 c 128,-1,35
 292 315 292 315 292 273 c 0,36,37
 292 251 292 251 278.5 232 c 128,-1,38
 265 213 265 213 247 201.5 c 128,-1,39
 229 190 229 190 199 179 c 128,-1,40
 169 168 169 168 147.5 162.5 c 128,-1,41
 126 157 126 157 92.5 149 c 128,-1,42
 59 141 59 141 46 138 c 1,43,-1
 45 138 l 1,44,45
 55 90 55 90 89.5 62.5 c 128,-1,46
 124 35 124 35 177 35 c 0,47,48
 265 35 265 35 339 139 c 1,49,-1
 370 181 l 1,50,51
 378 194 378 194 388 194 c 0,52,53
 409 194 409 194 409 174 c 0,54,55
 409 169 409 169 399 152 c 0,56,57
 378 118 378 118 361.5 96.5 c 128,-1,58
 345 75 345 75 318 48.5 c 128,-1,59
 291 22 291 22 255.5 9 c 128,-1,60
 220 -4 220 -4 177 -4 c 0,61,62
 101 -4 101 -4 50.5 43.5 c 128,-1,63
 0 91 0 91 0 165 c 0,64,65
 0 245 0 245 51 302.5 c 128,-1,66
 102 360 102 360 182 360 c 0,33,34
42 181 m 1,67,68
 142 210 142 210 186.5 225 c 128,-1,69
 231 240 231 240 238 244 c 128,-1,70
 245 248 245 248 246 254 c 0,71,72
 250 272 250 272 250 280 c 0,73,74
 250 320 250 320 187 320 c 2,75,-1
 182 320 l 1,76,77
 119 319 119 319 79.5 274 c 128,-1,78
 40 229 40 229 40 182 c 1,79,-1
 42 181 l 1,67,68
39 179 m 0,80,-1
EndSplineSet
Validated: 1
EndChar

StartChar: edieresis
Encoding: 235 235 137
Width: 367
GlyphClass: 2
Flags: W
LayerCount: 2
Fore
SplineSet
254 476 m 128,-1,1
 254 492 254 492 267.5 504 c 128,-1,2
 281 516 281 516 299 516 c 128,-1,3
 317 516 317 516 330 504 c 128,-1,4
 343 492 343 492 343 476 c 128,-1,5
 343 460 343 460 330 448 c 128,-1,6
 317 436 317 436 299 436 c 128,-1,7
 281 436 281 436 267.5 448 c 128,-1,0
 254 460 254 460 254 476 c 128,-1,1
78 477 m 128,-1,9
 78 493 78 493 91 505 c 128,-1,10
 104 517 104 517 122 517 c 128,-1,11
 140 517 140 517 153 505 c 128,-1,12
 166 493 166 493 166 477 c 128,-1,13
 166 461 166 461 153 449 c 128,-1,14
 140 437 140 437 122 437 c 128,-1,15
 104 437 104 437 91 449 c 128,-1,8
 78 461 78 461 78 477 c 128,-1,9
182 360 m 0,16,17
 230 360 230 360 261 337.5 c 128,-1,18
 292 315 292 315 292 273 c 0,19,20
 292 251 292 251 278.5 232 c 128,-1,21
 265 213 265 213 247 201.5 c 128,-1,22
 229 190 229 190 199 179 c 128,-1,23
 169 168 169 168 147.5 162.5 c 128,-1,24
 126 157 126 157 92.5 149 c 128,-1,25
 59 141 59 141 46 138 c 1,26,-1
 45 138 l 1,27,28
 55 90 55 90 89.5 62.5 c 128,-1,29
 124 35 124 35 177 35 c 0,30,31
 265 35 265 35 339 139 c 1,32,-1
 370 181 l 1,33,34
 378 194 378 194 388 194 c 0,35,36
 409 194 409 194 409 174 c 0,37,38
 409 169 409 169 399 152 c 0,39,40
 378 118 378 118 361.5 96.5 c 128,-1,41
 345 75 345 75 318 48.5 c 128,-1,42
 291 22 291 22 255.5 9 c 128,-1,43
 220 -4 220 -4 177 -4 c 0,44,45
 101 -4 101 -4 50.5 43.5 c 128,-1,46
 0 91 0 91 0 165 c 0,47,48
 0 245 0 245 51 302.5 c 128,-1,49
 102 360 102 360 182 360 c 0,16,17
42 181 m 1,50,51
 142 210 142 210 186.5 225 c 128,-1,52
 231 240 231 240 238 244 c 128,-1,53
 245 248 245 248 246 254 c 0,54,55
 250 272 250 272 250 280 c 0,56,57
 250 320 250 320 187 320 c 2,58,-1
 182 320 l 1,59,60
 119 319 119 319 79.5 274 c 128,-1,61
 40 229 40 229 40 182 c 1,62,-1
 42 181 l 1,50,51
39 179 m 0,63,-1
EndSplineSet
Validated: 1
EndChar

StartChar: igrave
Encoding: 236 236 138
Width: 275
GlyphClass: 2
Flags: W
LayerCount: 2
Fore
SplineSet
14 494 m 0,0,1
 20 497 20 497 24 497 c 0,2,3
 33 497 33 497 41 489 c 1,4,-1
 93 417 l 1,5,6
 96 411 96 411 96 406 c 0,7,8
 96 396 96 396 88 391 c 1,9,10
 84 387 84 387 76 387 c 0,11,12
 66 387 66 387 61 395 c 2,13,-1
 6 469 l 1,14,15
 -1 485 -1 485 14 494 c 0,0,1
2 186 m 1,16,-1
 55 275 l 1,17,-1
 55 346 l 1,18,19
 56 347 56 347 59.5 352 c 128,-1,20
 63 357 63 357 67 360 c 128,-1,21
 71 363 71 363 75 363 c 0,22,23
 88 363 88 363 91 357 c 0,24,25
 95 349 95 349 95 343 c 2,26,-1
 95 89 l 2,27,28
 95 70 95 70 103 57 c 0,29,30
 105 53 105 53 108.5 51.5 c 128,-1,31
 112 50 112 50 118.5 48 c 128,-1,32
 125 46 125 46 128 45 c 0,33,34
 134 43 134 43 138 43 c 0,35,36
 163 43 163 43 204 82.5 c 128,-1,37
 245 122 245 122 280 180 c 0,38,39
 284 187 284 187 295 187 c 0,40,41
 302 187 302 187 309 181 c 128,-1,42
 316 175 316 175 316 170 c 0,43,44
 316 167 316 167 315 166 c 0,45,46
 284 112 284 112 252 75.5 c 128,-1,47
 220 39 220 39 194 25 c 128,-1,48
 168 11 168 11 154 7 c 128,-1,49
 140 3 140 3 128 3 c 0,50,51
 93 3 93 3 74.5 26 c 128,-1,52
 56 49 56 49 56 88 c 2,53,-1
 56 89 l 1,54,-1
 57 201 l 1,55,-1
 33 163 l 1,56,57
 26 159 26 159 18 159 c 1,58,59
 4 161 4 161 1 171 c 1,60,61
 1 181 1 181 2 186 c 1,16,-1
EndSplineSet
Validated: 1
EndChar

StartChar: iacute
Encoding: 237 237 139
Width: 275
GlyphClass: 2
Flags: W
LayerCount: 2
Fore
SplineSet
137 511 m 0,0,1
 153 501 153 501 146 486 c 1,2,-1
 90 413 l 1,3,4
 85 404 85 404 75 404 c 0,5,6
 68 404 68 404 63 409 c 1,7,8
 55 414 55 414 55 423 c 0,9,10
 55 426 55 426 59 434 c 1,11,-1
 110 507 l 1,12,13
 117 514 117 514 127 514 c 0,14,15
 131 514 131 514 137 511 c 0,0,1
2 186 m 1,16,-1
 55 275 l 1,17,-1
 55 346 l 1,18,19
 56 347 56 347 59.5 352 c 128,-1,20
 63 357 63 357 67 360 c 128,-1,21
 71 363 71 363 75 363 c 0,22,23
 88 363 88 363 91 357 c 0,24,25
 95 349 95 349 95 343 c 2,26,-1
 95 89 l 2,27,28
 95 70 95 70 103 57 c 0,29,30
 105 53 105 53 108.5 51.5 c 128,-1,31
 112 50 112 50 118.5 48 c 128,-1,32
 125 46 125 46 128 45 c 0,33,34
 134 43 134 43 138 43 c 0,35,36
 163 43 163 43 204 82.5 c 128,-1,37
 245 122 245 122 280 180 c 0,38,39
 284 187 284 187 295 187 c 0,40,41
 302 187 302 187 309 181 c 128,-1,42
 316 175 316 175 316 170 c 0,43,44
 316 167 316 167 315 166 c 0,45,46
 284 112 284 112 252 75.5 c 128,-1,47
 220 39 220 39 194 25 c 128,-1,48
 168 11 168 11 154 7 c 128,-1,49
 140 3 140 3 128 3 c 0,50,51
 93 3 93 3 74.5 26 c 128,-1,52
 56 49 56 49 56 88 c 2,53,-1
 56 89 l 1,54,-1
 57 201 l 1,55,-1
 33 163 l 1,56,57
 26 159 26 159 18 159 c 1,58,59
 4 161 4 161 1 171 c 1,60,61
 1 181 1 181 2 186 c 1,16,-1
EndSplineSet
Validated: 1
EndChar

StartChar: icircumflex
Encoding: 238 238 140
Width: 275
GlyphClass: 2
Flags: W
LayerCount: 2
Fore
SplineSet
79 453 m 1,0,-1
 -32 393 l 2,1,2
 -40 389 -40 389 -45 388 c 1,3,4
 -53 390 -53 390 -55 395 c 0,5,6
 -56 397 -56 397 -52 400 c 0,7,8
 -50 402 -50 402 -49 403 c 2,9,-1
 60 460 l 2,10,11
 69 465 69 465 74 467 c 0,12,13
 76 468 76 468 80 468 c 2,14,-1
 87 467 l 1,15,16
 92 465 92 465 101 460 c 0,17,18
 104 458 104 458 109.5 455 c 128,-1,19
 115 452 115 452 118 451 c 2,20,-1
 206 401 l 2,21,22
 207 400 207 400 208.5 398.5 c 128,-1,23
 210 397 210 397 210.5 396.5 c 128,-1,24
 211 396 211 396 210 394 c 0,25,26
 207 390 207 390 198 390 c 0,27,28
 195 390 195 390 191.5 391.5 c 128,-1,29
 188 393 188 393 187 393 c 2,30,-1
 79 453 l 1,0,-1
2 186 m 1,31,-1
 55 275 l 1,32,-1
 55 346 l 1,33,34
 56 347 56 347 59.5 352 c 128,-1,35
 63 357 63 357 67 360 c 128,-1,36
 71 363 71 363 75 363 c 0,37,38
 88 363 88 363 91 357 c 0,39,40
 95 349 95 349 95 343 c 2,41,-1
 95 89 l 2,42,43
 95 70 95 70 103 57 c 0,44,45
 105 53 105 53 108.5 51.5 c 128,-1,46
 112 50 112 50 118.5 48 c 128,-1,47
 125 46 125 46 128 45 c 0,48,49
 134 43 134 43 138 43 c 0,50,51
 163 43 163 43 204 82.5 c 128,-1,52
 245 122 245 122 280 180 c 0,53,54
 284 187 284 187 295 187 c 0,55,56
 302 187 302 187 309 181 c 128,-1,57
 316 175 316 175 316 170 c 0,58,59
 316 167 316 167 315 166 c 0,60,61
 284 112 284 112 252 75.5 c 128,-1,62
 220 39 220 39 194 25 c 128,-1,63
 168 11 168 11 154 7 c 128,-1,64
 140 3 140 3 128 3 c 0,65,66
 93 3 93 3 74.5 26 c 128,-1,67
 56 49 56 49 56 88 c 2,68,-1
 56 89 l 1,69,-1
 57 201 l 1,70,-1
 33 163 l 1,71,72
 26 159 26 159 18 159 c 1,73,74
 4 161 4 161 1 171 c 1,75,76
 1 181 1 181 2 186 c 1,31,-1
EndSplineSet
Validated: 1
EndChar

StartChar: idieresis
Encoding: 239 239 141
Width: 275
GlyphClass: 2
Flags: W
LayerCount: 2
Fore
SplineSet
121 430 m 128,-1,1
 121 445 121 445 133 456 c 128,-1,2
 145 467 145 467 162 467 c 128,-1,3
 179 467 179 467 191 456 c 128,-1,4
 203 445 203 445 203 430 c 128,-1,5
 203 415 203 415 191 404 c 128,-1,6
 179 393 179 393 162 393 c 128,-1,7
 145 393 145 393 133 404 c 128,-1,0
 121 415 121 415 121 430 c 128,-1,1
-43 431 m 128,-1,9
 -43 446 -43 446 -31 457 c 128,-1,10
 -19 468 -19 468 -2 468 c 128,-1,11
 15 468 15 468 27 457 c 128,-1,12
 39 446 39 446 39 431 c 128,-1,13
 39 416 39 416 27 405 c 128,-1,14
 15 394 15 394 -2 394 c 128,-1,15
 -19 394 -19 394 -31 405 c 128,-1,8
 -43 416 -43 416 -43 431 c 128,-1,9
2 186 m 1,16,-1
 55 275 l 1,17,-1
 55 346 l 1,18,19
 56 347 56 347 59.5 352 c 128,-1,20
 63 357 63 357 67 360 c 128,-1,21
 71 363 71 363 75 363 c 0,22,23
 88 363 88 363 91 357 c 0,24,25
 95 349 95 349 95 343 c 2,26,-1
 95 89 l 2,27,28
 95 70 95 70 103 57 c 0,29,30
 105 53 105 53 108.5 51.5 c 128,-1,31
 112 50 112 50 118.5 48 c 128,-1,32
 125 46 125 46 128 45 c 0,33,34
 134 43 134 43 138 43 c 0,35,36
 163 43 163 43 204 82.5 c 128,-1,37
 245 122 245 122 280 180 c 0,38,39
 284 187 284 187 295 187 c 0,40,41
 302 187 302 187 309 181 c 128,-1,42
 316 175 316 175 316 170 c 0,43,44
 316 167 316 167 315 166 c 0,45,46
 284 112 284 112 252 75.5 c 128,-1,47
 220 39 220 39 194 25 c 128,-1,48
 168 11 168 11 154 7 c 128,-1,49
 140 3 140 3 128 3 c 0,50,51
 93 3 93 3 74.5 26 c 128,-1,52
 56 49 56 49 56 88 c 2,53,-1
 56 89 l 1,54,-1
 57 201 l 1,55,-1
 33 163 l 1,56,57
 26 159 26 159 18 159 c 1,58,59
 4 161 4 161 1 171 c 1,60,61
 1 181 1 181 2 186 c 1,16,-1
EndSplineSet
Validated: 1
EndChar

StartChar: ntilde
Encoding: 241 241 142
Width: 690
GlyphClass: 2
Flags: W
LayerCount: 2
Fore
SplineSet
248 435 m 0,0,1
 248 455 248 455 267 455 c 2,2,-1
 472 455 l 2,3,4
 481 455 481 455 486 450 c 0,5,6
 493 443 493 443 493 435 c 0,7,8
 493 417 493 417 472 417 c 2,9,-1
 267 417 l 2,10,11
 248 417 248 417 248 435 c 0,0,1
245 181 m 2,12,-1
 245 18 l 2,13,14
 245 0 245 0 227 0 c 0,15,16
 219 0 219 0 214 5 c 0,17,18
 208 13 208 13 208 19 c 2,19,-1
 208 232 l 2,20,21
 208 279 208 279 191 302 c 0,22,23
 173 326 173 326 155 326 c 0,24,25
 131 326 131 326 113 316 c 0,26,27
 100 309 100 309 90 291 c 1,28,-1
 30 167 l 1,29,30
 23 160 23 160 16 160 c 0,31,32
 10 160 10 160 4 166 c 0,33,34
 0 170 0 170 0 183 c 0,35,36
 0 188 0 188 3 194 c 2,37,-1
 61 317 l 1,38,39
 78 341 78 341 98 353 c 0,40,41
 121 366 121 366 158 366 c 0,42,43
 184 366 184 366 209 343 c 0,44,45
 236 318 236 318 240 285 c 1,46,47
 260 319 260 319 287 341 c 0,48,49
 318 366 318 366 365 366 c 0,50,51
 429 366 429 366 467 327 c 0,52,53
 506 286 506 286 506 212 c 2,54,-1
 506 87 l 2,55,56
 506 69 506 69 513 53 c 0,57,58
 519 40 519 40 536 40 c 0,59,60
 564 40 564 40 582 55 c 128,-1,61
 600 70 600 70 611 81 c 0,62,63
 635 105 635 105 649 131 c 2,64,-1
 681 187 l 1,65,66
 689 195 689 195 694 195 c 0,67,68
 698 195 698 195 707 189 c 1,69,70
 713 182 713 182 713 174 c 0,71,72
 713 169 713 169 710 163 c 2,73,-1
 682 112 l 2,74,75
 664 78 664 78 643 57 c 1,76,-1
 609 27 l 1,77,78
 568 0 568 0 535 0 c 0,79,80
 504 0 504 0 487 23 c 0,81,82
 469 48 469 48 469 87 c 2,83,-1
 469 215 l 2,84,85
 469 271 469 271 440 296 c 0,86,87
 406 325 406 325 366 325 c 0,88,89
 320 325 320 325 283 282 c 0,90,91
 245 238 245 238 245 181 c 2,12,-1
EndSplineSet
Validated: 1
EndChar

StartChar: ograve
Encoding: 242 242 143
Width: 424
GlyphClass: 2
Flags: W
LayerCount: 2
Fore
SplineSet
127 528 m 0,0,1
 133 531 133 531 137 531 c 0,2,3
 147 531 147 531 154 524 c 1,4,-1
 206 452 l 1,5,6
 209 446 209 446 209 440 c 0,7,8
 209 430 209 430 202 426 c 1,9,10
 198 422 198 422 190 422 c 0,11,12
 180 422 180 422 175 430 c 2,13,-1
 119 504 l 1,14,15
 112 519 112 519 127 528 c 0,0,1
337 124 m 1,16,17
 318 74 318 74 270.5 37.5 c 128,-1,18
 223 1 223 1 162 1 c 0,19,20
 102 1 102 1 51 48 c 128,-1,21
 0 95 0 95 0 152 c 0,22,23
 0 154 0 154 0.5 156 c 128,-1,24
 1 158 1 158 1 160 c 2,25,-1
 5 215 l 1,26,-1
 10 237 l 1,27,-1
 23 272 l 1,28,29
 48 307 48 307 57.5 319 c 128,-1,30
 67 331 67 331 85.5 345.5 c 128,-1,31
 104 360 104 360 132 372 c 0,32,33
 161 384 161 384 194 384 c 0,34,35
 264 384 264 384 308 332.5 c 128,-1,36
 352 281 352 281 352 209 c 2,37,-1
 352 187 l 2,38,39
 352 184 352 184 347 164 c 1,40,41
 355 160 355 160 370 160 c 1,42,43
 386 158 386 158 387 158 c 0,44,45
 393 158 393 158 407 163 c 1,46,-1
 420 176 l 2,47,48
 426 182 426 182 435 182 c 0,49,50
 456 182 456 182 456 172 c 0,51,52
 456 165 456 165 445.5 153.5 c 128,-1,53
 435 142 435 142 424 134 c 2,54,-1
 414 126 l 1,55,56
 405 121 405 121 389 121 c 0,57,58
 375 121 375 121 366 122 c 2,59,-1
 337 124 l 1,16,17
295 135 m 1,60,61
 221 150 221 150 165.5 195.5 c 128,-1,62
 110 241 110 241 110 307 c 1,63,64
 83 291 83 291 63 253 c 128,-1,65
 43 215 43 215 43 175 c 0,66,67
 43 122 43 122 77.5 81.5 c 128,-1,68
 112 41 112 41 162 41 c 0,69,70
 207 41 207 41 241.5 68.5 c 128,-1,71
 276 96 276 96 295 135 c 1,60,61
306 175 m 1,72,73
 310 187 310 187 310 208 c 2,74,-1
 310 209 l 2,75,76
 310 265 310 265 278 304.5 c 128,-1,77
 246 344 246 344 192 344 c 0,78,79
 152 344 152 344 152 303 c 0,80,81
 152 254 152 254 200 220.5 c 128,-1,82
 248 187 248 187 306 175 c 1,72,73
EndSplineSet
Validated: 1
EndChar

StartChar: oacute
Encoding: 243 243 144
Width: 424
GlyphClass: 2
Flags: W
LayerCount: 2
Fore
SplineSet
249 526 m 0,0,1
 265 517 265 517 258 502 c 1,2,-1
 202 428 l 2,3,4
 197 420 197 420 187 420 c 0,5,6
 179 420 179 420 175 424 c 1,7,8
 168 428 168 428 168 438 c 0,9,10
 168 444 168 444 171 450 c 1,11,-1
 223 522 l 1,12,13
 230 529 230 529 240 529 c 0,14,15
 243 529 243 529 249 526 c 0,0,1
337 124 m 1,16,17
 318 74 318 74 270.5 37.5 c 128,-1,18
 223 1 223 1 162 1 c 0,19,20
 102 1 102 1 51 48 c 128,-1,21
 0 95 0 95 0 152 c 0,22,23
 0 154 0 154 0.5 156 c 128,-1,24
 1 158 1 158 1 160 c 2,25,-1
 5 215 l 1,26,-1
 10 237 l 1,27,-1
 23 272 l 1,28,29
 48 307 48 307 57.5 319 c 128,-1,30
 67 331 67 331 85.5 345.5 c 128,-1,31
 104 360 104 360 132 372 c 0,32,33
 161 384 161 384 194 384 c 0,34,35
 264 384 264 384 308 332.5 c 128,-1,36
 352 281 352 281 352 209 c 2,37,-1
 352 187 l 2,38,39
 352 184 352 184 347 164 c 1,40,41
 355 160 355 160 370 160 c 1,42,43
 386 158 386 158 387 158 c 0,44,45
 393 158 393 158 407 163 c 1,46,-1
 420 176 l 2,47,48
 426 182 426 182 435 182 c 0,49,50
 456 182 456 182 456 172 c 0,51,52
 456 165 456 165 445.5 153.5 c 128,-1,53
 435 142 435 142 424 134 c 2,54,-1
 414 126 l 1,55,56
 405 121 405 121 389 121 c 0,57,58
 375 121 375 121 366 122 c 2,59,-1
 337 124 l 1,16,17
295 135 m 1,60,61
 221 150 221 150 165.5 195.5 c 128,-1,62
 110 241 110 241 110 307 c 1,63,64
 83 291 83 291 63 253 c 128,-1,65
 43 215 43 215 43 175 c 0,66,67
 43 122 43 122 77.5 81.5 c 128,-1,68
 112 41 112 41 162 41 c 0,69,70
 207 41 207 41 241.5 68.5 c 128,-1,71
 276 96 276 96 295 135 c 1,60,61
306 175 m 1,72,73
 310 187 310 187 310 208 c 2,74,-1
 310 209 l 2,75,76
 310 265 310 265 278 304.5 c 128,-1,77
 246 344 246 344 192 344 c 0,78,79
 152 344 152 344 152 303 c 0,80,81
 152 254 152 254 200 220.5 c 128,-1,82
 248 187 248 187 306 175 c 1,72,73
EndSplineSet
Validated: 1
EndChar

StartChar: ocircumflex
Encoding: 244 244 145
Width: 424
GlyphClass: 2
Flags: W
LayerCount: 2
Fore
SplineSet
181 475 m 1,0,-1
 70 416 l 2,1,2
 61 412 61 412 58 411 c 1,3,4
 49 413 49 413 47 418 c 0,5,6
 46 420 46 420 50 423 c 0,7,8
 52 425 52 425 53 426 c 2,9,-1
 162 482 l 2,10,11
 171 487 171 487 176 489 c 0,12,13
 178 490 178 490 182 490 c 2,14,-1
 189 489 l 1,15,16
 194 487 194 487 203 482 c 0,17,18
 206 480 206 480 211.5 477 c 128,-1,19
 217 474 217 474 220 473 c 2,20,-1
 308 424 l 1,21,22
 312 418 312 418 312 417 c 0,23,24
 309 413 309 413 301 413 c 1,25,-1
 289 416 l 1,26,-1
 181 475 l 1,0,-1
337 124 m 1,27,28
 318 74 318 74 270.5 37.5 c 128,-1,29
 223 1 223 1 162 1 c 0,30,31
 102 1 102 1 51 48 c 128,-1,32
 0 95 0 95 0 152 c 0,33,34
 0 154 0 154 0.5 156 c 128,-1,35
 1 158 1 158 1 160 c 2,36,-1
 5 215 l 1,37,-1
 10 237 l 1,38,-1
 23 272 l 1,39,40
 48 307 48 307 57.5 319 c 128,-1,41
 67 331 67 331 85.5 345.5 c 128,-1,42
 104 360 104 360 132 372 c 0,43,44
 161 384 161 384 194 384 c 0,45,46
 264 384 264 384 308 332.5 c 128,-1,47
 352 281 352 281 352 209 c 2,48,-1
 352 187 l 2,49,50
 352 184 352 184 347 164 c 1,51,52
 355 160 355 160 370 160 c 1,53,54
 386 158 386 158 387 158 c 0,55,56
 393 158 393 158 407 163 c 1,57,-1
 420 176 l 2,58,59
 426 182 426 182 435 182 c 0,60,61
 456 182 456 182 456 172 c 0,62,63
 456 165 456 165 445.5 153.5 c 128,-1,64
 435 142 435 142 424 134 c 2,65,-1
 414 126 l 1,66,67
 405 121 405 121 389 121 c 0,68,69
 375 121 375 121 366 122 c 2,70,-1
 337 124 l 1,27,28
295 135 m 1,71,72
 221 150 221 150 165.5 195.5 c 128,-1,73
 110 241 110 241 110 307 c 1,74,75
 83 291 83 291 63 253 c 128,-1,76
 43 215 43 215 43 175 c 0,77,78
 43 122 43 122 77.5 81.5 c 128,-1,79
 112 41 112 41 162 41 c 0,80,81
 207 41 207 41 241.5 68.5 c 128,-1,82
 276 96 276 96 295 135 c 1,71,72
306 175 m 1,83,84
 310 187 310 187 310 208 c 2,85,-1
 310 209 l 2,86,87
 310 265 310 265 278 304.5 c 128,-1,88
 246 344 246 344 192 344 c 0,89,90
 152 344 152 344 152 303 c 0,91,92
 152 254 152 254 200 220.5 c 128,-1,93
 248 187 248 187 306 175 c 1,83,84
EndSplineSet
Validated: 1
EndChar

StartChar: otilde
Encoding: 245 245 146
Width: 424
GlyphClass: 2
Flags: W
LayerCount: 2
Fore
SplineSet
86 461 m 128,-1,1
 86 480 86 480 104 480 c 2,2,-1
 310 480 l 2,3,4
 319 480 319 480 324 475 c 0,5,6
 330 469 330 469 330 461 c 0,7,8
 330 442 330 442 310 442 c 2,9,-1
 104 442 l 2,10,0
 86 442 86 442 86 461 c 128,-1,1
337 124 m 1,11,12
 318 74 318 74 270.5 37.5 c 128,-1,13
 223 1 223 1 162 1 c 0,14,15
 102 1 102 1 51 48 c 128,-1,16
 0 95 0 95 0 152 c 0,17,18
 0 154 0 154 0.5 156 c 128,-1,19
 1 158 1 158 1 160 c 2,20,-1
 5 215 l 1,21,-1
 10 237 l 1,22,-1
 23 272 l 1,23,24
 48 307 48 307 57.5 319 c 128,-1,25
 67 331 67 331 85.5 345.5 c 128,-1,26
 104 360 104 360 132 372 c 0,27,28
 161 384 161 384 194 384 c 0,29,30
 264 384 264 384 308 332.5 c 128,-1,31
 352 281 352 281 352 209 c 2,32,-1
 352 187 l 2,33,34
 352 184 352 184 347 164 c 1,35,36
 355 160 355 160 370 160 c 1,37,38
 386 158 386 158 387 158 c 0,39,40
 393 158 393 158 407 163 c 1,41,-1
 420 176 l 2,42,43
 426 182 426 182 435 182 c 0,44,45
 456 182 456 182 456 172 c 0,46,47
 456 165 456 165 445.5 153.5 c 128,-1,48
 435 142 435 142 424 134 c 2,49,-1
 414 126 l 1,50,51
 405 121 405 121 389 121 c 0,52,53
 375 121 375 121 366 122 c 2,54,-1
 337 124 l 1,11,12
295 135 m 1,55,56
 221 150 221 150 165.5 195.5 c 128,-1,57
 110 241 110 241 110 307 c 1,58,59
 83 291 83 291 63 253 c 128,-1,60
 43 215 43 215 43 175 c 0,61,62
 43 122 43 122 77.5 81.5 c 128,-1,63
 112 41 112 41 162 41 c 0,64,65
 207 41 207 41 241.5 68.5 c 128,-1,66
 276 96 276 96 295 135 c 1,55,56
306 175 m 1,67,68
 310 187 310 187 310 208 c 2,69,-1
 310 209 l 2,70,71
 310 265 310 265 278 304.5 c 128,-1,72
 246 344 246 344 192 344 c 0,73,74
 152 344 152 344 152 303 c 0,75,76
 152 254 152 254 200 220.5 c 128,-1,77
 248 187 248 187 306 175 c 1,67,68
EndSplineSet
Validated: 1
EndChar

StartChar: odieresis
Encoding: 246 246 147
Width: 424
GlyphClass: 2
Flags: W
LayerCount: 2
Fore
SplineSet
209 451 m 128,-1,1
 209 466 209 466 221 476.5 c 128,-1,2
 233 487 233 487 250 487 c 128,-1,3
 267 487 267 487 279 476.5 c 128,-1,4
 291 466 291 466 291 451 c 128,-1,5
 291 436 291 436 279 425 c 128,-1,6
 267 414 267 414 250 414 c 128,-1,7
 233 414 233 414 221 425 c 128,-1,0
 209 436 209 436 209 451 c 128,-1,1
45 452 m 128,-1,9
 45 467 45 467 57 477.5 c 128,-1,10
 69 488 69 488 86 488 c 128,-1,11
 103 488 103 488 115 477.5 c 128,-1,12
 127 467 127 467 127 452 c 128,-1,13
 127 437 127 437 115 426 c 128,-1,14
 103 415 103 415 86 415 c 128,-1,15
 69 415 69 415 57 426 c 128,-1,8
 45 437 45 437 45 452 c 128,-1,9
337 124 m 1,16,17
 318 74 318 74 270.5 37.5 c 128,-1,18
 223 1 223 1 162 1 c 0,19,20
 102 1 102 1 51 48 c 128,-1,21
 0 95 0 95 0 152 c 0,22,23
 0 154 0 154 0.5 156 c 128,-1,24
 1 158 1 158 1 160 c 2,25,-1
 5 215 l 1,26,-1
 10 237 l 1,27,-1
 23 272 l 1,28,29
 48 307 48 307 57.5 319 c 128,-1,30
 67 331 67 331 85.5 345.5 c 128,-1,31
 104 360 104 360 132 372 c 0,32,33
 161 384 161 384 194 384 c 0,34,35
 264 384 264 384 308 332.5 c 128,-1,36
 352 281 352 281 352 209 c 2,37,-1
 352 187 l 2,38,39
 352 184 352 184 347 164 c 1,40,41
 355 160 355 160 370 160 c 1,42,43
 386 158 386 158 387 158 c 0,44,45
 393 158 393 158 407 163 c 1,46,-1
 420 176 l 2,47,48
 426 182 426 182 435 182 c 0,49,50
 456 182 456 182 456 172 c 0,51,52
 456 165 456 165 445.5 153.5 c 128,-1,53
 435 142 435 142 424 134 c 2,54,-1
 414 126 l 1,55,56
 405 121 405 121 389 121 c 0,57,58
 375 121 375 121 366 122 c 2,59,-1
 337 124 l 1,16,17
295 135 m 1,60,61
 221 150 221 150 165.5 195.5 c 128,-1,62
 110 241 110 241 110 307 c 1,63,64
 83 291 83 291 63 253 c 128,-1,65
 43 215 43 215 43 175 c 0,66,67
 43 122 43 122 77.5 81.5 c 128,-1,68
 112 41 112 41 162 41 c 0,69,70
 207 41 207 41 241.5 68.5 c 128,-1,71
 276 96 276 96 295 135 c 1,60,61
306 175 m 1,72,73
 310 187 310 187 310 208 c 2,74,-1
 310 209 l 2,75,76
 310 265 310 265 278 304.5 c 128,-1,77
 246 344 246 344 192 344 c 0,78,79
 152 344 152 344 152 303 c 0,80,81
 152 254 152 254 200 220.5 c 128,-1,82
 248 187 248 187 306 175 c 1,72,73
EndSplineSet
Validated: 1
EndChar

StartChar: divide
Encoding: 247 247 148
Width: 374
GlyphClass: 2
Flags: W
LayerCount: 2
Fore
SplineSet
102 451 m 0,0,1
 117 451 117 451 128 440 c 0,2,3
 138 430 138 430 138 417 c 0,4,5
 138 403 138 403 128 393 c 128,-1,6
 118 383 118 383 102 383 c 0,7,8
 88 383 88 383 78 393 c 128,-1,9
 68 403 68 403 68 417 c 128,-1,10
 68 431 68 431 78 441 c 128,-1,11
 88 451 88 451 102 451 c 0,0,1
102 191 m 0,12,13
 138 191 138 191 138 158 c 0,14,15
 138 139 138 139 127 132 c 0,16,17
 114 124 114 124 102 124 c 0,18,19
 88 124 88 124 78 134 c 128,-1,20
 68 144 68 144 68 158 c 0,21,22
 68 191 68 191 102 191 c 0,12,13
EndSplineSet
Validated: 1
EndChar

StartChar: ugrave
Encoding: 249 249 149
Width: 514
GlyphClass: 2
Flags: W
LayerCount: 2
Fore
SplineSet
110 516 m 0,0,1
 116 519 116 519 120 519 c 0,2,3
 130 519 130 519 137 512 c 1,4,-1
 189 439 l 1,5,6
 192 433 192 433 192 428 c 0,7,8
 192 418 192 418 185 414 c 1,9,10
 181 410 181 410 173 410 c 0,11,12
 163 410 163 410 158 418 c 2,13,-1
 102 492 l 1,14,15
 95 507 95 507 110 516 c 0,0,1
0 355 m 1,16,17
 8 369 8 369 25 369 c 0,18,19
 33 369 33 369 38 365.5 c 128,-1,20
 43 362 43 362 42 356 c 1,21,-1
 43 151 l 2,22,23
 43 92 43 92 74 69 c 0,24,25
 113 40 113 40 158 40 c 0,26,27
 212 40 212 40 251 84 c 128,-1,28
 290 128 290 128 290 184 c 2,29,-1
 290 347 l 2,30,31
 290 366 290 366 312 366 c 0,32,33
 320 366 320 366 326 360 c 128,-1,34
 332 354 332 354 332 346 c 2,35,-1
 332 131 l 2,36,37
 332 82 332 82 351 62 c 0,38,39
 371 40 371 40 392 40 c 0,40,41
 421 40 421 40 431 48 c 0,42,43
 444 59 444 59 458 81 c 2,44,-1
 505 153 l 2,45,46
 514 165 514 165 524 165 c 0,47,48
 532 165 532 165 538.5 159.5 c 128,-1,49
 545 154 545 154 545 146 c 0,50,51
 545 137 545 137 542 134 c 1,52,-1
 494 55 l 1,53,54
 463 0 463 0 388 0 c 0,55,56
 354 0 354 0 327.5 24.5 c 128,-1,57
 301 49 301 49 296 81 c 1,58,59
 241 0 241 0 158 0 c 0,60,61
 85 0 85 0 43.5 41 c 128,-1,62
 2 82 2 82 1 154 c 2,63,-1
 0 355 l 1,16,17
EndSplineSet
Validated: 1
EndChar

StartChar: uacute
Encoding: 250 250 150
Width: 514
GlyphClass: 2
Flags: W
LayerCount: 2
Fore
SplineSet
220 526 m 0,0,1
 235 517 235 517 228 502 c 1,2,-1
 172 428 l 2,3,4
 167 420 167 420 157 420 c 0,5,6
 149 420 149 420 145 424 c 1,7,8
 138 428 138 428 138 438 c 0,9,10
 138 444 138 444 141 450 c 1,11,-1
 193 522 l 1,12,13
 200 529 200 529 210 529 c 0,14,15
 214 529 214 529 220 526 c 0,0,1
0 355 m 1,16,17
 8 369 8 369 25 369 c 0,18,19
 33 369 33 369 38 365.5 c 128,-1,20
 43 362 43 362 42 356 c 1,21,-1
 43 151 l 2,22,23
 43 92 43 92 74 69 c 0,24,25
 113 40 113 40 158 40 c 0,26,27
 212 40 212 40 251 84 c 128,-1,28
 290 128 290 128 290 184 c 2,29,-1
 290 347 l 2,30,31
 290 366 290 366 312 366 c 0,32,33
 320 366 320 366 326 360 c 128,-1,34
 332 354 332 354 332 346 c 2,35,-1
 332 131 l 2,36,37
 332 82 332 82 351 62 c 0,38,39
 371 40 371 40 392 40 c 0,40,41
 421 40 421 40 431 48 c 0,42,43
 444 59 444 59 458 81 c 2,44,-1
 505 153 l 2,45,46
 514 165 514 165 524 165 c 0,47,48
 532 165 532 165 538.5 159.5 c 128,-1,49
 545 154 545 154 545 146 c 0,50,51
 545 137 545 137 542 134 c 1,52,-1
 494 55 l 1,53,54
 463 0 463 0 388 0 c 0,55,56
 354 0 354 0 327.5 24.5 c 128,-1,57
 301 49 301 49 296 81 c 1,58,59
 241 0 241 0 158 0 c 0,60,61
 85 0 85 0 43.5 41 c 128,-1,62
 2 82 2 82 1 154 c 2,63,-1
 0 355 l 1,16,17
EndSplineSet
Validated: 1
EndChar

StartChar: ucircumflex
Encoding: 251 251 151
Width: 514
GlyphClass: 2
Flags: W
LayerCount: 2
Fore
SplineSet
181 475 m 1,0,-1
 70 416 l 2,1,2
 61 412 61 412 58 411 c 1,3,4
 49 413 49 413 47 418 c 0,5,6
 46 420 46 420 50 423 c 0,7,8
 52 425 52 425 53 426 c 2,9,-1
 162 482 l 2,10,11
 171 487 171 487 176 489 c 0,12,13
 178 490 178 490 182 490 c 2,14,-1
 189 489 l 1,15,16
 194 487 194 487 203 482 c 0,17,18
 206 480 206 480 211.5 477 c 128,-1,19
 217 474 217 474 220 473 c 2,20,-1
 308 424 l 1,21,22
 312 418 312 418 312 417 c 0,23,24
 309 413 309 413 301 413 c 1,25,-1
 289 416 l 1,26,-1
 181 475 l 1,0,-1
0 355 m 1,27,28
 8 369 8 369 25 369 c 0,29,30
 33 369 33 369 38 365.5 c 128,-1,31
 43 362 43 362 42 356 c 1,32,-1
 43 151 l 2,33,34
 43 92 43 92 74 69 c 0,35,36
 113 40 113 40 158 40 c 0,37,38
 212 40 212 40 251 84 c 128,-1,39
 290 128 290 128 290 184 c 2,40,-1
 290 347 l 2,41,42
 290 366 290 366 312 366 c 0,43,44
 320 366 320 366 326 360 c 128,-1,45
 332 354 332 354 332 346 c 2,46,-1
 332 131 l 2,47,48
 332 82 332 82 351 62 c 0,49,50
 371 40 371 40 392 40 c 0,51,52
 421 40 421 40 431 48 c 0,53,54
 444 59 444 59 458 81 c 2,55,-1
 505 153 l 2,56,57
 514 165 514 165 524 165 c 0,58,59
 532 165 532 165 538.5 159.5 c 128,-1,60
 545 154 545 154 545 146 c 0,61,62
 545 137 545 137 542 134 c 1,63,-1
 494 55 l 1,64,65
 463 0 463 0 388 0 c 0,66,67
 354 0 354 0 327.5 24.5 c 128,-1,68
 301 49 301 49 296 81 c 1,69,70
 241 0 241 0 158 0 c 0,71,72
 85 0 85 0 43.5 41 c 128,-1,73
 2 82 2 82 1 154 c 2,74,-1
 0 355 l 1,27,28
EndSplineSet
Validated: 1
EndChar

StartChar: udieresis
Encoding: 252 252 152
Width: 514
GlyphClass: 2
Flags: W
LayerCount: 2
Fore
SplineSet
209 451 m 128,-1,1
 209 466 209 466 221 476.5 c 128,-1,2
 233 487 233 487 250 487 c 128,-1,3
 267 487 267 487 279 476.5 c 128,-1,4
 291 466 291 466 291 451 c 128,-1,5
 291 436 291 436 279 425 c 128,-1,6
 267 414 267 414 250 414 c 128,-1,7
 233 414 233 414 221 425 c 128,-1,0
 209 436 209 436 209 451 c 128,-1,1
45 452 m 128,-1,9
 45 467 45 467 57 477.5 c 128,-1,10
 69 488 69 488 86 488 c 128,-1,11
 103 488 103 488 115 477.5 c 128,-1,12
 127 467 127 467 127 452 c 128,-1,13
 127 437 127 437 115 426 c 128,-1,14
 103 415 103 415 86 415 c 128,-1,15
 69 415 69 415 57 426 c 128,-1,8
 45 437 45 437 45 452 c 128,-1,9
0 355 m 1,16,17
 8 369 8 369 25 369 c 0,18,19
 33 369 33 369 38 365.5 c 128,-1,20
 43 362 43 362 42 356 c 1,21,-1
 43 151 l 2,22,23
 43 92 43 92 74 69 c 0,24,25
 113 40 113 40 158 40 c 0,26,27
 212 40 212 40 251 84 c 128,-1,28
 290 128 290 128 290 184 c 2,29,-1
 290 347 l 2,30,31
 290 366 290 366 312 366 c 0,32,33
 320 366 320 366 326 360 c 128,-1,34
 332 354 332 354 332 346 c 2,35,-1
 332 131 l 2,36,37
 332 82 332 82 351 62 c 0,38,39
 371 40 371 40 392 40 c 0,40,41
 421 40 421 40 431 48 c 0,42,43
 444 59 444 59 458 81 c 2,44,-1
 505 153 l 2,45,46
 514 165 514 165 524 165 c 0,47,48
 532 165 532 165 538.5 159.5 c 128,-1,49
 545 154 545 154 545 146 c 0,50,51
 545 137 545 137 542 134 c 1,52,-1
 494 55 l 1,53,54
 463 0 463 0 388 0 c 0,55,56
 354 0 354 0 327.5 24.5 c 128,-1,57
 301 49 301 49 296 81 c 1,58,59
 241 0 241 0 158 0 c 0,60,61
 85 0 85 0 43.5 41 c 128,-1,62
 2 82 2 82 1 154 c 2,63,-1
 0 355 l 1,16,17
EndSplineSet
Validated: 1
EndChar
